<svg id="Capa_1" data-name="Capa 1" xmlns="http://www.w3.org/2000/svg" xmlns:xlink="http://www.w3.org/1999/xlink" viewBox="0 0 340.16 113.39"><defs><style>.cls-1{fill:#fff;}.cls-2{clip-path:url(#clip-path);}</style><clipPath id="clip-path"><rect class="cls-1" width="340.16" height="113.39"/></clipPath></defs><rect class="cls-1" width="340.16" height="113.39"/><g class="cls-2"><path class="cls-1" d="M271.21,40.28c.06,0,.08,0,.07-.07"/><path class="cls-1" d="M289.18,26.32c0,.23.27.2.48.31.22-.42-.54-.39-.48-.31"/><path class="cls-1" d="M305.1,41.16c.15,0,.11-.21.14-.35l-.37.39Z"/><path class="cls-1" d="M305.87,41.14a.22.22,0,0,1,.29,0l.61-.43c-.4.11-.76-.47-.9.39"/><polygon class="cls-1" points="303.66 36.44 302.78 37.21 303.12 36.96 303.66 36.44"/><path class="cls-1" d="M302.09,41c.1-.19.25-.63.54-.6-.14-.32-.18.23-.72-.19.63.33-.45.46.18.79"/><path class="cls-1" d="M303.11,39.85c.55-.14.9.53,1,.85l.17-.13a.36.36,0,0,1-.21-.11c-.22-.49.21-.8.56-1.05l-.25-.35a1.89,1.89,0,0,1-1.83,0c-.11.22-.07.45-.31.49l.94-.15c0,.14,0,.38-.07.44"/><polygon class="cls-1" points="304.2 41.55 304.26 41.64 304.61 41.39 304.55 41.3 304.2 41.55"/><path class="cls-1" d="M301.36,41.24c.53,0,.31.43.58.63.11-.21,0-.39.16-.51-.23,0-.46-.46-.74-.12"/><path class="cls-1" d="M303.32,42.32l.34-.25c-.08.06-.14,0-.32.1Z"/><path class="cls-1" d="M293.94,47.11c-.35,0-.11.24-.14.44a1.2,1.2,0,0,0,.14-.44"/><path class="cls-1" d="M292.09,49.09c.31-.74,1.24-.85,1.65-1.45a9.86,9.86,0,0,0-1.95,1.4Z"/><polygon class="cls-1" points="300.98 42.16 301.45 42.09 300.47 42.01 300.98 42.16"/><path class="cls-1" d="M292.77,49.13l.31-.49-1.92,1.52c.43-.31,1.53-.06,2-.67Z"/><polygon class="cls-1" points="293.44 51.13 294.21 50.58 294.08 50.41 293.31 50.96 293.44 51.13"/><path class="cls-1" d="M298.94,59.87a2.54,2.54,0,0,1,0,.29l.42-.31Z"/><path class="cls-1" d="M290.29,45.68c.2-.28.95.23.56-.67Z"/><path class="cls-1" d="M301.29,40.24c.25.34.35-.25.62-.05l.22-.42c-.32.1-.68,0-.84.47"/><polygon class="cls-1" points="324.32 44.6 324.19 44.96 324.57 44.94 324.32 44.6"/><path class="cls-1" d="M322.78,44.27c0-.24.26-.19.37-.4-.52-.54-1.08.13-1.33-.22-.05.3.86.3,1,.62"/><path class="cls-1" d="M322.87,47.48a.89.89,0,0,1,.14-.38c-.18.11-.28.18-.14.38"/><path class="cls-1" d="M299.83,40.19c.15-.12.29-.2.3-.29l-.21-.11c.09,0,0,.22-.09.4"/><path class="cls-1" d="M300.72,21.55l.43-.3-.12-.17a1.53,1.53,0,0,0-.52.08c.14,0,.05.31.21.39"/><polygon class="cls-1" points="324.18 46.93 323.93 47.5 324.23 47.55 324.18 46.93"/><polygon class="cls-1" points="323.75 44.88 323.26 45.11 323.4 45.13 323.75 44.88"/><path class="cls-1" d="M321.81,45.1a.14.14,0,0,1,0,.15l.21.11Z"/><polygon class="cls-1" points="307.94 56.02 307.39 56.53 308.06 56.18 307.94 56.02"/><polygon class="cls-1" points="318.4 48.73 319.13 49 318.81 48.57 318.4 48.73"/><path class="cls-1" d="M307.36,57.21l-.11.2-.07-.08-.18.27c.16-.12.48-.22.36-.39"/><path class="cls-1" d="M309,53.82c.68-1.41.52.54.88.68.38,0,.81.58.95.22-.84-.44-.11-1.23-1-1.61.34-.25.65-.73,1.07-.51l0,.39c.27-.34.62.32.66-.36l.36.14-.22-.5c-.35.25-1-.7-1.15,0-.83-.05-1.41,1.15-2,1.44l1,.84Z"/><polygon class="cls-1" points="318.64 46.34 318.47 46.46 318.83 46.59 318.61 46.48 318.64 46.34"/><path class="cls-1" d="M309.33,55.4c.13.32.38-.36.57-.3l0-.08Z"/><path class="cls-1" d="M318.79,45.44l-.25-.34-.28.33c.23,0,.35.14.53,0"/><path class="cls-1" d="M319.79,45.38c.1-.21.64-.2.67-.35L320,45c.11-.21,0-.39,0-.68l-.54.17c.13.09.21.67.29.93"/><path class="cls-1" d="M243.19,28.34a3.11,3.11,0,0,1,.11.41c0-.13.11-.42-.11-.41"/><path class="cls-1" d="M244,47.59l0,0,0-.1v.12"/><path class="cls-1" d="M244.25,48.09l-.18-.52,0,0c0,.23-.18.49.21.5"/><polygon class="cls-1" points="244.5 37.7 244.05 37.62 244.24 37.88 244.5 37.7"/><polygon class="cls-1" points="277.32 39.18 277.26 39.1 276.57 39.59 276.63 39.68 277.32 39.18"/><path class="cls-1" d="M243.35,39.18c-.75-.12-1.2-.57-1.85-.37.51.16,1.35.6,1.85.37"/><path class="cls-1" d="M300.08,21.42a1.22,1.22,0,0,0-.32.44c.41.06.27-.21.32-.44"/><path class="cls-1" d="M279.39,38.61c-.22.18-.4.45-.24.57Z"/><path class="cls-1" d="M241.82,47.61l1.07-.5-.12-.18c-.57-.24-.77.56-1,.68"/><polygon class="cls-1" points="242.1 44.01 242.08 44.16 242.27 44.41 242.1 44.01"/><polygon class="cls-1" points="242.27 45.33 241.89 45.34 242.39 45.5 242.27 45.33"/><path class="cls-1" d="M242.69,46.46l-1.92-.31a5.21,5.21,0,0,0,1.75.43Z"/><path class="cls-1" d="M244.62,23c.33.28.11.7.21,1,.19-1.18.93.38,1.39-.61-.54-.39-1.6.5-1.41-.69-.39.55-1-.32-.92.54.26-.18.37-.4.73-.26"/><path class="cls-1" d="M288.46,29.33l-.19-.26c0,.15-.31.1-.13.36Z"/><path class="cls-1" d="M288.69,30.73c-.69-.41-.89.77-.7,1-.17-.41,1-.21.7-1"/><path class="cls-1" d="M291.83,28.73l.13-.36h-.91l.08.47c.19-.28.69-.5.7-.12"/><path class="cls-1" d="M287.32,29.37l-.38.92.61.1c-.14-.16.13-1-.23-1"/><polygon class="cls-1" points="298.88 22.63 299.19 22.53 299.12 22.06 298.68 21.98 298.88 22.63"/><path class="cls-1" d="M279.8,38.44c-.09,0-.26,0-.41.17.07.08.29,0,.36.13Z"/><path class="cls-1" d="M298.54,21.43l.17-.13c-.48-.3-.47-.83-.64-.71a.78.78,0,0,0,.47.84"/><path class="cls-1" d="M280.37,38.69c.1.32.12,1.09-.36.78.06.09.1.32.34.28-.1-.32.3-.48.57-.28.07.08-.17.12-.34.24l.21.11-.45.46a4.5,4.5,0,0,0,1.44-1.82l-.36-.13c-.32-.43.22-.42.24-.57-.08.06-.15,0-.13-.18l-.48.61-.84-.44.59.63c-.35.25-1.16.57-.91.92.11-.21.58-.29.48-.61"/><path class="cls-1" d="M286.38,30.43l-.38,0,.22.49c.09-.06,0-.3.16-.51"/><path class="cls-1" d="M279.76,37.3c-.09.06-.46.45-.29.33Z"/><path class="cls-1" d="M282.16,37l-.17.32c.18,0,.4,0,.17-.32"/><path class="cls-1" d="M281.29,40.51a.3.3,0,0,1,.13-.36L281.3,40c.22.49-.41.16,0,.52"/><path class="cls-1" d="M282.39,38.41c.23.49-.37.4-.35.78.08-.06.86-.62.95-1.22-.21-.11-.33.64-.61.06.08-.06-.11-.32.13-.36,0-.24-.24,0-.32.1-.35.25.17.41.2.64"/><path class="cls-1" d="M281.84,40.56l-.36.6.24,0c.45,0,.08-.34.12-.56"/><path class="cls-1" d="M305.25,39.36c-.08.44-.71.11-.57.67.26-.19.77-.56,1.19-.34l-.39-.37c0-1.21.86.29,1.24-.63.37-.4-.11-.71-.34-1.2-1-.7-.49,1.14-1.54.59.1-.6-.63-.33-.84-.44l-.12.74c.53,0,1.66.11,1.37,1"/><path class="cls-1" d="M302.71,72.73c.13.56-.46,1.37.11,1.62-.11-.7.11-1.12-.11-1.62"/><path class="cls-1" d="M297.22,74.2c.21.11.23,0,.32-.1l-.13-.18Z"/><path class="cls-1" d="M296,76.36l.45.07c.26-.18.25-.56.44-.83-.32.1-.9.38-.89.76"/><path class="cls-1" d="M306.45,72.66l.42.22.29-.87c-.44-.07-.61.44-.71.65"/><path class="cls-1" d="M293.78,47.61a.14.14,0,0,0,0-.06l-.06.09,0,0"/><path class="cls-1" d="M285.64,32.14a4.8,4.8,0,0,1,1,1.53c.06.08,1,.32,1.27.13-.23-.87,1.41-.23,1.11-1.19a.56.56,0,0,1,.89.14c.27-.72,1.34-1.23,1.52-1.88l.36.14A14.42,14.42,0,0,1,294,28.62l.24-1.48c-.72-.27-.44-.6-1-1.23-.42-.22-.92-.91-1.43-.54-.34-.28-.41-.75-.86-.82-.71.64-1-.31-1.68,0-2.29,1,.32,2.26.19,3.53.57-.29.51-1.29,1.23-1,.12.17.25.34.05.61h-.52a2.57,2.57,0,0,0-.2,2.1,5.15,5.15,0,0,1-1.16-1.25l.17-.12-.67-1.49c-.72-2.62-1.54,1.51-2.66.86-.09,1.51-2.41.83-2.78,2.14,1.09.78,1.62,2.24,2.76,2.2M292,28.37l-.13.36c0-.38-.51-.16-.7.12l-.08-.47Zm-2.3-1.74c-.21-.11-.44-.07-.48-.31-.06-.08.7-.11.48.31m-1.39,2.44.19.26-.32.1c-.18-.26.11-.21.13-.36m.42,1.66c.32.82-.87.62-.7,1-.19-.25,0-1.44.7-1m-1.37-1.36c.36.06.09.86.23,1l.12,0a.09.09,0,0,1-.12,0l-.61-.1Zm-.94,1.06c-.11.21-.07.45-.16.51l-.22-.49Z"/><path class="cls-1" d="M294.14,51c.28-.33,1.07-.51,1-1,.08-.07.22,0,.2.1L296,49a1.5,1.5,0,0,0,1.26-.25c.75-.41,2-.9,1.37-1.91-.22-1.41-1.38-1.74-2.06-3.23.73-.26-.08-.85-.1-1.23-.77-.89-1.16-.34-2-.63-.24,0-.46.45-.65.19l-2.06,1.49c-.78-.35-.8.71-1.54.59-.36.78-1.14,1.34-.79,2-1.53.06-1,1.52-2.13,2.32.4.37.58-.28.94-.15-.32.1-.44.84-.53.9.45.08.4-.54.91-.38-.18.12-.1.59-.42.69l.64-.2c-.05.29,0,.53-.27.72.45,1,1.52-.44,2.28-.47-.05.82-.84.48-1,1.13.19.26.44.6.62.86l.18-.12c.12.17.44.07.36.52,1.17.34,2-.82,3.19-.86m-3.85-5.34.56-.67c.39.9-.36.39-.56.67m3.92,4.9-.78.55-.12-.17.77-.55Zm-.27-3.47a1.2,1.2,0,0,1-.14.44.14.14,0,0,1,0,.06l0,0c-.41.59-1.34.71-1.65,1.45L291.8,49a9.76,9.76,0,0,1,1.94-1.4l.06-.09c0-.2-.21-.43.14-.44m-.86,1.53-.31.49.4.37c-.48.6-1.58.35-2,.66Z"/><path class="cls-1" d="M287.67,30.41l-.12,0a.09.09,0,0,0,.12,0"/><path class="cls-1" d="M294.68,26.68c.7.81,1.25-.25,2.23-.16,0-1.15,1.53-1,1.83-1.46l.06.09c.93-.53.86-1.54,1.39-2.44-.4-.37-.33-.81-.87-1.2a.41.41,0,0,0-.22.41c-.48-.3-.68,0-1-.16-.16-.41.28-.34.37-.4l-.35-.66c.76-.95.6,1,1.29.51l-.25-.35a2.38,2.38,0,0,1-.12-1.62l.65.72.17-.13c1.3.91-.37,1.84.75,2.86l.41-.16c-.36-1,.49-1.13.57-2.11l-.77,0c.09-.06-.07-.47.2-.28,1.52-.43,0-1.59.16-2.33a11.78,11.78,0,0,0-4.07.18c-.38,0-.92.53-1.43.37-.28.34-1.41.76-.87,1.16-.21-.11-.56.14-.57-.25-.25.18-.61.56-1,.59-.32.69-1.21,1.17-1.38,1.77-1.32,1.08,1,2.29,1.25,3.55a19.43,19.43,0,0,1,1.59,1.47m3.57-4.09a.28.28,0,0,1,.25-.23.29.29,0,0,1,.19,0,1.71,1.71,0,0,1,.51-.09l.12.18-.43.31c-.16-.09-.07-.35-.2-.4a1.1,1.1,0,0,0-.44.26c-.06.23.09.5-.32.44a1.32,1.32,0,0,1,.32-.44m-1,.64.07.46-.31.11-.2-.65Zm-.41-.75-.17.12a.8.8,0,0,1-.48-.83c.18-.13.17.4.65.71"/><path class="cls-1" d="M296.92,41.43l-.27.19a3.28,3.28,0,0,1,.52,2,3.53,3.53,0,0,0,2.31,1.21c-.56-1.16-1.69-1.26-1.94-2.52l.08-.06Z"/><path class="cls-1" d="M295,18.73l0,0a1.54,1.54,0,0,0,.08-.19Z"/><path class="cls-1" d="M300.33,21.19c-.18,0-.24.13-.25.23a1.13,1.13,0,0,1,.43-.26.26.26,0,0,0-.18,0"/><path class="cls-1" d="M309.9,55.1l.13.18c0-.12-.08-.16-.13-.18"/><path class="cls-1" d="M298.72,62.12c.59.62.94-1.07,1.68,0,.62-.06,1.16-.58,1.48-.68l.63-.58c.12-.74-.56-.78-1-.61l.78-1.09c-.6-1-1.91-1.38-2.29-2.28-1,1.51-1.53-.47-2.51.89-.41.69,1.53,2.3.07,3.36-.57-.25-1.14.42-1.66-.12.05-.3.23-.42.33-.63-.88-.14-.81.32-1.3.54.75.51-.36,1.7-.21,2.26.83.44.53-.52,1.27-.41l0,.24c.27-.72,1.9-.45,1.48-1.59,0-.61.67-.09,1.06-.25a.35.35,0,0,1,.13-.08.35.35,0,0,1-.13.08c-.21.21,0,.62.11,1m.22-2.25.38,0-.42.31a.08.08,0,0,1-.1.07l.1-.07a2.54,2.54,0,0,0,0-.29"/><path class="cls-1" d="M313.57,50.38l-.1-.32-.11.21-.25-.35c-.14-.55-.2.28-.38,0-.05.29.57.24.84.44"/><path class="cls-1" d="M314.23,51.48l-.29-.59-.17.13c.12.17.29.58.46.46"/><path class="cls-1" d="M310.88,37.92c-.32.1-.34-.28-.55-.4l-.25.19c.45.45,1.16.34,1.64.65a26.5,26.5,0,0,1,5.11-2.9c-.14,0-.12-.17-.09-.32a3.55,3.55,0,0,1,1.13-.42,1.49,1.49,0,0,1,.76-.94c.2-.28.13-.36.18-.66.24,0,.53,0,.64-.2.46-1.37,1.8-2.6.91-4.19l.18-.12a4.45,4.45,0,0,1-1.08-1.32c-2-.63-5-.82-6.41.56-.79.17-1.61,1-2.45,1.5l.21.11a23.91,23.91,0,0,1-1.69,2,3.16,3.16,0,0,0-.13,2.18c-.53,0-.57.67-.53.91a9.19,9.19,0,0,1,2.42,3.36"/><path class="cls-1" d="M305.67,58.68c.32-.1.38-.39.42-.69.41-.16.78-.56,1.15,0,2.45-1.51,5.37-2.17,7.76-3.76.82-1.77-1.87-2.06-2.21-3.25a2.59,2.59,0,0,0-1.74-1,12.73,12.73,0,0,1-3.71,3.2c.07.46.43.07.65.18v.38c-.16-.4-.75.41-.72-.26-.49.22,0,1.06-.45,1.37-.38,0,.18-.66-.5-.69-.19.27.48.84-.2.8l.38.52c.22.49-.42.69-.59.82,0-.15-.41-.38.07-.45a.68.68,0,0,0-1.19-.19c1.25,1.19-.46,1.9.87,3m3.66-3.28.52-.38,0,.08c.05,0,.09.06.13.18l-.13-.18c-.19-.06-.44.62-.57.3m1.19-3.09c.12-.74.8.21,1.14,0l.23.49-.36-.14c0,.68-.39,0-.66.36l0-.39c-.42-.22-.73.26-1.07.51.92.38.19,1.17,1,1.61-.14.36-.57-.24-.95-.22-.36-.14-.2-2.09-.88-.68l.56.77-1-.84c.58-.29,1.16-1.49,2-1.44M307.94,56h0L308,56l-.08.07.12.16-.67.35Zm-.76,1.31.07.08.11-.2c.12.17-.2.27-.36.4Z"/><path class="cls-1" d="M317.35,44.9c-1.3,1.47-4.36,2.49-3.51,4.76,1.47.77.65,2.54,1.8,3.42.84.44,1.51.09,2.31-.62,1,.17,1.62-1,2.26-1.23,1.13-.43,2.39-.68,3.37-1.12a18.6,18.6,0,0,0,2.86-4c0-.77.13-2.18-.66-2.92-1.43-.54-3.14-1.27-4.69-.69-1.35.85-2.95,1.35-3.74,2.43m7-.3.25.34-.38,0Zm-.14,2.33.05.62-.3,0Zm-.43-2-.35.25-.14,0Zm-.88,2.6c-.14-.2,0-.27.14-.38a.25.25,0,0,1,.16-.1,1,1,0,0,1-.16.1.89.89,0,0,0-.14.38m.28-3.61c-.11.21-.4.16-.37.4-.1-.32-1-.32-1-.62.25.35.81-.32,1.33.22m-1.36,1.38h0a.14.14,0,0,0,0-.15l.19.26-.21-.11c-.12.15-.39.28,0,0m-2.29-.8.54-.17c-.05.29.07.47,0,.68l.45.07c0,.15-.57.14-.67.35-.09-.26-.16-.84-.29-.93l-.1,0s.08,0,.1,0m-1.1,4.28.41-.16.31.43Zm.07-2.27.17-.12,0,.14.22.11Zm.07-1.36.25.34c-.18.13-.3,0-.53,0Z"/><path class="cls-1" d="M323,47.1l.16-.11a.31.31,0,0,0-.16.11"/><path class="cls-1" d="M321.79,45.25h0c-.39.28-.12.15,0,0"/><path class="cls-1" d="M319.4,44.48l.1,0s-.06,0-.1,0"/><path class="cls-1" d="M299.65,77c.65.18,1.3-.55,1.71-.71.87-1.15-.85-2.26-.48-3.59l1.9,3.74.41-.16-.31-1.88c.61.48.63,1.78,1.15,2.32.13-.35.62,0,1.06,0,2-1.27,4.19-1.44,6.37-2.23.33-1,1.05-1.27.52-2.21.38,0,.57.64.53.94.11.7.94.76,1.65.64,1.92-.6,4.13-.62,6.16-1.43a.6.6,0,0,1,.14-.36c.14,0,.23,0,.29,0l1.43-1.29-.12-.17c0-.24.28-.34.54-.52-.13-.18-.27-.2-.17-.41.24,0,.44-.31.59-.29.89-1.3.69-1.94.53-3.26-1.33-.75-2.58-1.94-4.17-1-2.57-.12-4.95,1.47-7.12,2.64-1.51.82-.78,2.39-1.05,3.63a18.8,18.8,0,0,0-.94-2.21c-.67-.56-1.33-.21-2.15.12l.11-.22c-1.46,2-4.4,1.34-5.66,3-.23,0-.3-.05-.13-.18-1.06,0-2.4.3-3.16-.2-1.18,1.63-3.68,1.5-3.68,3.43.25.34.41-.16.56-.14.12.18.18.26.16.41a1.44,1.44,0,0,0,.15,1.06c.3.51.62.72,1.07.67s1.7-1,2.11-.2m-2.43-2.83.19-.28.13.18c-.09.06-.11.21-.32.1m5.48-1.47c.23.5,0,.92.12,1.62-.57-.25,0-1.06-.12-1.62m4.17.15-.42-.22c.1-.21.27-.72.71-.65Z"/><polygon class="cls-1" points="307.94 56.01 307.94 56.02 308.02 55.95 307.94 56.01"/><path class="cls-1" d="M301.78,38.19a11.08,11.08,0,0,0-4.28,2c-.08.45-.39.93.09,1.23s.9,1.06,1.65.65c-.24.57.44.6.56.78.48,1.75,1.43,2,2.86,1.6-.09.07,0,.24.09.32,1.68-.94,2.54-2.48,4.28-3.33.36-1.31,1.63-1.18,2.45-1.51l-.2-.64c-.77-.88-.87-2.12-2-2.84-.45-1-1.55-1.24-2.58-1.41-1.11,1.19-2.28,1.38-3,2.7.06.09.19.26.16.41m-1.95,2c-.08.13-.17.24-.24.23a1.29,1.29,0,0,1,.24-.23c.1-.18.18-.39.09-.4l.21.11c0,.1-.15.17-.3.29m1.15,2-.51-.15,1,.08Zm1-.29c-.28-.2-.05-.62-.58-.63.28-.34.51.16.74.12-.17.12-.05.3-.16.51m1.38.45,0-.15c.17-.12.23,0,.32-.1Zm.94-.68-.06-.09.35-.25.06.09Zm.84-.48-.23,0,.37-.39c0,.14,0,.38-.14.35m1.67-.41-.61.43a.22.22,0,0,0-.29,0c.13-.86.5-.28.9-.39l.26-.19a.59.59,0,0,1-.26.19M304,37.64c.21.11.94-.16.84.44,1.05.55.52-1.29,1.54-.58.23.48.71.79.34,1.19-.38.93-1.2-.58-1.24.63l.39.37c-.42-.22-.93.15-1.19.34-.14-.56.49-.23.56-.67.3-.87-.83-1-1.36-1Zm-.34-1.2-.54.52-.34.25Zm-1.11,2.63a1.92,1.92,0,0,0,1.83,0l.25.34c-.35.25-.78.56-.56,1.05a.36.36,0,0,0,.21.11l-.17.13c-.1-.32-.45-1-1-.85.08-.06.05-.3.07-.44l-.94.15c.24,0,.2-.27.31-.49m.08,1.31a.15.15,0,0,1,.09,0l0,.14a.91.91,0,0,0-.06-.16c-.29,0-.44.41-.54.6-.63-.33.45-.46-.18-.79-.27-.19-.37.39-.62.05.16-.51.52-.37.84-.47l-.22.42c.54.43.58-.13.72.19"/><path class="cls-1" d="M303.38,57.85l.25.35c.2.11.33-.63.09-.59Z"/><path class="cls-1" d="M285.38,34.68c.2-.27,1.08.4,1-.45-.66-1.09-2.48-1.61-3.17-2.94-.27-.2-.8-.21-.85.08.23,1.79,2.29,2.28,3,3.31"/><path class="cls-1" d="M298.61,61.14a.35.35,0,0,0,.13-.08.35.35,0,0,0-.13.08"/><path class="cls-1" d="M298.9,60.16l-.1.07a.08.08,0,0,0,.1-.07"/><path class="cls-1" d="M302.72,40.4a.15.15,0,0,0-.09,0,.91.91,0,0,1,.06.16Z"/><path class="cls-1" d="M307,40.56l-.26.19a.59.59,0,0,0,.26-.19"/><path class="cls-1" d="M299.59,40.42c.07,0,.16-.1.24-.23a1.29,1.29,0,0,0-.24.23"/><path class="cls-1" d="M281.84,40.56l.07-.1a.15.15,0,0,0-.07.1"/><path class="cls-1" d="M273.81,39.86a1.47,1.47,0,0,0,.89,1.51l.52.17c.27.19.41.69,1,.63.2-.27,1.85.38,1.58-.34,1.19,1.1,2.1-.73,2.79.6.8-.71,1.94-1.13,2.49-2.18a5.13,5.13,0,0,0-.84-1c.24,0,.37-.4.58-.29-.28.54.35.23.47.26-.06-.14.09-.24.28-.14s0,.24,0,.39c.46-.47.75-1.33,1.43-1.3a14.86,14.86,0,0,0,.91-1.83c.27-2.16-2.69-1.73-3.54-3.08-.86-.29-.36-1-1.29-1.43-1.27-.13-1.07.51-2.24.7a21.54,21.54,0,0,0-3.9,5.3c.12.17.26.19.15.41-.39.54-1.23.53-1.32,1.59m6.88,1.21c-.4-.36.23,0,0-.53l.12.17a.31.31,0,0,0-.13.36m.43.61-.23,0,.36-.6a.14.14,0,0,1,.06-.1l-.06.1c0,.22.33.56-.13.56m.8-3.45c-.24,0-.06.29-.14.36.29.58.4-.17.62-.06a2.42,2.42,0,0,1-1,1.22c0-.38.58-.29.36-.78,0-.23-.55-.4-.2-.64.08-.06.28-.34.32-.1m-.52-.35.16-.32c.23.31,0,.28-.16.32l-.17.32c-.05-.23,0-.29.17-.32m-1.2,1.06-.58-.63.84.44.48-.6c0,.14,0,.23.12.17,0,.14-.55.14-.24.57l.36.13a4.48,4.48,0,0,1-1.44,1.82l.45-.46-.21-.11c.18-.12.41-.16.35-.25-.27-.19-.68,0-.58.29-.24,0-.27-.19-.34-.28.49.31.46-.46.36-.78.1.32-.37.4-.48.61-.25-.35.56-.67.91-.92m-1-1.08-.28.33c-.17.12.2-.27.28-.33m-.37,1.31h0c.14-.13.32-.21.4-.17l-.05.3c-.06-.08-.29,0-.35-.13h0l-.24.56c-.16-.11,0-.38.24-.56m-2.13.48.06.09-.69.5-.06-.09Z"/><path class="cls-1" d="M244,23.3c.22,0,.65,1.71.61,2s-.71.33-.85.06c.13.26,0,.55.3.73a.7.7,0,0,0,.74-.11,6,6,0,0,0,.81-1.31,4.46,4.46,0,0,0,1.31.37l-.05.29.36.14c0-.15-.11-.7.21-.81.46.46.91.92.67,1.49-.43.1-.65.28-.49.71a6.1,6.1,0,0,0,.29.57c0,.05.17.76.1.75.39.09.58.28.55.67,0,.08-.2.94,0,.93a5.65,5.65,0,0,0,.7-.11c.4-.07.5-.66.41-1-.16-.48-.63-.84-.71-1.36,0-.24.07-.32.14-.52s-.19-.71-.25-1a3.54,3.54,0,0,1,0-.92,2.54,2.54,0,0,0,0-.87,1.57,1.57,0,0,0-.13-.47c-.06-.11-.31-.36-.31-.46,0-.77-.85-.83-1.25-1.19a.62.62,0,0,1-1-.2,1.53,1.53,0,0,0-1.21-.62c-.24,0-.47,0-.7,0s-.55-.07-.8.1-.33.43-.48.63-.68.69-.42,1.11,1,.44,1.43.4m.86-.61c-.19,1.18.87.29,1.41.68-.46,1-1.2-.57-1.39.61-.1-.32.12-.74-.21-1s-.47.08-.73.26c-.1-.86.53,0,.92-.53"/><path class="cls-1" d="M245.34,26.88l.2.26c0-.15,0-.15.1-.21,0-.24-.12-.18-.3-.05"/><path class="cls-1" d="M282,37.32c-.11,0-.21.09-.16.32Z"/><path class="cls-1" d="M244,47.47a.22.22,0,0,0,0-.11Z"/><path class="cls-1" d="M244,47.59v-.12l0-.11a.22.22,0,0,1,0,.11l0,.1a2.39,2.39,0,0,1,.54-.3,3.06,3.06,0,0,1,.72-.19c-.28-.5-.68-1,0-1.48l-.44-.07a15.47,15.47,0,0,0,.38-1.85c.39.37.69,1.34,1.48,1.16l-.44-.07a1.78,1.78,0,0,0-.48-1.76l.18-.12-.55-.39c-1-.08-.23,1-.56,1-.52,0-.09-.32-.43-.6-.61,0-.82-.06-1.25.25a1,1,0,0,0,1.33.22c0,.38.27.72,0,1.06a11.83,11.83,0,0,0-3-.95c0-.68.53-.38.87-.62.16-.51-.1-.32.06-.83-.34-.28-.79.18-1.11-.25.1-.07,0-.15.12-.22s.38,0,.42.22c1.62-.11,2.27-1.76,3-2.93-.39,0-1.1-.26-1.42-.16l.07-.44a5.05,5.05,0,0,0,2.38-.15c.9-1.3-.87-1.2-1.15-1.78a3.15,3.15,0,0,0,2.91-1c-.29-.58-1.34-1.13-1.37-1.9.72-.64,1.87-1.22,2.31-2.06a1.16,1.16,0,0,0,0-.77c-1.11.28-1.88-.6-2.35-1.44,0,.53-.67.35-.94.15.11-.21.32-.1.49-.22.16-.51-.68-.95.22-1.34-.41-.75-1.42.76-2.09.19.19.61-.45.07-.71.37,0,0,0,0,0,0,.22,0,.12.28.11.41a3.11,3.11,0,0,0-.11-.41s0,0-.06,0,0,0,0,0c-.48-1.25-2.07-2-1.74-4-.49.61-1.07.89-.83,1.77-1.35,2.67.06,5.72-.24,8,1.8,1.59-.72,2.09.48,3.58-.49.23.3,1-.4,1.08.47,2.28-.95,4.06-.72,6.37l-.2.71c-.23.74,4.16,2,4.52,1.72m.46-9.89-.26.18-.19-.26Zm-1.15,1.48c-.5.23-1.34-.21-1.85-.37.65-.2,1.1.25,1.85.37M242.1,44l.17.4-.19-.25Zm.17,1.32.12.17-.5-.16Zm-2.09,2.55-.51-.16Z"/><path class="cls-1" d="M283.92,38.69a.06.06,0,0,0,0,.05s0,0,0-.05"/><path class="cls-1" d="M243.19,28.34s0,0,0,0,0,0,0,0,0,0,.06,0"/><path class="cls-1" d="M240.52,26c-.26-.11.09-1.06.19-1.28a.92.92,0,0,1,.84-.61c.65.07.76,1.56.89,2.07a1.9,1.9,0,0,0,1.76,1.14c.48,0,.7-.3,1.24-.1a1.8,1.8,0,0,1,.79.59,4.28,4.28,0,0,0,.37.57c.14.15.38.26.5.42s.27.63.57.91c.49.46,1.25.94.88,1.69s-1.19,1.17-1.75,1.82c-.31.35-.29.51,0,.82a5,5,0,0,1,.6.92c.26.5.33.88-.16,1.25-.25.21-1.24.53-1.31.87s.26.23.36.45,0,.52-.31.67-1.1.25-1.3.69c.32.23.67.15.41.64a7,7,0,0,1-1.1,1.22,3.62,3.62,0,0,0-.94,1.35c-.09.29-.2.87.07,1s.86-.24,1.14-.43.73-.19,1.06-.39.48-1.16.94-.8a1.79,1.79,0,0,1,.46,1.29c.05,1,.42,1.88,0,2.88-.28.64-.6,1.65-1.21,2a2.68,2.68,0,0,1-1.25.38c-.39,0-.75-.31-1.16-.35a5.7,5.7,0,0,1-2.51-.86c-1.43-.87-.12-2.94-.11-4.23a17.36,17.36,0,0,1,.08-2.39,8.35,8.35,0,0,0,.18-1.22,4.09,4.09,0,0,1,.46-1.42,10.28,10.28,0,0,0,.39-1.52,4,4,0,0,0-.33-2,17.1,17.1,0,0,1-.48-2.12,16.74,16.74,0,0,0-.42-2.75,4.39,4.39,0,0,1-.41-1.93,2.9,2.9,0,0,1,.18-1.14,2.74,2.74,0,0,1,.61-.78"/><path class="cls-1" d="M285.71,36.79a22.38,22.38,0,0,1-2.53,3.34,9.51,9.51,0,0,1-2.35,2,1.13,1.13,0,0,1-.63.23c-.31,0-.33-.26-.57-.32-.47-.13-.93.31-1.36.42s-.89-.09-1.42-.2-.9.17-1.36.1-.37-.19-.62-.53-.75-.39-1.11-.72c-.88-.8.49-1.79,1-2.34s.88-1.17,1.3-1.71a4.13,4.13,0,0,1,3.76-1.58,7.65,7.65,0,0,1,3.53.74c.52.3,1,.64,1.52,1"/><path class="cls-1" d="M295.39,19.14c1.48-.75,6.08-3.42,6.82-.33.26,1.13-.28,1.88-.83,2.79-.2.34-.29.79-.65,1-.62.3-.67-.33-.67-.8s-.25-2.93-1.27-2.06c-.64.54.35,2.34.73,2.86.22.31.64.66.57,1.09s-.67.81-.92,1.11-.43.82-.85,1.1a4.6,4.6,0,0,1-1.77.67c-.84-.14-1.18-2.35-1.21-3-.08-1.65.35-4,2.41-4"/><path class="cls-1" d="M239.35,47.54c-5.42,9.89-3.27,21.34-3.18,21.4a8.51,8.51,0,0,0,3.36-.12,19.94,19.94,0,0,1-.28-9.75A8.89,8.89,0,0,0,244,60a13.57,13.57,0,0,0,.83-2.71c-3.83-.27-5-1.53-5-1.53a10.84,10.84,0,0,1,1.06-3.9c9.21,3.61,16.16,1.17,16.16,1.17l-.63-2.78a28.69,28.69,0,0,1-17.1-2.72"/><path class="cls-1" d="M259.08,57.38s-.62,5.84-.17,7.22c.54,1.68,2.12.82,2.57-.54,1.23-3.77.51-13.44.51-13.44l2.22.08s1.89,16.23-4,17.32a2.75,2.75,0,0,1-3.11-1.64c-.87-1.77-1-7.93-1-7.93Z"/><path class="cls-1" d="M282.29,49.19a6.39,6.39,0,0,0-5.6,1.69,4.58,4.58,0,0,0-1.17,5.67c1.3,2.55,5.61,4.47,8.34,3.52,5.08-1.77,3-9.9-1.57-10.88m1.85,6.36C283.6,57.39,282,58,280,57.42s-2.55-4.66-.46-5.16,5.43.54,4.62,3.29"/><path class="cls-1" d="M242.69,76.89l5.63,3.17-2.89-4.83,2.3-.78c.11,0,5,8.55,5,8.55l-1.51,1.38s-6.44-4.06-6.4-4l6.07,5.23a13.74,13.74,0,0,1-1.63,1.5c-3.22-1.92-7.55-5.85-9.1-8.73.33-.13,2.55-1.47,2.55-1.47"/><path class="cls-1" d="M254.17,79.42c1.79-.28-.73-7.81-.73-7.81l1.73-.5s1.79,6.79,1.54,8.48a2.33,2.33,0,0,1-3.28,1.73c-1.48-.71-3.26-4.43-3.26-4.43s-.74-1.52-1.11-2.55l1.92-.78s1.62,6.1,3.19,5.86"/><path class="cls-1" d="M270.44,71.59A2.74,2.74,0,0,0,267.13,69a2.78,2.78,0,0,0-2.37,3.26c.29,1.73,1.54,2.54,3.37,2.34,2.13-.25,3,2.27,1,3-2.39.88-2-2.44-2-2.44l-1.91,0s-.06,2.63,1.42,3.63c3.88,2.62,7.8-3.51,3.68-5.42-1.12-.52-3.74.43-3.9-1.25s1.92-2,2.67-.47c0,0,1.41-.07,1.41-.07"/><path class="cls-1" d="M275,67.74l3.58,7.89a7.22,7.22,0,0,0,1.89-.8c-.07-.17-1.52-4.23-2-5.89s1.62-3.38,3.05-3.19c-.23-.65-.56-1.9-.62-1.9a4.29,4.29,0,0,0-4.13,4l-.51-.76Z"/><path class="cls-1" d="M255.31,81.91c-2.57,1.36-3.82,2.86-3.9,5.37-.13,3.4,2.65,9.58,6.33,10.44a6.2,6.2,0,0,0,7.34-5.21c-.67-.07-2.34-.46-3-.61-.45,2-1.63,3-3.53,2.83-2.39-.16-3-2.84-3.67-4.89s-.32-3.22,1.16-4.36a3.79,3.79,0,0,1,4.36,0,27.91,27.91,0,0,0,2.37-1.74c-1.31-1.69-3.62-3.32-7.45-1.79"/><path class="cls-1" d="M263,82.44,267.18,96l2.37-1.26s-2.13-7.81-4.29-13.23c-.13.07-2.24.94-2.24.94"/><path class="cls-1" d="M268.44,80.27c0,.21,2.2,10,4.33,9,1.69-.76-2.42-9-2.5-9.42l2.18-.89s2.1,4.69,2.61,6.21c.66,2,1.62,3.74.33,5.32-1.16,1.42-3.27,2.46-5,.86s-3.88-8.92-4.41-10.2Z"/><path class="cls-1" d="M277.63,60.49c-3.13,1.14-5.07.08-6.31-5.55.37-.41,1.37-1.4,2.94-3.3,1.92-2.32,1.66-10-2.88-7.73a13.27,13.27,0,0,0-6.06,6.71,34.73,34.73,0,0,1,.94,8.47c0,2.15-.37,6.93-.37,6.93l2.9-.62s.32-7.7.22-9.6c.05.33.84,4,2.69,5.91,1.48,1.5,4.41,1.54,6,.86,0-.4-.08-1.68-.11-2.08m-8.74-7s-.5-3.08-.46-3.17c.81-2.13,2.81-4,3.76-3.7s.68,2.49.56,3.37c-.26,1.9-3.86,3.5-3.86,3.5"/><path class="cls-1" d="M264.5,75.23s-.92.16-1.53.31c.16.67.09,4-1.65,3.5-2.54-.46-2.88-3.87-2.88-3.87l5.83-1.32a3.79,3.79,0,0,0-4.21-3.48,4,4,0,0,0-3.33,2.78c-.9,3.1,1.93,7.83,5,7.48,3.88-.31,2.81-5.4,2.81-5.4M260,72.06a2.71,2.71,0,0,1,2.64.9l-4.28,1A2.19,2.19,0,0,1,260,72.06"/><path class="cls-1" d="M286.57,61c-5.55-.19-4.82,4.19-4.82,4.19l1.67.23s.11-1.82.88-2.38c2.06-1.5,3.5,1.13.9,3.07-1.13.84-2.48,1-3.32,3a2.7,2.7,0,0,0,2.88,3.59,3.87,3.87,0,0,0,3.4-3.7c0,.24.3,1.3.36,1.53a6.78,6.78,0,0,0,1.47-.87c-2-3.69-.22-8.29-3.42-8.62M285,71.33c-1.18.54-1.92-.33-1.71-1.5s2.55-1.68,3.62-3c.08,1.82-.82,4-1.91,4.54"/><path class="cls-1" d="M281.64,80.77c-1-2.61-5.11-5.67-8.24-2.36l4,10.78c3.65-.82,5.35-5.45,4.21-8.42m-3,5.45-2.53-6.65s2.07-1.12,3.42,1.79a4.2,4.2,0,0,1-.89,4.86"/><path class="cls-1" d="M292.74,73.56c-2.05-2.78-7.82-.13-7.82-.13l4.83,7c2.84-.76,5.41-3.6,3-6.87m-2.05,4.82-2.95-4.27s3-1.19,4.15,1.06a2.22,2.22,0,0,1-1.2,3.21"/><path class="cls-1" d="M244.24,67.14c-2.53.92-2-4.82-1.71-6.42-.58-.09-2.67-.35-2.67-.35a16.53,16.53,0,0,0,.14,6.46c.54,2.18,2.49,3.17,5.21,2.5,4.64-1.14,4-7.78,4.2-10.57a16.92,16.92,0,0,1-3.32-.56c-.15,2.39.51,8.09-1.85,8.94"/><path class="cls-1" d="M259.78,52.14c-2.44,2.71-5.73,3-10.47,3-.09,1.12-.26,2.49-.32,3a20.83,20.83,0,0,0,3.21.08,42.66,42.66,0,0,1-1.06,10.08s1.78-.1,2.52-.06A41.53,41.53,0,0,0,255,57.67a8.72,8.72,0,0,0,6.23-3.76s-1.09-1.42-1.46-1.77"/><path class="cls-1" d="M275.74,66.56l-.18-1.71s-2.4.77-3.22.92l-1-3.85-1.59.15,1,4.28-2.35.76.33,1.61s1.21-.26,2.43-.67c.49,2.9,1.3,6,1.55,7.31,0,.16.07.3.09.44.32,2.06,3.55.56,3.55.56l-.29-1.73-1.73.37-1.5-7.38Z"/><path class="cls-1" d="M287.83,82.74l1.45-1.2-5.55-8-2.82,1.53L283.09,86,285,84.67l-1.15-5.6,1.09-.62Zm-4.65-5-.44-2,.68-.49.92,1.85Z"/><path class="cls-1" d="M241.89,71.84c-.68-2.52-2.7-2.77-5.57-1.07A15,15,0,0,0,239.37,78l1.38-.67a7,7,0,0,1-1.6-2.44c0,.06,3.4-.54,2.74-3m-3.21,1.83-.91-2.23c.77-.42,2.09-1.09,2.81.53.58,1.29-1.9,1.7-1.9,1.7"/><path class="cls-1" d="M245,70.46c-2.34-.25-2.16,1.62-2.16,1.62l.7.15s.1-.76.44-1c.92-.57,1.44.59.29,1.33-.51.32-1.08.35-1.49,1.15a1.13,1.13,0,0,0,1.1,1.6,1.63,1.63,0,0,0,1.55-1.46c0,.11.09.56.11.66a3.27,3.27,0,0,0,.65-.32c-.23-1.94.15-3.52-1.19-3.75m-.85,4.13c-.52.2-.8-.2-.68-.69s1.14-.63,1.63-1.16a2.27,2.27,0,0,1-.95,1.85"/><path class="cls-1" d="M249.38,69.93c-1.77-.38-1.93,1-1.93,1l.29,2.75-.86.32-.47-3.93.73-.43.09.31a2.15,2.15,0,0,1,2.06-1Z"/><path class="cls-1" d="M251.74,69.21a1.46,1.46,0,0,0-2,1.39l.69-.16s0-.54.35-.67c.82-.38,1.14.63.11,1.12-.46.22-.94.19-1.37.8a1,1,0,0,0,.75,1.44,1.37,1.37,0,0,0,1.44-1c0,.08,0,.47,0,.56a2.78,2.78,0,0,0,.57-.21c0-1.63.5-2.89-.59-3.23m-1.1,3.21c-.38.09-.54-.21-.41-.54s.83-.33,1.22-.66a1.58,1.58,0,0,1-.81,1.2"/><path class="cls-1" d="M297.24,58a.91.91,0,0,1-.3,1.27c-.36.31-.69.21-1.13.24a7.32,7.32,0,0,1-1.48,0,1.86,1.86,0,0,0-1.07,0,1,1,0,0,0-.56.5,1.47,1.47,0,0,0-.05.61,1,1,0,0,1,.05.26,3.25,3.25,0,0,0-.06.45,3.17,3.17,0,0,0,.18.62,4.28,4.28,0,0,1,.28.72c.06.3-.1.7,0,1s.21.2.29.33.11.45.25.61a2.2,2.2,0,0,0,.9.49c.38.07.77-.21,1.17-.29a3.51,3.51,0,0,0,.87-.37,4.22,4.22,0,0,0,.57-.21c.15-.1.25-.28.39-.38.41-.32,1-.34,1.38-.69.2-.2.28-.42.53-.59s.62-.28.7-.65,0-.26.25-.37.6-.18.69-.55a1.39,1.39,0,0,0-.14-1.06c-.15-.19-.41-.31-.5-.54a2.28,2.28,0,0,1,0-.64,1.17,1.17,0,0,0,0-.46c-.12-.22-.49-.3-.71-.35a3.92,3.92,0,0,0-1.67,0"/><path class="cls-1" d="M273.55,40.1a2.72,2.72,0,0,0-.19.61,1.85,1.85,0,0,0-.08.47.45.45,0,0,0,.25.47,9.14,9.14,0,0,1,1.94,1.18,3.77,3.77,0,0,1,.72,1.3.66.66,0,0,0,1.06.23,1.89,1.89,0,0,1,.47-.28c.35-.15.44-.43.58-.75.21-.49.77-.54,1.23-.75.79-.36,1.63-.67,1.71-1.65,0-.54-.09-1.31-.64-1.54-.2-.08-.67-.34-.77,0"/><path class="cls-1" d="M290.29,44.19c-.38,0-.89.58-1.07.88a6.16,6.16,0,0,1-.34.68,5.11,5.11,0,0,1-.48.45,10.51,10.51,0,0,0-1.33,1.34c-.38.56.31.89.49,1.37s.32.4.57.63.43.79.7,1.14a5.74,5.74,0,0,1,.83,1.3,3.41,3.41,0,0,1,.27,1.31c.23,0,.53-.32.69-.48a8.44,8.44,0,0,1,.68-.78c.21-.18.47-.29.69-.45a5.24,5.24,0,0,0,.95-1,8.1,8.1,0,0,1,1.36-1.12,3,3,0,0,0,1-.91,3.77,3.77,0,0,0,.27-1.1,2.46,2.46,0,0,0-1-2.46c-.25-.17-.88-.59-1.19-.33"/><path class="cls-1" d="M242,23.14c.33-.54.32-1,.86-1.4a3.06,3.06,0,0,1,1.84-.73,4,4,0,0,1,3.77,1.75c1,1.24,1,2.79.89,4.31,0,.65,0,1.31-.07,2s-.5,1.05-.94.26c-.64-1.16-.55-3-2-3.54-.95-.36-1.79,1.06-2.34.08-.25-.45-.92-2.49-1.68-2.22s.35,2.61-1.12,1.83c-.14-2.19,1.06-5.34,3.82-4.13"/><path class="cls-1" d="M247.85,26.32a1.15,1.15,0,0,0-1.72-.27,3.41,3.41,0,0,0-.38,1.77,1.8,1.8,0,0,1-.35,1.23c-.83.77-1.79-.09-2.3-.74a13.39,13.39,0,0,1-1.45-2.38,2.88,2.88,0,0,1,.28-2.34c.77-1.21,3.25-.73,4,.2.39.46.76,1,1.12,1.46"/><path class="cls-1" d="M13.26,42.6h8a20.5,20.5,0,0,1,5.7.6A5.55,5.55,0,0,1,30,45.56c.81,1.19,1.2,3.11,1.2,5.76a6.12,6.12,0,0,1-.85,3.75,5.76,5.76,0,0,1-3.32,1.62,5.86,5.86,0,0,1,3.75,2.07,8,8,0,0,1,1,4.44v2.85a11.37,11.37,0,0,1-.71,4.6,3.78,3.78,0,0,1-2.27,2,23.36,23.36,0,0,1-6.35.55H13.26Zm8,5.24v6.82H22c.78,0,1.29-.2,1.5-.59a9.57,9.57,0,0,0,.32-3.3,5.29,5.29,0,0,0-.27-2,1.23,1.23,0,0,0-.68-.73,6.53,6.53,0,0,0-1.66-.17m0,11.58V68a3.43,3.43,0,0,0,2.14-.53,3.64,3.64,0,0,0,.47-2.33V62.28a4,4,0,0,0-.42-2.38,3.67,3.67,0,0,0-2.19-.48"/><rect class="cls-1" x="34.66" y="42.6" width="7.98" height="30.64"/><path class="cls-1" d="M64.43,56h-8V50.62a9.32,9.32,0,0,0-.26-2.91c-.16-.38-.54-.56-1.12-.56a1.16,1.16,0,0,0-1.24.69,10.07,10.07,0,0,0-.28,3V65.11A9.39,9.39,0,0,0,53.84,68a1.37,1.37,0,0,0,2.35,0,11.84,11.84,0,0,0,.27-3.22V61h8v1.19a23.45,23.45,0,0,1-.67,6.75,6.9,6.9,0,0,1-3,3.48,10.17,10.17,0,0,1-5.67,1.5,11.77,11.77,0,0,1-5.77-1.26,6.18,6.18,0,0,1-3-3.52,22.65,22.65,0,0,1-.74-6.74v-9a40,40,0,0,1,.23-5,7,7,0,0,1,1.35-3.19,7.46,7.46,0,0,1,3.13-2.41A11.17,11.17,0,0,1,54.89,42a11.14,11.14,0,0,1,5.8,1.36,6.52,6.52,0,0,1,3,3.39A20.42,20.42,0,0,1,64.43,53Z"/><rect class="cls-1" x="67.29" y="42.6" width="7.96" height="30.64"/><path class="cls-1" d="M97.39,42.6l-4,30.64H81.24L76.63,42.6H85Q86.5,55.26,87.12,64q.61-8.85,1.32-15.72L89,42.6Z"/><rect class="cls-1" x="98.74" y="42.6" width="7.96" height="30.64"/><polygon class="cls-1" points="117.86 42.6 117.86 67.11 122.71 67.11 122.71 73.24 109.9 73.24 109.9 42.6 117.86 42.6"/><path class="cls-1" d="M132.61,73.24h-8V42.6h8Zm2.46-36.73-6.23,5.12H125l3.33-5.12Z"/><polygon class="cls-1" points="149.12 42.6 149.12 48.73 143.19 67.11 149.12 67.11 149.12 73.24 134.44 73.24 134.44 68.8 140.58 48.73 135.15 48.73 135.15 42.6 149.12 42.6"/><path class="cls-1" d="M165.74,42.6l4.55,30.64h-8.15l-.42-5.51h-2.85l-.48,5.51h-8.23l4.06-30.64Zm-4.23,19.7q-.6-5.19-1.21-12.87-1.23,8.81-1.53,12.87Z"/><polygon class="cls-1" points="185.55 42.6 185.55 48.73 180.82 48.73 180.82 73.24 172.85 73.24 172.85 48.73 168.14 48.73 168.14 42.6 185.55 42.6"/><polygon class="cls-1" points="187.37 42.6 200.64 42.6 200.64 48.73 195.33 48.73 195.33 54.55 200.3 54.55 200.3 60.37 195.33 60.37 195.33 67.11 201.18 67.11 201.18 73.24 187.37 73.24 187.37 42.6"/><polygon class="cls-1" points="88.48 80.19 89.81 80.05 89.9 80.11 89.9 90.99 89.81 91.08 88.61 91.08 88.57 90.99 88.57 83.5 88.57 82.44 88.16 83.33 85.53 88.03 85.44 88.11 84.27 88.11 84.17 88.03 81.54 83.33 81.17 82.44 81.17 83.5 81.17 90.99 81.09 91.08 79.89 91.08 79.81 90.99 79.81 80.3 79.89 80.21 81.11 80.05 81.2 80.11 84.86 86.73 88.41 80.28 88.48 80.19"/><polygon class="cls-1" points="94.45 91 94.37 91.08 93.18 91.08 93.1 91 93.1 80.3 93.18 80.21 94.37 80.05 94.45 80.11 94.45 91"/><path class="cls-1" d="M104.36,88.43l1.06.41,0,.1c-.53,1.54-2,2.33-3.95,2.33-2.6,0-4.24-1.35-4.24-4V84c0-2.64,1.64-4,4.24-4a3.85,3.85,0,0,1,3.79,2.23l0,.11-1.08.45-.12,0a2.73,2.73,0,0,0-2.54-1.47,2.65,2.65,0,0,0-2.87,2.85v3A2.6,2.6,0,0,0,101.51,90a2.8,2.8,0,0,0,2.74-1.5Z"/><polygon class="cls-1" points="109.14 91.08 107.95 91.08 107.86 91 107.86 80.3 107.95 80.21 109.14 80.05 109.22 80.11 109.22 84.69 115 84.69 115 80.3 115.08 80.21 116.28 80.05 116.36 80.11 116.36 91 116.28 91.08 115.08 91.08 115 91 115 85.98 109.22 85.98 109.22 91 109.14 91.08"/><path class="cls-1" d="M119.18,87.3V84c0-2.63,1.64-4,4.23-4s4.25,1.39,4.25,4V87.3c0,2.62-1.63,4-4.25,4s-4.23-1.35-4.23-4m1.36-3.19v3a2.88,2.88,0,0,0,5.76,0v-3a2.88,2.88,0,0,0-5.76,0"/><path class="cls-1" d="M138.25,91l-.05.08h-1.44l-.1-.08-.83-2.58h-4.44L130.56,91l-.08.08H129L129,91l3.83-10.7.09-.08,1.37-.17.09.06Zm-6.46-3.88h3.64l-1.66-5-.16-.71-.16.71Z"/><path class="cls-1" d="M146.7,88.43l1.05.41.05.1c-.54,1.54-2,2.33-4,2.33-2.59,0-4.23-1.35-4.23-4V84c0-2.64,1.64-4,4.23-4a3.87,3.87,0,0,1,3.8,2.23l-.06.11-1.08.45-.11,0a2.72,2.72,0,0,0-2.55-1.47A2.65,2.65,0,0,0,141,84.11v3A2.61,2.61,0,0,0,143.84,90a2.8,2.8,0,0,0,2.74-1.5Z"/><path class="cls-1" d="M158,91l-.05.08h-1.44l-.09-.08-.84-2.58h-4.43L150.28,91l-.08.08h-1.46l-.05-.08,3.82-10.7.1-.08,1.36-.17.1.06Zm-6.45-3.88h3.63l-1.66-5-.15-.71-.17.71Zm1.82-7.92h-.1l-.81-.33,0-.09,1-1.66.1-.06h1.76l.08.06Z"/><polygon class="cls-1" points="166.75 80.3 166.83 80.2 168.03 80.05 168.11 80.11 168.11 91 168.03 91.08 166.88 91.08 166.75 91 161.46 83.03 161.04 82.24 161.04 83.19 161.04 91 160.96 91.08 159.76 91.08 159.68 91 159.68 80.3 159.76 80.2 160.96 80.05 161.07 80.11 166.33 88.02 166.75 88.8 166.75 87.85 166.75 80.3"/><path class="cls-1" d="M183.51,91l0,.08H182l-.09-.08-.84-2.58h-4.44L175.83,91l-.08.08h-1.46l0-.08,3.83-10.7.09-.08,1.36-.17.11.06Zm-6.45-3.88h3.64l-1.66-5-.16-.71-.16.71Z"/><polygon class="cls-1" points="186.34 91.08 184.84 91.08 184.76 91 184.76 89.47 184.84 89.39 186.34 89.39 186.41 89.47 186.41 91 186.34 91.08"/><path class="cls-1" d="M195.53,88.43l1.06.41,0,.1c-.53,1.54-2,2.33-4,2.33-2.59,0-4.22-1.35-4.22-4V84c0-2.64,1.63-4,4.22-4a3.86,3.86,0,0,1,3.8,2.23l-.05.11-1.09.45-.11,0a2.73,2.73,0,0,0-2.55-1.47,2.65,2.65,0,0,0-2.87,2.85v3A2.61,2.61,0,0,0,192.67,90a2.79,2.79,0,0,0,2.74-1.5Z"/><polygon class="cls-1" points="200.13 91.08 198.64 91.08 198.56 91 198.56 89.47 198.64 89.39 200.13 89.39 200.22 89.47 200.22 91 200.13 91.08"/><rect class="cls-1" x="218.47" y="23.98" width="1.51" height="78.41"/><path class="cls-1" d="M271.21,40.28c.06,0,.08,0,.07-.07"/><path class="cls-1" d="M289.18,26.32c0,.23.27.2.48.31.22-.42-.54-.39-.48-.31"/><path class="cls-1" d="M305.1,41.16c.15,0,.11-.21.14-.35l-.37.39Z"/><path class="cls-1" d="M305.87,41.14a.22.22,0,0,1,.29,0l.61-.43c-.4.11-.76-.47-.9.39"/><polygon class="cls-1" points="303.66 36.44 302.78 37.21 303.12 36.96 303.66 36.44"/><path class="cls-1" d="M302.09,41c.1-.19.25-.63.54-.6-.14-.32-.18.23-.72-.19.63.33-.45.46.18.79"/><path class="cls-1" d="M303.11,39.85c.55-.14.9.53,1,.85l.17-.13a.36.36,0,0,1-.21-.11c-.22-.49.21-.8.56-1.05l-.25-.35a1.89,1.89,0,0,1-1.83,0c-.11.22-.07.45-.31.49l.94-.15c0,.14,0,.38-.07.44"/><polygon class="cls-1" points="304.2 41.55 304.26 41.64 304.61 41.39 304.55 41.3 304.2 41.55"/><path class="cls-1" d="M301.36,41.24c.53,0,.31.43.58.63.11-.21,0-.39.16-.51-.23,0-.46-.46-.74-.12"/><path class="cls-1" d="M303.32,42.32l.34-.25c-.08.06-.14,0-.32.1Z"/><path class="cls-1" d="M293.94,47.11c-.35,0-.11.24-.14.44a1.2,1.2,0,0,0,.14-.44"/><path class="cls-1" d="M292.09,49.09c.31-.74,1.24-.85,1.65-1.45a9.86,9.86,0,0,0-1.95,1.4Z"/><polygon class="cls-1" points="300.98 42.16 301.45 42.09 300.47 42.01 300.98 42.16"/><path class="cls-1" d="M292.77,49.13l.31-.49-1.92,1.52c.43-.31,1.53-.06,2-.67Z"/><polygon class="cls-1" points="293.44 51.13 294.21 50.58 294.08 50.41 293.31 50.96 293.44 51.13"/><path class="cls-1" d="M298.94,59.87a2.54,2.54,0,0,1,0,.29l.42-.31Z"/><path class="cls-1" d="M290.29,45.68c.2-.28.95.23.56-.67Z"/><path class="cls-1" d="M301.29,40.24c.25.34.35-.25.62-.05l.22-.42c-.32.1-.68,0-.84.47"/><polygon class="cls-1" points="324.32 44.6 324.19 44.96 324.57 44.94 324.32 44.6"/><path class="cls-1" d="M322.78,44.27c0-.24.26-.19.37-.4-.52-.54-1.08.13-1.33-.22-.05.3.86.3,1,.62"/><path class="cls-1" d="M322.87,47.48a.89.89,0,0,1,.14-.38c-.18.11-.28.18-.14.38"/><path class="cls-1" d="M299.83,40.19c.15-.12.29-.2.3-.29l-.21-.11c.09,0,0,.22-.09.4"/><path class="cls-1" d="M300.72,21.55l.43-.3-.12-.17a1.53,1.53,0,0,0-.52.08c.14,0,.05.31.21.39"/><polygon class="cls-1" points="324.18 46.93 323.93 47.5 324.23 47.55 324.18 46.93"/><polygon class="cls-1" points="323.75 44.88 323.26 45.11 323.4 45.13 323.75 44.88"/><path class="cls-1" d="M321.81,45.1a.14.14,0,0,1,0,.15l.21.11Z"/><polygon class="cls-1" points="307.94 56.02 307.39 56.53 308.06 56.18 307.94 56.02"/><polygon class="cls-1" points="318.4 48.73 319.13 49 318.81 48.57 318.4 48.73"/><path class="cls-1" d="M307.36,57.21l-.11.2-.07-.08-.18.27c.16-.12.48-.22.36-.39"/><path class="cls-1" d="M309,53.82c.68-1.41.52.54.88.68.38,0,.81.58.95.22-.84-.44-.11-1.23-1-1.61.34-.25.65-.73,1.07-.51l0,.39c.27-.34.62.32.66-.36l.36.14-.22-.5c-.35.25-1-.7-1.15,0-.83-.05-1.41,1.15-2,1.44l1,.84Z"/><polygon class="cls-1" points="318.64 46.34 318.47 46.46 318.83 46.59 318.61 46.48 318.64 46.34"/><path class="cls-1" d="M309.33,55.4c.13.32.38-.36.57-.3l0-.08Z"/><path class="cls-1" d="M318.79,45.44l-.25-.34-.28.33c.23,0,.35.14.53,0"/><path class="cls-1" d="M319.79,45.38c.1-.21.64-.2.67-.35L320,45c.11-.21,0-.39,0-.68l-.54.17c.13.09.21.67.29.93"/><path class="cls-1" d="M243.19,28.34a3.11,3.11,0,0,1,.11.41c0-.13.11-.42-.11-.41"/><path class="cls-1" d="M244,47.59l0,0,0-.1v.12"/><path class="cls-1" d="M244.25,48.09l-.18-.52,0,0c0,.23-.18.49.21.5"/><polygon class="cls-1" points="244.5 37.7 244.05 37.62 244.24 37.88 244.5 37.7"/><polygon class="cls-1" points="277.32 39.18 277.26 39.1 276.57 39.59 276.63 39.68 277.32 39.18"/><path class="cls-1" d="M243.35,39.18c-.75-.12-1.2-.57-1.85-.37.51.16,1.35.6,1.85.37"/><path class="cls-1" d="M300.08,21.42a1.22,1.22,0,0,0-.32.44c.41.06.27-.21.32-.44"/><path class="cls-1" d="M279.39,38.61c-.22.18-.4.45-.24.57Z"/><path class="cls-1" d="M241.82,47.61l1.07-.5-.12-.18c-.57-.24-.77.56-1,.68"/><polygon class="cls-1" points="242.1 44.01 242.08 44.16 242.27 44.41 242.1 44.01"/><polygon class="cls-1" points="242.27 45.33 241.89 45.34 242.39 45.5 242.27 45.33"/><path class="cls-1" d="M242.69,46.46l-1.92-.31a5.21,5.21,0,0,0,1.75.43Z"/><path class="cls-1" d="M244.62,23c.33.28.11.7.21,1,.19-1.18.93.38,1.39-.61-.54-.39-1.6.5-1.41-.69-.39.55-1-.32-.92.54.26-.18.37-.4.73-.26"/><path class="cls-1" d="M288.46,29.33l-.19-.26c0,.15-.31.1-.13.36Z"/><path class="cls-1" d="M288.69,30.73c-.69-.41-.89.77-.7,1-.17-.41,1-.21.7-1"/><path class="cls-1" d="M291.83,28.73l.13-.36h-.91l.08.47c.19-.28.69-.5.7-.12"/><path class="cls-1" d="M287.32,29.37l-.38.92.61.1c-.14-.16.13-1-.23-1"/><polygon class="cls-1" points="298.88 22.63 299.19 22.53 299.12 22.06 298.68 21.98 298.88 22.63"/><path class="cls-1" d="M279.8,38.44c-.09,0-.26,0-.41.17.07.08.29,0,.36.13Z"/><path class="cls-1" d="M298.54,21.43l.17-.13c-.48-.3-.47-.83-.64-.71a.78.78,0,0,0,.47.84"/><path class="cls-1" d="M280.37,38.69c.1.32.12,1.09-.36.78.06.09.1.32.34.28-.1-.32.3-.48.57-.28.07.08-.17.12-.34.24l.21.11-.45.46a4.5,4.5,0,0,0,1.44-1.82l-.36-.13c-.32-.43.22-.42.24-.57-.08.06-.15,0-.13-.18l-.48.61-.84-.44.59.63c-.35.25-1.16.57-.91.92.11-.21.58-.29.48-.61"/><path class="cls-1" d="M286.38,30.43l-.38,0,.22.49c.09-.06,0-.3.16-.51"/><path class="cls-1" d="M279.76,37.3c-.09.06-.46.45-.29.33Z"/><path class="cls-1" d="M282.16,37l-.17.32c.18,0,.4,0,.17-.32"/><path class="cls-1" d="M281.29,40.51a.3.3,0,0,1,.13-.36L281.3,40c.22.49-.41.16,0,.52"/><path class="cls-1" d="M282.39,38.41c.23.49-.37.4-.35.78.08-.06.86-.62.95-1.22-.21-.11-.33.64-.61.06.08-.06-.11-.32.13-.36,0-.24-.24,0-.32.1-.35.25.17.41.2.64"/><path class="cls-1" d="M281.84,40.56l-.36.6.24,0c.45,0,.08-.34.12-.56"/><path class="cls-1" d="M305.25,39.36c-.08.44-.71.11-.57.67.26-.19.77-.56,1.19-.34l-.39-.37c0-1.21.86.29,1.24-.63.37-.4-.11-.71-.34-1.2-1-.7-.49,1.14-1.54.59.1-.6-.63-.33-.84-.44l-.12.74c.53,0,1.66.11,1.37,1"/><path class="cls-1" d="M302.71,72.73c.13.56-.46,1.37.11,1.62-.11-.7.11-1.12-.11-1.62"/><path class="cls-1" d="M297.22,74.2c.21.11.23,0,.32-.1l-.13-.18Z"/><path class="cls-1" d="M296,76.36l.45.07c.26-.18.25-.56.44-.83-.32.1-.9.38-.89.76"/><path class="cls-1" d="M306.45,72.66l.42.22.29-.87c-.44-.07-.61.44-.71.65"/><path class="cls-1" d="M293.78,47.61a.14.14,0,0,0,0-.06l-.06.09,0,0"/><path class="cls-1" d="M285.64,32.14a4.8,4.8,0,0,1,1,1.53c.06.08,1,.32,1.27.13-.23-.87,1.41-.23,1.11-1.19a.56.56,0,0,1,.89.14c.27-.72,1.34-1.23,1.52-1.88l.36.14A14.42,14.42,0,0,1,294,28.62l.24-1.48c-.72-.27-.44-.6-1-1.23-.42-.22-.92-.91-1.43-.54-.34-.28-.41-.75-.86-.82-.71.64-1-.31-1.68,0-2.29,1,.32,2.26.19,3.53.57-.29.51-1.29,1.23-1,.12.17.25.34.05.61h-.52a2.57,2.57,0,0,0-.2,2.1,5.15,5.15,0,0,1-1.16-1.25l.17-.12-.67-1.49c-.72-2.62-1.54,1.51-2.66.86-.09,1.51-2.41.83-2.78,2.14,1.09.78,1.62,2.24,2.76,2.2M292,28.37l-.13.36c0-.38-.51-.16-.7.12l-.08-.47Zm-2.3-1.74c-.21-.11-.44-.07-.48-.31-.06-.08.7-.11.48.31m-1.39,2.44.19.26-.32.1c-.18-.26.11-.21.13-.36m.42,1.66c.32.82-.87.62-.7,1-.19-.25,0-1.44.7-1m-1.37-1.36c.36.06.09.86.23,1l.12,0a.09.09,0,0,1-.12,0l-.61-.1Zm-.94,1.06c-.11.21-.07.45-.16.51l-.22-.49Z"/><path class="cls-1" d="M294.14,51c.28-.33,1.07-.51,1-1,.08-.07.22,0,.2.1L296,49a1.5,1.5,0,0,0,1.26-.25c.75-.41,2-.9,1.37-1.91-.22-1.41-1.38-1.74-2.06-3.23.73-.26-.08-.85-.1-1.23-.77-.89-1.16-.34-2-.63-.24,0-.46.45-.65.19l-2.06,1.49c-.78-.35-.8.71-1.54.59-.36.78-1.14,1.34-.79,2-1.53.06-1,1.52-2.13,2.32.4.37.58-.28.94-.15-.32.1-.44.84-.53.9.45.08.4-.54.91-.38-.18.12-.1.59-.42.69l.64-.2c-.05.29,0,.53-.27.72.45,1,1.52-.44,2.28-.47-.05.82-.84.48-1,1.13.19.26.44.6.62.86l.18-.12c.12.17.44.07.36.52,1.17.34,2-.82,3.19-.86m-3.85-5.34.56-.67c.39.9-.36.39-.56.67m3.92,4.9-.78.55-.12-.17.77-.55Zm-.27-3.47a1.2,1.2,0,0,1-.14.44.14.14,0,0,1,0,.06l0,0c-.41.59-1.34.71-1.65,1.45L291.8,49a9.76,9.76,0,0,1,1.94-1.4l.06-.09c0-.2-.21-.43.14-.44m-.86,1.53-.31.49.4.37c-.48.6-1.58.35-2,.66Z"/><path class="cls-1" d="M287.67,30.41l-.12,0a.09.09,0,0,0,.12,0"/><path class="cls-1" d="M294.68,26.68c.7.81,1.25-.25,2.23-.16,0-1.15,1.53-1,1.83-1.46l.06.09c.93-.53.86-1.54,1.39-2.44-.4-.37-.33-.81-.87-1.2a.41.41,0,0,0-.22.41c-.48-.3-.68,0-1-.16-.16-.41.28-.34.37-.4l-.35-.66c.76-.95.6,1,1.29.51l-.25-.35a2.38,2.38,0,0,1-.12-1.62l.65.72.17-.13c1.3.91-.37,1.84.75,2.86l.41-.16c-.36-1,.49-1.13.57-2.11l-.77,0c.09-.06-.07-.47.2-.28,1.52-.43,0-1.59.16-2.33a11.78,11.78,0,0,0-4.07.18c-.38,0-.92.53-1.43.37-.28.34-1.41.76-.87,1.16-.21-.11-.56.14-.57-.25-.25.18-.61.56-1,.59-.32.69-1.21,1.17-1.38,1.77-1.32,1.08,1,2.29,1.25,3.55a19.43,19.43,0,0,1,1.59,1.47m3.57-4.09a.28.28,0,0,1,.25-.23.29.29,0,0,1,.19,0,1.71,1.71,0,0,1,.51-.09l.12.18-.43.31c-.16-.09-.07-.35-.2-.4a1.1,1.1,0,0,0-.44.26c-.06.23.09.5-.32.44a1.32,1.32,0,0,1,.32-.44m-1,.64.07.46-.31.11-.2-.65Zm-.41-.75-.17.12a.8.8,0,0,1-.48-.83c.18-.13.17.4.65.71"/><path class="cls-1" d="M296.92,41.43l-.27.19a3.28,3.28,0,0,1,.52,2,3.53,3.53,0,0,0,2.31,1.21c-.56-1.16-1.69-1.26-1.94-2.52l.08-.06Z"/><path class="cls-1" d="M295,18.73l0,0a1.54,1.54,0,0,0,.08-.19Z"/><path class="cls-1" d="M300.33,21.19c-.18,0-.24.13-.25.23a1.13,1.13,0,0,1,.43-.26.26.26,0,0,0-.18,0"/><path class="cls-1" d="M309.9,55.1l.13.18c0-.12-.08-.16-.13-.18"/><path class="cls-1" d="M298.72,62.12c.59.62.94-1.07,1.68,0,.62-.06,1.16-.58,1.48-.68l.63-.58c.12-.74-.56-.78-1-.61l.78-1.09c-.6-1-1.91-1.38-2.29-2.28-1,1.51-1.53-.47-2.51.89-.41.69,1.53,2.3.07,3.36-.57-.25-1.14.42-1.66-.12.05-.3.23-.42.33-.63-.88-.14-.81.32-1.3.54.75.51-.36,1.7-.21,2.26.83.44.53-.52,1.27-.41l0,.24c.27-.72,1.9-.45,1.48-1.59,0-.61.67-.09,1.06-.25a.35.35,0,0,1,.13-.08.35.35,0,0,1-.13.08c-.21.21,0,.62.11,1m.22-2.25.38,0-.42.31a.08.08,0,0,1-.1.07l.1-.07a2.54,2.54,0,0,0,0-.29"/><path class="cls-1" d="M313.57,50.38l-.1-.32-.11.21-.25-.35c-.14-.55-.2.28-.38,0-.05.29.57.24.84.44"/><path class="cls-1" d="M314.23,51.48l-.29-.59-.17.13c.12.17.29.58.46.46"/><path class="cls-1" d="M310.88,37.92c-.32.1-.34-.28-.55-.4l-.25.19c.45.45,1.16.34,1.64.65a26.5,26.5,0,0,1,5.11-2.9c-.14,0-.12-.17-.09-.32a3.55,3.55,0,0,1,1.13-.42,1.49,1.49,0,0,1,.76-.94c.2-.28.13-.36.18-.66.24,0,.53,0,.64-.2.46-1.37,1.8-2.6.91-4.19l.18-.12a4.45,4.45,0,0,1-1.08-1.32c-2-.63-5-.82-6.41.56-.79.17-1.61,1-2.45,1.5l.21.11a23.91,23.91,0,0,1-1.69,2,3.16,3.16,0,0,0-.13,2.18c-.53,0-.57.67-.53.91a9.19,9.19,0,0,1,2.42,3.36"/><path class="cls-1" d="M305.67,58.68c.32-.1.38-.39.42-.69.41-.16.78-.56,1.15,0,2.45-1.51,5.37-2.17,7.76-3.76.82-1.77-1.87-2.06-2.21-3.25a2.59,2.59,0,0,0-1.74-1,12.73,12.73,0,0,1-3.71,3.2c.07.46.43.07.65.18v.38c-.16-.4-.75.41-.72-.26-.49.22,0,1.06-.45,1.37-.38,0,.18-.66-.5-.69-.19.27.48.84-.2.8l.38.52c.22.49-.42.69-.59.82,0-.15-.41-.38.07-.45a.68.68,0,0,0-1.19-.19c1.25,1.19-.46,1.9.87,3m3.66-3.28.52-.38,0,.08c.05,0,.09.06.13.18l-.13-.18c-.19-.06-.44.62-.57.3m1.19-3.09c.12-.74.8.21,1.14,0l.23.49-.36-.14c0,.68-.39,0-.66.36l0-.39c-.42-.22-.73.26-1.07.51.92.38.19,1.17,1,1.61-.14.36-.57-.24-.95-.22-.36-.14-.2-2.09-.88-.68l.56.77-1-.84c.58-.29,1.16-1.49,2-1.44M307.94,56h0L308,56l-.08.07.12.16-.67.35Zm-.76,1.31.07.08.11-.2c.12.17-.2.27-.36.4Z"/><path class="cls-1" d="M317.35,44.9c-1.3,1.47-4.36,2.49-3.51,4.76,1.47.77.65,2.54,1.8,3.42.84.44,1.51.09,2.31-.62,1,.17,1.62-1,2.26-1.23,1.13-.43,2.39-.68,3.37-1.12a18.6,18.6,0,0,0,2.86-4c0-.77.13-2.18-.66-2.92-1.43-.54-3.14-1.27-4.69-.69-1.35.85-2.95,1.35-3.74,2.43m7-.3.25.34-.38,0Zm-.14,2.33.05.62-.3,0Zm-.43-2-.35.25-.14,0Zm-.88,2.6c-.14-.2,0-.27.14-.38a.25.25,0,0,1,.16-.1,1,1,0,0,1-.16.1.89.89,0,0,0-.14.38m.28-3.61c-.11.21-.4.16-.37.4-.1-.32-1-.32-1-.62.25.35.81-.32,1.33.22m-1.36,1.38h0a.14.14,0,0,0,0-.15l.19.26-.21-.11c-.12.15-.39.28,0,0m-2.29-.8.54-.17c-.05.29.07.47,0,.68l.45.07c0,.15-.57.14-.67.35-.09-.26-.16-.84-.29-.93l-.1,0s.08,0,.1,0m-1.1,4.28.41-.16.31.43Zm.07-2.27.17-.12,0,.14.22.11Zm.07-1.36.25.34c-.18.13-.3,0-.53,0Z"/><path class="cls-1" d="M323,47.1l.16-.11a.31.31,0,0,0-.16.11"/><path class="cls-1" d="M321.79,45.25h0c-.39.28-.12.15,0,0"/><path class="cls-1" d="M319.4,44.48l.1,0s-.06,0-.1,0"/><path class="cls-1" d="M299.65,77c.65.18,1.3-.55,1.71-.71.87-1.15-.85-2.26-.48-3.59l1.9,3.74.41-.16-.31-1.88c.61.48.63,1.78,1.15,2.32.13-.35.62,0,1.06,0,2-1.27,4.19-1.44,6.37-2.23.33-1,1.05-1.27.52-2.21.38,0,.57.64.53.94.11.7.94.76,1.65.64,1.92-.6,4.13-.62,6.16-1.43a.6.6,0,0,1,.14-.36c.14,0,.23,0,.29,0l1.43-1.29-.12-.17c0-.24.28-.34.54-.52-.13-.18-.27-.2-.17-.41.24,0,.44-.31.59-.29.89-1.3.69-1.94.53-3.26-1.33-.75-2.58-1.94-4.17-1-2.57-.12-4.95,1.47-7.12,2.64-1.51.82-.78,2.39-1.05,3.63a18.8,18.8,0,0,0-.94-2.21c-.67-.56-1.33-.21-2.15.12l.11-.22c-1.46,2-4.4,1.34-5.66,3-.23,0-.3-.05-.13-.18-1.06,0-2.4.3-3.16-.2-1.18,1.63-3.68,1.5-3.68,3.43.25.34.41-.16.56-.14.12.18.18.26.16.41a1.44,1.44,0,0,0,.15,1.06c.3.51.62.72,1.07.67s1.7-1,2.11-.2m-2.43-2.83.19-.28.13.18c-.09.06-.11.21-.32.1m5.48-1.47c.23.5,0,.92.12,1.62-.57-.25,0-1.06-.12-1.62m4.17.15-.42-.22c.1-.21.27-.72.71-.65Z"/><polygon class="cls-1" points="307.94 56.01 307.94 56.02 308.02 55.95 307.94 56.01"/><path class="cls-1" d="M301.78,38.19a11.08,11.08,0,0,0-4.28,2c-.08.45-.39.93.09,1.23s.9,1.06,1.65.65c-.24.57.44.6.56.78.48,1.75,1.43,2,2.86,1.6-.09.07,0,.24.09.32,1.68-.94,2.54-2.48,4.28-3.33.36-1.31,1.63-1.18,2.45-1.51l-.2-.64c-.77-.88-.87-2.12-2-2.84-.45-1-1.55-1.24-2.58-1.41-1.11,1.19-2.28,1.38-3,2.7.06.09.19.26.16.41m-1.95,2c-.08.13-.17.24-.24.23a1.29,1.29,0,0,1,.24-.23c.1-.18.18-.39.09-.4l.21.11c0,.1-.15.17-.3.29m1.15,2-.51-.15,1,.08Zm1-.29c-.28-.2-.05-.62-.58-.63.28-.34.51.16.74.12-.17.12-.05.3-.16.51m1.38.45,0-.15c.17-.12.23,0,.32-.1Zm.94-.68-.06-.09.35-.25.06.09Zm.84-.48-.23,0,.37-.39c0,.14,0,.38-.14.35m1.67-.41-.61.43a.22.22,0,0,0-.29,0c.13-.86.5-.28.9-.39l.26-.19a.59.59,0,0,1-.26.19M304,37.64c.21.11.94-.16.84.44,1.05.55.52-1.29,1.54-.58.23.48.71.79.34,1.19-.38.93-1.2-.58-1.24.63l.39.37c-.42-.22-.93.15-1.19.34-.14-.56.49-.23.56-.67.3-.87-.83-1-1.36-1Zm-.34-1.2-.54.52-.34.25Zm-1.11,2.63a1.92,1.92,0,0,0,1.83,0l.25.34c-.35.25-.78.56-.56,1.05a.36.36,0,0,0,.21.11l-.17.13c-.1-.32-.45-1-1-.85.08-.06.05-.3.07-.44l-.94.15c.24,0,.2-.27.31-.49m.08,1.31a.15.15,0,0,1,.09,0l0,.14a.91.91,0,0,0-.06-.16c-.29,0-.44.41-.54.6-.63-.33.45-.46-.18-.79-.27-.19-.37.39-.62.05.16-.51.52-.37.84-.47l-.22.42c.54.43.58-.13.72.19"/><path class="cls-1" d="M303.38,57.85l.25.35c.2.11.33-.63.09-.59Z"/><path class="cls-1" d="M285.38,34.68c.2-.27,1.08.4,1-.45-.66-1.09-2.48-1.61-3.17-2.94-.27-.2-.8-.21-.85.08.23,1.79,2.29,2.28,3,3.31"/><path class="cls-1" d="M298.61,61.14a.35.35,0,0,0,.13-.08.35.35,0,0,0-.13.08"/><path class="cls-1" d="M298.9,60.16l-.1.07a.08.08,0,0,0,.1-.07"/><path class="cls-1" d="M302.72,40.4a.15.15,0,0,0-.09,0,.91.91,0,0,1,.06.16Z"/><path class="cls-1" d="M307,40.56l-.26.19a.59.59,0,0,0,.26-.19"/><path class="cls-1" d="M299.59,40.42c.07,0,.16-.1.24-.23a1.29,1.29,0,0,0-.24.23"/><path class="cls-1" d="M281.84,40.56l.07-.1a.15.15,0,0,0-.07.1"/><path class="cls-1" d="M273.81,39.86a1.47,1.47,0,0,0,.89,1.51l.52.17c.27.19.41.69,1,.63.2-.27,1.85.38,1.58-.34,1.19,1.1,2.1-.73,2.79.6.8-.71,1.94-1.13,2.49-2.18a5.13,5.13,0,0,0-.84-1c.24,0,.37-.4.58-.29-.28.54.35.23.47.26-.06-.14.09-.24.28-.14s0,.24,0,.39c.46-.47.75-1.33,1.43-1.3a14.86,14.86,0,0,0,.91-1.83c.27-2.16-2.69-1.73-3.54-3.08-.86-.29-.36-1-1.29-1.43-1.27-.13-1.07.51-2.24.7a21.54,21.54,0,0,0-3.9,5.3c.12.17.26.19.15.41-.39.54-1.23.53-1.32,1.59m6.88,1.21c-.4-.36.23,0,0-.53l.12.17a.31.31,0,0,0-.13.36m.43.61-.23,0,.36-.6a.14.14,0,0,1,.06-.1l-.06.1c0,.22.33.56-.13.56m.8-3.45c-.24,0-.06.29-.14.36.29.58.4-.17.62-.06a2.42,2.42,0,0,1-1,1.22c0-.38.58-.29.36-.78,0-.23-.55-.4-.2-.64.08-.06.28-.34.32-.1m-.52-.35.16-.32c.23.31,0,.28-.16.32l-.17.32c-.05-.23,0-.29.17-.32m-1.2,1.06-.58-.63.84.44.48-.6c0,.14,0,.23.12.17,0,.14-.55.14-.24.57l.36.13a4.48,4.48,0,0,1-1.44,1.82l.45-.46-.21-.11c.18-.12.41-.16.35-.25-.27-.19-.68,0-.58.29-.24,0-.27-.19-.34-.28.49.31.46-.46.36-.78.1.32-.37.4-.48.61-.25-.35.56-.67.91-.92m-1-1.08-.28.33c-.17.12.2-.27.28-.33m-.37,1.31h0c.14-.13.32-.21.4-.17l-.05.3c-.06-.08-.29,0-.35-.13h0l-.24.56c-.16-.11,0-.38.24-.56m-2.13.48.06.09-.69.5-.06-.09Z"/><path class="cls-1" d="M244,23.3c.22,0,.65,1.71.61,2s-.71.33-.85.06c.13.26,0,.55.3.73a.7.7,0,0,0,.74-.11,6,6,0,0,0,.81-1.31,4.46,4.46,0,0,0,1.31.37l-.05.29.36.14c0-.15-.11-.7.21-.81.46.46.91.92.67,1.49-.43.1-.65.28-.49.71a6.1,6.1,0,0,0,.29.57c0,.05.17.76.1.75.39.09.58.28.55.67,0,.08-.2.94,0,.93a5.65,5.65,0,0,0,.7-.11c.4-.07.5-.66.41-1-.16-.48-.63-.84-.71-1.36,0-.24.07-.32.14-.52s-.19-.71-.25-1a3.54,3.54,0,0,1,0-.92,2.54,2.54,0,0,0,0-.87,1.57,1.57,0,0,0-.13-.47c-.06-.11-.31-.36-.31-.46,0-.77-.85-.83-1.25-1.19a.62.62,0,0,1-1-.2,1.53,1.53,0,0,0-1.21-.62c-.24,0-.47,0-.7,0s-.55-.07-.8.1-.33.43-.48.63-.68.69-.42,1.11,1,.44,1.43.4m.86-.61c-.19,1.18.87.29,1.41.68-.46,1-1.2-.57-1.39.61-.1-.32.12-.74-.21-1s-.47.08-.73.26c-.1-.86.53,0,.92-.53"/><path class="cls-1" d="M245.34,26.88l.2.26c0-.15,0-.15.1-.21,0-.24-.12-.18-.3-.05"/><path class="cls-1" d="M282,37.32c-.11,0-.21.09-.16.32Z"/><path class="cls-1" d="M244,47.47a.22.22,0,0,0,0-.11Z"/><path class="cls-1" d="M244,47.59v-.12l0-.11a.22.22,0,0,1,0,.11l0,.1a2.39,2.39,0,0,1,.54-.3,3.06,3.06,0,0,1,.72-.19c-.28-.5-.68-1,0-1.48l-.44-.07a15.47,15.47,0,0,0,.38-1.85c.39.37.69,1.34,1.48,1.16l-.44-.07a1.78,1.78,0,0,0-.48-1.76l.18-.12-.55-.39c-1-.08-.23,1-.56,1-.52,0-.09-.32-.43-.6-.61,0-.82-.06-1.25.25a1,1,0,0,0,1.33.22c0,.38.27.72,0,1.06a11.83,11.83,0,0,0-3-.95c0-.68.53-.38.87-.62.16-.51-.1-.32.06-.83-.34-.28-.79.18-1.11-.25.1-.07,0-.15.12-.22s.38,0,.42.22c1.62-.11,2.27-1.76,3-2.93-.39,0-1.1-.26-1.42-.16l.07-.44a5.05,5.05,0,0,0,2.38-.15c.9-1.3-.87-1.2-1.15-1.78a3.15,3.15,0,0,0,2.91-1c-.29-.58-1.34-1.13-1.37-1.9.72-.64,1.87-1.22,2.31-2.06a1.16,1.16,0,0,0,0-.77c-1.11.28-1.88-.6-2.35-1.44,0,.53-.67.35-.94.15.11-.21.32-.1.49-.22.16-.51-.68-.95.22-1.34-.41-.75-1.42.76-2.09.19.19.61-.45.07-.71.37,0,0,0,0,0,0,.22,0,.12.28.11.41a3.11,3.11,0,0,0-.11-.41s0,0-.06,0,0,0,0,0c-.48-1.25-2.07-2-1.74-4-.49.61-1.07.89-.83,1.77-1.35,2.67.06,5.72-.24,8,1.8,1.59-.72,2.09.48,3.58-.49.23.3,1-.4,1.08.47,2.28-.95,4.06-.72,6.37l-.2.71c-.23.74,4.16,2,4.52,1.72m.46-9.89-.26.18-.19-.26Zm-1.15,1.48c-.5.23-1.34-.21-1.85-.37.65-.2,1.1.25,1.85.37M242.1,44l.17.4-.19-.25Zm.17,1.32.12.17-.5-.16Zm-2.09,2.55-.51-.16Z"/><path class="cls-1" d="M283.92,38.69a.06.06,0,0,0,0,.05s0,0,0-.05"/><path class="cls-1" d="M243.19,28.34s0,0,0,0,0,0,0,0,0,0,.06,0"/><path class="cls-1" d="M240.52,26c-.26-.11.09-1.06.19-1.28a.92.92,0,0,1,.84-.61c.65.07.76,1.56.89,2.07a1.9,1.9,0,0,0,1.76,1.14c.48,0,.7-.3,1.24-.1a1.8,1.8,0,0,1,.79.59,4.28,4.28,0,0,0,.37.57c.14.15.38.26.5.42s.27.63.57.91c.49.46,1.25.94.88,1.69s-1.19,1.17-1.75,1.82c-.31.35-.29.51,0,.82a5,5,0,0,1,.6.92c.26.5.33.88-.16,1.25-.25.21-1.24.53-1.31.87s.26.23.36.45,0,.52-.31.67-1.1.25-1.3.69c.32.23.67.15.41.64a7,7,0,0,1-1.1,1.22,3.62,3.62,0,0,0-.94,1.35c-.09.29-.2.87.07,1s.86-.24,1.14-.43.73-.19,1.06-.39.48-1.16.94-.8a1.79,1.79,0,0,1,.46,1.29c.05,1,.42,1.88,0,2.88-.28.64-.6,1.65-1.21,2a2.68,2.68,0,0,1-1.25.38c-.39,0-.75-.31-1.16-.35a5.7,5.7,0,0,1-2.51-.86c-1.43-.87-.12-2.94-.11-4.23a17.36,17.36,0,0,1,.08-2.39,8.35,8.35,0,0,0,.18-1.22,4.09,4.09,0,0,1,.46-1.42,10.28,10.28,0,0,0,.39-1.52,4,4,0,0,0-.33-2,17.1,17.1,0,0,1-.48-2.12,16.74,16.74,0,0,0-.42-2.75,4.39,4.39,0,0,1-.41-1.93,2.9,2.9,0,0,1,.18-1.14,2.74,2.74,0,0,1,.61-.78"/><path class="cls-1" d="M285.71,36.79a22.38,22.38,0,0,1-2.53,3.34,9.51,9.51,0,0,1-2.35,2,1.13,1.13,0,0,1-.63.23c-.31,0-.33-.26-.57-.32-.47-.13-.93.31-1.36.42s-.89-.09-1.42-.2-.9.17-1.36.1-.37-.19-.62-.53-.75-.39-1.11-.72c-.88-.8.49-1.79,1-2.34s.88-1.17,1.3-1.71a4.13,4.13,0,0,1,3.76-1.58,7.65,7.65,0,0,1,3.53.74c.52.3,1,.64,1.52,1"/><path class="cls-1" d="M295.39,19.14c1.48-.75,6.08-3.42,6.82-.33.26,1.13-.28,1.88-.83,2.79-.2.34-.29.79-.65,1-.62.3-.67-.33-.67-.8s-.25-2.93-1.27-2.06c-.64.54.35,2.34.73,2.86.22.31.64.66.57,1.09s-.67.81-.92,1.11-.43.82-.85,1.1a4.6,4.6,0,0,1-1.77.67c-.84-.14-1.18-2.35-1.21-3-.08-1.65.35-4,2.41-4"/><path class="cls-1" d="M239.35,47.54c-5.42,9.89-3.27,21.34-3.18,21.4a8.51,8.51,0,0,0,3.36-.12,19.94,19.94,0,0,1-.28-9.75A8.89,8.89,0,0,0,244,60a13.57,13.57,0,0,0,.83-2.71c-3.83-.27-5-1.53-5-1.53a10.84,10.84,0,0,1,1.06-3.9c9.21,3.61,16.16,1.17,16.16,1.17l-.63-2.78a28.69,28.69,0,0,1-17.1-2.72"/><path class="cls-1" d="M259.08,57.38s-.62,5.84-.17,7.22c.54,1.68,2.12.82,2.57-.54,1.23-3.77.51-13.44.51-13.44l2.22.08s1.89,16.23-4,17.32a2.75,2.75,0,0,1-3.11-1.64c-.87-1.77-1-7.93-1-7.93Z"/><path class="cls-1" d="M282.29,49.19a6.39,6.39,0,0,0-5.6,1.69,4.58,4.58,0,0,0-1.17,5.67c1.3,2.55,5.61,4.47,8.34,3.52,5.08-1.77,3-9.9-1.57-10.88m1.85,6.36C283.6,57.39,282,58,280,57.42s-2.55-4.66-.46-5.16,5.43.54,4.62,3.29"/><path class="cls-1" d="M242.69,76.89l5.63,3.17-2.89-4.83,2.3-.78c.11,0,5,8.55,5,8.55l-1.51,1.38s-6.44-4.06-6.4-4l6.07,5.23a13.74,13.74,0,0,1-1.63,1.5c-3.22-1.92-7.55-5.85-9.1-8.73.33-.13,2.55-1.47,2.55-1.47"/><path class="cls-1" d="M254.17,79.42c1.79-.28-.73-7.81-.73-7.81l1.73-.5s1.79,6.79,1.54,8.48a2.33,2.33,0,0,1-3.28,1.73c-1.48-.71-3.26-4.43-3.26-4.43s-.74-1.52-1.11-2.55l1.92-.78s1.62,6.1,3.19,5.86"/><path class="cls-1" d="M270.44,71.59A2.74,2.74,0,0,0,267.13,69a2.78,2.78,0,0,0-2.37,3.26c.29,1.73,1.54,2.54,3.37,2.34,2.13-.25,3,2.27,1,3-2.39.88-2-2.44-2-2.44l-1.91,0s-.06,2.63,1.42,3.63c3.88,2.62,7.8-3.51,3.68-5.42-1.12-.52-3.74.43-3.9-1.25s1.92-2,2.67-.47c0,0,1.41-.07,1.41-.07"/><path class="cls-1" d="M275,67.74l3.58,7.89a7.22,7.22,0,0,0,1.89-.8c-.07-.17-1.52-4.23-2-5.89s1.62-3.38,3.05-3.19c-.23-.65-.56-1.9-.62-1.9a4.29,4.29,0,0,0-4.13,4l-.51-.76Z"/><path class="cls-1" d="M255.31,81.91c-2.57,1.36-3.82,2.86-3.9,5.37-.13,3.4,2.65,9.58,6.33,10.44a6.2,6.2,0,0,0,7.34-5.21c-.67-.07-2.34-.46-3-.61-.45,2-1.63,3-3.53,2.83-2.39-.16-3-2.84-3.67-4.89s-.32-3.22,1.16-4.36a3.79,3.79,0,0,1,4.36,0,27.91,27.91,0,0,0,2.37-1.74c-1.31-1.69-3.62-3.32-7.45-1.79"/><path class="cls-1" d="M263,82.44,267.18,96l2.37-1.26s-2.13-7.81-4.29-13.23c-.13.07-2.24.94-2.24.94"/><path class="cls-1" d="M268.44,80.27c0,.21,2.2,10,4.33,9,1.69-.76-2.42-9-2.5-9.42l2.18-.89s2.1,4.69,2.61,6.21c.66,2,1.62,3.74.33,5.32-1.16,1.42-3.27,2.46-5,.86s-3.88-8.92-4.41-10.2Z"/><path class="cls-1" d="M277.63,60.49c-3.13,1.14-5.07.08-6.31-5.55.37-.41,1.37-1.4,2.94-3.3,1.92-2.32,1.66-10-2.88-7.73a13.27,13.27,0,0,0-6.06,6.71,34.73,34.73,0,0,1,.94,8.47c0,2.15-.37,6.93-.37,6.93l2.9-.62s.32-7.7.22-9.6c.05.33.84,4,2.69,5.91,1.48,1.5,4.41,1.54,6,.86,0-.4-.08-1.68-.11-2.08m-8.74-7s-.5-3.08-.46-3.17c.81-2.13,2.81-4,3.76-3.7s.68,2.49.56,3.37c-.26,1.9-3.86,3.5-3.86,3.5"/><path class="cls-1" d="M264.5,75.23s-.92.16-1.53.31c.16.67.09,4-1.65,3.5-2.54-.46-2.88-3.87-2.88-3.87l5.83-1.32a3.79,3.79,0,0,0-4.21-3.48,4,4,0,0,0-3.33,2.78c-.9,3.1,1.93,7.83,5,7.48,3.88-.31,2.81-5.4,2.81-5.4M260,72.06a2.71,2.71,0,0,1,2.64.9l-4.28,1A2.19,2.19,0,0,1,260,72.06"/><path class="cls-1" d="M286.57,61c-5.55-.19-4.82,4.19-4.82,4.19l1.67.23s.11-1.82.88-2.38c2.06-1.5,3.5,1.13.9,3.07-1.13.84-2.48,1-3.32,3a2.7,2.7,0,0,0,2.88,3.59,3.87,3.87,0,0,0,3.4-3.7c0,.24.3,1.3.36,1.53a6.78,6.78,0,0,0,1.47-.87c-2-3.69-.22-8.29-3.42-8.62M285,71.33c-1.18.54-1.92-.33-1.71-1.5s2.55-1.68,3.62-3c.08,1.82-.82,4-1.91,4.54"/><path class="cls-1" d="M281.64,80.77c-1-2.61-5.11-5.67-8.24-2.36l4,10.78c3.65-.82,5.35-5.45,4.21-8.42m-3,5.45-2.53-6.65s2.07-1.12,3.42,1.79a4.2,4.2,0,0,1-.89,4.86"/><path class="cls-1" d="M292.74,73.56c-2.05-2.78-7.82-.13-7.82-.13l4.83,7c2.84-.76,5.41-3.6,3-6.87m-2.05,4.82-2.95-4.27s3-1.19,4.15,1.06a2.22,2.22,0,0,1-1.2,3.21"/><path class="cls-1" d="M244.24,67.14c-2.53.92-2-4.82-1.71-6.42-.58-.09-2.67-.35-2.67-.35a16.53,16.53,0,0,0,.14,6.46c.54,2.18,2.49,3.17,5.21,2.5,4.64-1.14,4-7.78,4.2-10.57a16.92,16.92,0,0,1-3.32-.56c-.15,2.39.51,8.09-1.85,8.94"/><path class="cls-1" d="M259.78,52.14c-2.44,2.71-5.73,3-10.47,3-.09,1.12-.26,2.49-.32,3a20.83,20.83,0,0,0,3.21.08,42.66,42.66,0,0,1-1.06,10.08s1.78-.1,2.52-.06A41.53,41.53,0,0,0,255,57.67a8.72,8.72,0,0,0,6.23-3.76s-1.09-1.42-1.46-1.77"/><path class="cls-1" d="M275.74,66.56l-.18-1.71s-2.4.77-3.22.92l-1-3.85-1.59.15,1,4.28-2.35.76.33,1.61s1.21-.26,2.43-.67c.49,2.9,1.3,6,1.55,7.31,0,.16.07.3.09.44.32,2.06,3.55.56,3.55.56l-.29-1.73-1.73.37-1.5-7.38Z"/><path class="cls-1" d="M287.83,82.74l1.45-1.2-5.55-8-2.82,1.53L283.09,86,285,84.67l-1.15-5.6,1.09-.62Zm-4.65-5-.44-2,.68-.49.92,1.85Z"/><path class="cls-1" d="M241.89,71.84c-.68-2.52-2.7-2.77-5.57-1.07A15,15,0,0,0,239.37,78l1.38-.67a7,7,0,0,1-1.6-2.44c0,.06,3.4-.54,2.74-3m-3.21,1.83-.91-2.23c.77-.42,2.09-1.09,2.81.53.58,1.29-1.9,1.7-1.9,1.7"/><path class="cls-1" d="M245,70.46c-2.34-.25-2.16,1.62-2.16,1.62l.7.15s.1-.76.44-1c.92-.57,1.44.59.29,1.33-.51.32-1.08.35-1.49,1.15a1.13,1.13,0,0,0,1.1,1.6,1.63,1.63,0,0,0,1.55-1.46c0,.11.09.56.11.66a3.27,3.27,0,0,0,.65-.32c-.23-1.94.15-3.52-1.19-3.75m-.85,4.13c-.52.2-.8-.2-.68-.69s1.14-.63,1.63-1.16a2.27,2.27,0,0,1-.95,1.85"/><path class="cls-1" d="M249.38,69.93c-1.77-.38-1.93,1-1.93,1l.29,2.75-.86.32-.47-3.93.73-.43.09.31a2.15,2.15,0,0,1,2.06-1Z"/><path class="cls-1" d="M251.74,69.21a1.46,1.46,0,0,0-2,1.39l.69-.16s0-.54.35-.67c.82-.38,1.14.63.11,1.12-.46.22-.94.19-1.37.8a1,1,0,0,0,.75,1.44,1.37,1.37,0,0,0,1.44-1c0,.08,0,.47,0,.56a2.78,2.78,0,0,0,.57-.21c0-1.63.5-2.89-.59-3.23m-1.1,3.21c-.38.09-.54-.21-.41-.54s.83-.33,1.22-.66a1.58,1.58,0,0,1-.81,1.2"/><path class="cls-1" d="M297.24,58a.91.91,0,0,1-.3,1.27c-.36.31-.69.21-1.13.24a7.32,7.32,0,0,1-1.48,0,1.86,1.86,0,0,0-1.07,0,1,1,0,0,0-.56.5,1.47,1.47,0,0,0-.05.61,1,1,0,0,1,.05.26,3.25,3.25,0,0,0-.06.45,3.17,3.17,0,0,0,.18.62,4.28,4.28,0,0,1,.28.72c.06.3-.1.7,0,1s.21.2.29.33.11.45.25.61a2.2,2.2,0,0,0,.9.49c.38.07.77-.21,1.17-.29a3.51,3.51,0,0,0,.87-.37,4.22,4.22,0,0,0,.57-.21c.15-.1.25-.28.39-.38.41-.32,1-.34,1.38-.69.2-.2.28-.42.53-.59s.62-.28.7-.65,0-.26.25-.37.6-.18.69-.55a1.39,1.39,0,0,0-.14-1.06c-.15-.19-.41-.31-.5-.54a2.28,2.28,0,0,1,0-.64,1.17,1.17,0,0,0,0-.46c-.12-.22-.49-.3-.71-.35a3.92,3.92,0,0,0-1.67,0"/><path class="cls-1" d="M273.55,40.1a2.72,2.72,0,0,0-.19.61,1.85,1.85,0,0,0-.08.47.45.45,0,0,0,.25.47,9.14,9.14,0,0,1,1.94,1.18,3.77,3.77,0,0,1,.72,1.3.66.66,0,0,0,1.06.23,1.89,1.89,0,0,1,.47-.28c.35-.15.44-.43.58-.75.21-.49.77-.54,1.23-.75.79-.36,1.63-.67,1.71-1.65,0-.54-.09-1.31-.64-1.54-.2-.08-.67-.34-.77,0"/><path class="cls-1" d="M290.29,44.19c-.38,0-.89.58-1.07.88a6.16,6.16,0,0,1-.34.68,5.11,5.11,0,0,1-.48.45,10.51,10.51,0,0,0-1.33,1.34c-.38.56.31.89.49,1.37s.32.4.57.63.43.79.7,1.14a5.74,5.74,0,0,1,.83,1.3,3.41,3.41,0,0,1,.27,1.31c.23,0,.53-.32.69-.48a8.44,8.44,0,0,1,.68-.78c.21-.18.47-.29.69-.45a5.24,5.24,0,0,0,.95-1,8.1,8.1,0,0,1,1.36-1.12,3,3,0,0,0,1-.91,3.77,3.77,0,0,0,.27-1.1,2.46,2.46,0,0,0-1-2.46c-.25-.17-.88-.59-1.19-.33"/><path class="cls-1" d="M242,23.14c.33-.54.32-1,.86-1.4a3.06,3.06,0,0,1,1.84-.73,4,4,0,0,1,3.77,1.75c1,1.24,1,2.79.89,4.31,0,.65,0,1.31-.07,2s-.5,1.05-.94.26c-.64-1.16-.55-3-2-3.54-.95-.36-1.79,1.06-2.34.08-.25-.45-.92-2.49-1.68-2.22s.35,2.61-1.12,1.83c-.14-2.19,1.06-5.34,3.82-4.13"/><path class="cls-1" d="M247.85,26.32a1.15,1.15,0,0,0-1.72-.27,3.41,3.41,0,0,0-.38,1.77,1.8,1.8,0,0,1-.35,1.23c-.83.77-1.79-.09-2.3-.74a13.39,13.39,0,0,1-1.45-2.38,2.88,2.88,0,0,1,.28-2.34c.77-1.21,3.25-.73,4,.2.39.46.76,1,1.12,1.46"/><path class="cls-1" d="M13.26,42.6h8a20.5,20.5,0,0,1,5.7.6A5.55,5.55,0,0,1,30,45.56c.81,1.19,1.2,3.11,1.2,5.76a6.12,6.12,0,0,1-.85,3.75,5.76,5.76,0,0,1-3.32,1.62,5.86,5.86,0,0,1,3.75,2.07,8,8,0,0,1,1,4.44v2.85a11.37,11.37,0,0,1-.71,4.6,3.78,3.78,0,0,1-2.27,2,23.36,23.36,0,0,1-6.35.55H13.26Zm8,5.24v6.82H22c.78,0,1.29-.2,1.5-.59a9.57,9.57,0,0,0,.32-3.3,5.29,5.29,0,0,0-.27-2,1.23,1.23,0,0,0-.68-.73,6.53,6.53,0,0,0-1.66-.17m0,11.58V68a3.43,3.43,0,0,0,2.14-.53,3.64,3.64,0,0,0,.47-2.33V62.28a4,4,0,0,0-.42-2.38,3.67,3.67,0,0,0-2.19-.48"/><rect class="cls-1" x="34.66" y="42.6" width="7.98" height="30.64"/><path class="cls-1" d="M64.43,56h-8V50.62a9.32,9.32,0,0,0-.26-2.91c-.16-.38-.54-.56-1.12-.56a1.16,1.16,0,0,0-1.24.69,10.07,10.07,0,0,0-.28,3V65.11A9.39,9.39,0,0,0,53.84,68a1.37,1.37,0,0,0,2.35,0,11.84,11.84,0,0,0,.27-3.22V61h8v1.19a23.45,23.45,0,0,1-.67,6.75,6.9,6.9,0,0,1-3,3.48,10.17,10.17,0,0,1-5.67,1.5,11.77,11.77,0,0,1-5.77-1.26,6.18,6.18,0,0,1-3-3.52,22.65,22.65,0,0,1-.74-6.74v-9a40,40,0,0,1,.23-5,7,7,0,0,1,1.35-3.19,7.46,7.46,0,0,1,3.13-2.41A11.17,11.17,0,0,1,54.89,42a11.14,11.14,0,0,1,5.8,1.36,6.52,6.52,0,0,1,3,3.39A20.42,20.42,0,0,1,64.43,53Z"/><rect class="cls-1" x="67.29" y="42.6" width="7.96" height="30.64"/><path class="cls-1" d="M97.39,42.6l-4,30.64H81.24L76.63,42.6H85Q86.5,55.26,87.12,64q.61-8.85,1.32-15.72L89,42.6Z"/><rect class="cls-1" x="98.74" y="42.6" width="7.96" height="30.64"/><polygon class="cls-1" points="117.86 42.6 117.86 67.11 122.71 67.11 122.71 73.24 109.9 73.24 109.9 42.6 117.86 42.6"/><path class="cls-1" d="M132.61,73.24h-8V42.6h8Zm2.46-36.73-6.23,5.12H125l3.33-5.12Z"/><polygon class="cls-1" points="149.12 48.73 143.19 67.11 149.12 67.11 149.12 73.24 134.44 73.24 134.44 68.8 140.58 48.73 135.15 48.73 135.15 42.6 149.12 42.6 149.12 48.73"/><path class="cls-1" d="M165.74,42.6l4.55,30.64h-8.15l-.42-5.51h-2.85l-.48,5.51h-8.23l4.06-30.64Zm-4.23,19.7q-.6-5.19-1.21-12.87-1.23,8.81-1.53,12.87Z"/><polygon class="cls-1" points="185.55 42.6 185.55 48.73 180.82 48.73 180.82 73.24 172.85 73.24 172.85 48.73 168.14 48.73 168.14 42.6 185.55 42.6"/><polygon class="cls-1" points="187.37 42.6 200.64 42.6 200.64 48.73 195.33 48.73 195.33 54.55 200.3 54.55 200.3 60.37 195.33 60.37 195.33 67.11 201.18 67.11 201.18 73.24 187.37 73.24 187.37 42.6"/><polygon class="cls-1" points="88.48 80.19 89.81 80.05 89.9 80.11 89.9 90.99 89.81 91.08 88.61 91.08 88.57 90.99 88.57 83.5 88.57 82.44 88.16 83.33 85.53 88.03 85.44 88.11 84.27 88.11 84.17 88.03 81.54 83.33 81.17 82.44 81.17 83.5 81.17 90.99 81.09 91.08 79.89 91.08 79.81 90.99 79.81 80.3 79.89 80.21 81.11 80.05 81.2 80.11 84.86 86.73 88.41 80.28 88.48 80.19"/><polygon class="cls-1" points="94.45 91 94.37 91.08 93.18 91.08 93.1 91 93.1 80.3 93.18 80.21 94.37 80.05 94.45 80.11 94.45 91"/><path class="cls-1" d="M104.36,88.43l1.06.41,0,.1c-.53,1.54-2,2.33-3.95,2.33-2.6,0-4.24-1.35-4.24-4V84c0-2.64,1.64-4,4.24-4a3.85,3.85,0,0,1,3.79,2.23l0,.11-1.08.45-.12,0a2.73,2.73,0,0,0-2.54-1.47,2.65,2.65,0,0,0-2.87,2.85v3A2.6,2.6,0,0,0,101.51,90a2.8,2.8,0,0,0,2.74-1.5Z"/><polygon class="cls-1" points="109.14 91.08 107.95 91.08 107.86 91 107.86 80.3 107.95 80.21 109.14 80.05 109.22 80.11 109.22 84.69 115 84.69 115 80.3 115.08 80.21 116.28 80.05 116.36 80.11 116.36 91 116.28 91.08 115.08 91.08 115 91 115 85.98 109.22 85.98 109.22 91 109.14 91.08"/><path class="cls-1" d="M119.18,87.3V84c0-2.63,1.64-4,4.23-4s4.25,1.39,4.25,4V87.3c0,2.62-1.63,4-4.25,4s-4.23-1.35-4.23-4m1.36-3.19v3a2.88,2.88,0,0,0,5.76,0v-3a2.88,2.88,0,0,0-5.76,0"/><path class="cls-1" d="M138.25,91l-.05.08h-1.44l-.1-.08-.83-2.58h-4.44L130.56,91l-.08.08H129L129,91l3.83-10.7.09-.08,1.37-.17.09.06Zm-6.46-3.88h3.64l-1.66-5-.16-.71-.16.71Z"/><path class="cls-1" d="M146.7,88.43l1.05.41.05.1c-.54,1.54-2,2.33-4,2.33-2.59,0-4.23-1.35-4.23-4V84c0-2.64,1.64-4,4.23-4a3.87,3.87,0,0,1,3.8,2.23l-.06.11-1.08.45-.11,0a2.72,2.72,0,0,0-2.55-1.47A2.65,2.65,0,0,0,141,84.11v3A2.61,2.61,0,0,0,143.84,90a2.8,2.8,0,0,0,2.74-1.5Z"/><path class="cls-1" d="M158,91l-.05.08h-1.44l-.09-.08-.84-2.58h-4.43L150.28,91l-.08.08h-1.46l-.05-.08,3.82-10.7.1-.08,1.36-.17.1.06Zm-6.45-3.88h3.63l-1.66-5-.15-.71-.17.71Zm1.82-7.92h-.1l-.81-.33,0-.09,1-1.66.1-.06h1.76l.08.06Z"/><polygon class="cls-1" points="166.75 80.3 166.83 80.2 168.03 80.05 168.11 80.11 168.11 91 168.03 91.08 166.88 91.08 166.75 91 161.46 83.03 161.04 82.24 161.04 83.19 161.04 91 160.96 91.08 159.76 91.08 159.68 91 159.68 80.3 159.76 80.2 160.96 80.05 161.07 80.11 166.33 88.02 166.75 88.8 166.75 87.85 166.75 80.3"/><path class="cls-1" d="M183.51,91l0,.08H182l-.09-.08-.84-2.58h-4.44L175.83,91l-.08.08h-1.46l0-.08,3.83-10.7.09-.08,1.36-.17.11.06Zm-6.45-3.88h3.64l-1.66-5-.16-.71-.16.71Z"/><polygon class="cls-1" points="186.34 91.08 184.84 91.08 184.76 91 184.76 89.47 184.84 89.39 186.34 89.39 186.41 89.47 186.41 91 186.34 91.08"/><path class="cls-1" d="M195.53,88.43l1.06.41,0,.1c-.53,1.54-2,2.33-4,2.33-2.59,0-4.22-1.35-4.22-4V84c0-2.64,1.63-4,4.22-4a3.86,3.86,0,0,1,3.8,2.23l-.05.11-1.09.45-.11,0a2.73,2.73,0,0,0-2.55-1.47,2.65,2.65,0,0,0-2.87,2.85v3A2.61,2.61,0,0,0,192.67,90a2.79,2.79,0,0,0,2.74-1.5Z"/><polygon class="cls-1" points="200.13 91.08 198.64 91.08 198.56 91 198.56 89.47 198.64 89.39 200.13 89.39 200.22 89.47 200.22 91 200.13 91.08"/><rect class="cls-1" x="218.47" y="23.98" width="1.51" height="78.41"/></g></svg>