<?xml version="1.0" encoding="utf-8"?>
<!-- Generator: Adobe Illustrator 24.3.0, SVG Export Plug-In . SVG Version: 6.00 Build 0)  -->
<svg version="1.1" id="Capa_1" xmlns="http://www.w3.org/2000/svg" xmlns:xlink="http://www.w3.org/1999/xlink" x="0px" y="0px"
	 viewBox="0 0 340.2 113.4" style="enable-background:new 0 0 340.2 113.4;" xml:space="preserve">
<style type="text/css">
	.st0{clip-path:url(#SVGID_2_);}
	.st1{fill:#FFFFFF;}
</style>
<g>
	<defs>
		<rect id="SVGID_1_" width="340.2" height="113.4"/>
	</defs>
	<clipPath id="SVGID_2_">
		<use xlink:href="#SVGID_1_"  style="overflow:visible;"/>
	</clipPath>
	<g class="st0">
		<path class="st1" d="M271.2,40.3C271.3,40.3,271.3,40.3,271.2,40.3"/>
		<path class="st1" d="M289.2,26.3c0,0.2,0.3,0.2,0.5,0.3C289.9,26.2,289.1,26.2,289.2,26.3"/>
		<path class="st1" d="M305.1,41.2c0.1,0,0.1-0.2,0.1-0.3l-0.4,0.4L305.1,41.2z"/>
		<path class="st1" d="M305.9,41.1c0.1-0.1,0.2-0.1,0.3,0l0.6-0.4C306.4,40.8,306,40.2,305.9,41.1"/>
		<polygon class="st1" points="303.7,36.4 302.8,37.2 303.1,37 		"/>
		<path class="st1" d="M302.1,41c0.1-0.2,0.2-0.6,0.5-0.6c-0.1-0.3-0.2,0.2-0.7-0.2C302.5,40.5,301.5,40.7,302.1,41"/>
		<path class="st1" d="M303.1,39.8c0.5-0.1,0.9,0.5,1,0.8l0.2-0.1c-0.1,0-0.2-0.1-0.2-0.1c-0.2-0.5,0.2-0.8,0.6-1l-0.2-0.3
			c-0.6,0.3-1.3,0.3-1.8,0c-0.1,0.2-0.1,0.5-0.3,0.5l0.9-0.2C303.2,39.5,303.2,39.8,303.1,39.8"/>
		<polygon class="st1" points="304.2,41.5 304.3,41.6 304.6,41.4 304.5,41.3 		"/>
		<path class="st1" d="M301.4,41.2c0.5,0,0.3,0.4,0.6,0.6c0.1-0.2,0-0.4,0.2-0.5C301.9,41.4,301.6,40.9,301.4,41.2"/>
		<path class="st1" d="M303.3,42.3l0.3-0.2c-0.1,0.1-0.1,0-0.3,0.1L303.3,42.3z"/>
		<path class="st1" d="M293.9,47.1c-0.4,0-0.1,0.2-0.1,0.4C293.9,47.4,293.9,47.3,293.9,47.1"/>
		<path class="st1" d="M292.1,49.1c0.3-0.7,1.2-0.8,1.6-1.5c-0.7,0.4-1.4,0.9-2,1.4L292.1,49.1z"/>
		<polygon class="st1" points="301,42.2 301.5,42.1 300.5,42 		"/>
		<path class="st1" d="M292.8,49.1l0.3-0.5l-1.9,1.5c0.4-0.3,1.5-0.1,2-0.7L292.8,49.1z"/>
		<polygon class="st1" points="293.4,51.1 294.2,50.6 294.1,50.4 293.3,51 		"/>
		<path class="st1" d="M298.9,59.9c0,0.1,0,0.2,0,0.3l0.4-0.3L298.9,59.9z"/>
		<path class="st1" d="M290.3,45.7c0.2-0.3,1,0.2,0.6-0.7L290.3,45.7z"/>
		<path class="st1" d="M301.3,40.2c0.2,0.3,0.4-0.2,0.6,0l0.2-0.4C301.8,39.9,301.5,39.8,301.3,40.2"/>
		<polygon class="st1" points="324.3,44.6 324.2,45 324.6,44.9 		"/>
		<path class="st1" d="M322.8,44.3c0-0.2,0.3-0.2,0.4-0.4c-0.5-0.5-1.1,0.1-1.3-0.2C321.8,43.9,322.7,43.9,322.8,44.3"/>
		<path class="st1" d="M322.9,47.5c0-0.1,0.1-0.3,0.1-0.4C322.8,47.2,322.7,47.3,322.9,47.5"/>
		<path class="st1" d="M299.8,40.2c0.1-0.1,0.3-0.2,0.3-0.3l-0.2-0.1C300,39.8,299.9,40,299.8,40.2"/>
		<path class="st1" d="M300.7,21.5l0.4-0.3l-0.1-0.2c-0.2,0-0.4,0-0.5,0.1C300.7,21.2,300.6,21.5,300.7,21.5"/>
		<polygon class="st1" points="324.2,46.9 323.9,47.5 324.2,47.5 		"/>
		<polygon class="st1" points="323.8,44.9 323.3,45.1 323.4,45.1 		"/>
		<path class="st1" d="M321.8,45.1c0,0,0,0.1,0,0.2l0.2,0.1L321.8,45.1z"/>
		<polygon class="st1" points="307.9,56 307.4,56.5 308.1,56.2 		"/>
		<polygon class="st1" points="318.4,48.7 319.1,49 318.8,48.6 		"/>
		<path class="st1" d="M307.4,57.2l-0.1,0.2l-0.1-0.1l-0.2,0.3C307.2,57.5,307.5,57.4,307.4,57.2"/>
		<path class="st1" d="M309,53.8c0.7-1.4,0.5,0.5,0.9,0.7c0.4,0,0.8,0.6,1,0.2c-0.8-0.4-0.1-1.2-1-1.6c0.3-0.2,0.6-0.7,1.1-0.5V53
			c0.3-0.3,0.6,0.3,0.7-0.4l0.4,0.1l-0.2-0.5c-0.4,0.2-1-0.7-1.1,0c-0.8,0-1.4,1.2-2,1.4l1,0.8L309,53.8z"/>
		<polygon class="st1" points="318.6,46.3 318.5,46.5 318.8,46.6 318.6,46.5 		"/>
		<path class="st1" d="M309.3,55.4c0.1,0.3,0.4-0.4,0.6-0.3V55L309.3,55.4z"/>
		<path class="st1" d="M318.8,45.4l-0.2-0.3l-0.3,0.3C318.5,45.4,318.6,45.6,318.8,45.4"/>
		<path class="st1" d="M319.8,45.4c0.1-0.2,0.6-0.2,0.7-0.3l-0.5,0c0.1-0.2,0-0.4,0-0.7l-0.5,0.2C319.6,44.6,319.7,45.2,319.8,45.4"
			/>
		<path class="st1" d="M243.2,28.3c0,0.1,0.1,0.3,0.1,0.4C243.3,28.6,243.4,28.3,243.2,28.3"/>
		<path class="st1" d="M244,47.6L244,47.6L244,47.6L244,47.6"/>
		<path class="st1" d="M244.2,48.1l-0.2-0.5l0,0C244.1,47.8,243.9,48.1,244.2,48.1"/>
		<polygon class="st1" points="244.5,37.7 244.1,37.6 244.2,37.9 		"/>
		<polygon class="st1" points="277.3,39.2 277.3,39.1 276.6,39.6 276.6,39.7 		"/>
		<path class="st1" d="M243.4,39.2c-0.8-0.1-1.2-0.6-1.9-0.4C242,39,242.9,39.4,243.4,39.2"/>
		<path class="st1" d="M300.1,21.4c-0.1,0.1-0.2,0.3-0.3,0.4C300.2,21.9,300,21.7,300.1,21.4"/>
		<path class="st1" d="M279.4,38.6c-0.2,0.2-0.4,0.5-0.2,0.6L279.4,38.6z"/>
		<path class="st1" d="M241.8,47.6l1.1-0.5l-0.1-0.2C242.2,46.7,242,47.5,241.8,47.6"/>
		<polygon class="st1" points="242.1,44 242.1,44.2 242.3,44.4 		"/>
		<polygon class="st1" points="242.3,45.3 241.9,45.3 242.4,45.5 		"/>
		<path class="st1" d="M242.7,46.5l-1.9-0.3c0.6,0.2,1.1,0.4,1.8,0.4L242.7,46.5z"/>
		<path class="st1" d="M244.6,23c0.3,0.3,0.1,0.7,0.2,1c0.2-1.2,0.9,0.4,1.4-0.6c-0.5-0.4-1.6,0.5-1.4-0.7c-0.4,0.5-1-0.3-0.9,0.5
			C244.1,23.1,244.3,22.8,244.6,23"/>
		<path class="st1" d="M288.5,29.3l-0.2-0.3c0,0.1-0.3,0.1-0.1,0.4L288.5,29.3z"/>
		<path class="st1" d="M288.7,30.7c-0.7-0.4-0.9,0.8-0.7,1C287.8,31.3,289,31.5,288.7,30.7"/>
		<path class="st1" d="M291.8,28.7l0.1-0.4H291l0.1,0.5C291.3,28.6,291.8,28.3,291.8,28.7"/>
		<path class="st1" d="M287.3,29.4l-0.4,0.9l0.6,0.1C287.4,30.2,287.7,29.4,287.3,29.4"/>
		<polygon class="st1" points="298.9,22.6 299.2,22.5 299.1,22.1 298.7,22 		"/>
		<path class="st1" d="M279.8,38.4c-0.1,0-0.3,0-0.4,0.2c0.1,0.1,0.3,0,0.4,0.1L279.8,38.4z"/>
		<path class="st1" d="M298.5,21.4l0.2-0.1c-0.5-0.3-0.5-0.8-0.6-0.7C298,20.9,298.2,21.3,298.5,21.4"/>
		<path class="st1" d="M280.4,38.7c0.1,0.3,0.1,1.1-0.4,0.8c0.1,0.1,0.1,0.3,0.3,0.3c-0.1-0.3,0.3-0.5,0.6-0.3
			c0.1,0.1-0.2,0.1-0.3,0.2l0.2,0.1l-0.5,0.5c0.6-0.5,1.1-1.1,1.4-1.8l-0.4-0.1c-0.3-0.4,0.2-0.4,0.2-0.6c-0.1,0.1-0.1,0-0.1-0.2
			l-0.5,0.6l-0.8-0.4l0.6,0.6c-0.4,0.2-1.2,0.6-0.9,0.9C280,39.1,280.5,39,280.4,38.7"/>
		<path class="st1" d="M286.4,30.4H286l0.2,0.5C286.3,30.9,286.2,30.6,286.4,30.4"/>
		<path class="st1" d="M279.8,37.3c-0.1,0.1-0.5,0.5-0.3,0.3L279.8,37.3z"/>
		<path class="st1" d="M282.2,37l-0.2,0.3C282.2,37.3,282.4,37.3,282.2,37"/>
		<path class="st1" d="M281.3,40.5c0-0.1,0-0.3,0.1-0.4l-0.1-0.1C281.5,40.5,280.9,40.2,281.3,40.5"/>
		<path class="st1" d="M282.4,38.4c0.2,0.5-0.4,0.4-0.4,0.8c0.1-0.1,0.9-0.6,1-1.2c-0.2-0.1-0.3,0.6-0.6,0.1
			c0.1-0.1-0.1-0.3,0.1-0.4c0-0.2-0.2,0-0.3,0.1C281.8,38,282.4,38.2,282.4,38.4"/>
		<path class="st1" d="M281.8,40.6l-0.4,0.6h0.2C282.2,41.2,281.8,40.8,281.8,40.6"/>
		<path class="st1" d="M305.2,39.4c-0.1,0.4-0.7,0.1-0.6,0.7c0.3-0.2,0.8-0.6,1.2-0.3l-0.4-0.4c0-1.2,0.9,0.3,1.2-0.6
			c0.4-0.4-0.1-0.7-0.3-1.2c-1-0.7-0.5,1.1-1.5,0.6c0.1-0.6-0.6-0.3-0.8-0.4l-0.1,0.7C304.4,38.4,305.5,38.5,305.2,39.4"/>
		<path class="st1" d="M302.7,72.7c0.1,0.6-0.5,1.4,0.1,1.6C302.7,73.7,302.9,73.2,302.7,72.7"/>
		<path class="st1" d="M297.2,74.2c0.2,0.1,0.2,0,0.3-0.1l-0.1-0.2L297.2,74.2z"/>
		<path class="st1" d="M296,76.4l0.5,0.1c0.3-0.2,0.2-0.6,0.4-0.8C296.6,75.7,296,76,296,76.4"/>
		<path class="st1" d="M306.5,72.7l0.4,0.2l0.3-0.9C306.7,71.9,306.6,72.5,306.5,72.7"/>
		<path class="st1" d="M293.8,47.6C293.8,47.6,293.8,47.6,293.8,47.6L293.8,47.6L293.8,47.6"/>
		<path class="st1" d="M285.6,32.1c0.4,0.4,0.8,1,1,1.5c0.1,0.1,1,0.3,1.3,0.1c-0.2-0.9,1.4-0.2,1.1-1.2c0.2-0.2,0.6-0.2,0.8,0
			c0,0,0.1,0.1,0.1,0.1c0.3-0.7,1.3-1.2,1.5-1.9l0.4,0.1c0.6-0.9,1.4-1.7,2.2-2.4l0.2-1.5c-0.7-0.3-0.4-0.6-1-1.2
			c-0.4-0.2-0.9-0.9-1.4-0.5c-0.3-0.3-0.4-0.8-0.9-0.8c-0.7,0.6-1-0.3-1.7,0c-2.3,1,0.3,2.3,0.2,3.5c0.6-0.3,0.5-1.3,1.2-1
			c0.1,0.2,0.2,0.3,0,0.6h-0.5c-0.4,0.6-0.4,1.4-0.2,2.1c-0.5-0.3-0.8-0.8-1.2-1.2l0.2-0.1l-0.7-1.5c-0.7-2.6-1.5,1.5-2.7,0.9
			c-0.1,1.5-2.4,0.8-2.8,2.1C284,30.7,284.5,32.2,285.6,32.1 M292,28.4l-0.1,0.4c0-0.4-0.5-0.2-0.7,0.1l-0.1-0.5L292,28.4z
			 M289.7,26.6c-0.2-0.1-0.4-0.1-0.5-0.3C289.2,26.2,289.9,26.2,289.7,26.6 M288.3,29.1l0.2,0.3l-0.3,0.1
			C288,29.2,288.3,29.2,288.3,29.1 M288.7,30.7c0.3,0.8-0.9,0.6-0.7,1C287.8,31.5,288,30.3,288.7,30.7 M287.4,29.4
			c0.4,0.1,0.1,0.9,0.2,1h0.1c0,0-0.1,0-0.1,0l-0.6-0.1L287.4,29.4z M286.4,30.4c-0.1,0.2-0.1,0.5-0.2,0.5l-0.2-0.5L286.4,30.4z"/>
		<path class="st1" d="M294.1,51c0.3-0.3,1.1-0.5,1-1c0.1-0.1,0.2,0,0.2,0.1L296,49c0.4,0.1,0.9,0,1.3-0.2c0.8-0.4,2-0.9,1.4-1.9
			c-0.2-1.4-1.4-1.7-2.1-3.2c0.7-0.3-0.1-0.8-0.1-1.2c-0.8-0.9-1.2-0.3-2-0.6c-0.2,0-0.5,0.5-0.6,0.2l-2.1,1.5
			c-0.8-0.3-0.8,0.7-1.5,0.6c-0.4,0.8-1.1,1.3-0.8,2c-1.5,0.1-1,1.5-2.1,2.3c0.4,0.4,0.6-0.3,0.9-0.2c-0.3,0.1-0.4,0.8-0.5,0.9
			c0.5,0.1,0.4-0.5,0.9-0.4c-0.2,0.1-0.1,0.6-0.4,0.7l0.6-0.2c0,0.3,0,0.5-0.3,0.7c0.5,1,1.5-0.4,2.3-0.5c0,0.8-0.8,0.5-1,1.1
			c0.2,0.3,0.4,0.6,0.6,0.9l0.2-0.1c0.1,0.2,0.4,0.1,0.4,0.5C292.2,52.2,293,51,294.1,51 M290.3,45.6l0.6-0.7
			C291.3,45.9,290.5,45.4,290.3,45.6 M294.3,50.5l-0.8,0.5l-0.1-0.2l0.8-0.5L294.3,50.5z M294,47.1c0,0.2-0.1,0.3-0.1,0.4
			c0,0,0,0,0,0.1l0,0c-0.4,0.6-1.3,0.7-1.6,1.5l-0.4,0c0.6-0.5,1.2-1,1.9-1.4l0.1-0.1C293.8,47.3,293.6,47.1,294,47.1 M293.1,48.6
			l-0.3,0.5l0.4,0.4c-0.5,0.6-1.6,0.3-2,0.7L293.1,48.6z"/>
		<path class="st1" d="M287.7,30.4h-0.1C287.6,30.4,287.6,30.4,287.7,30.4"/>
		<path class="st1" d="M294.7,26.7c0.7,0.8,1.2-0.2,2.2-0.2c0-1.1,1.5-1,1.8-1.5l0.1,0.1c0.9-0.5,0.9-1.5,1.4-2.4
			c-0.4-0.4-0.3-0.8-0.9-1.2c-0.2,0.1-0.2,0.2-0.2,0.4c-0.5-0.3-0.7,0-1-0.2c-0.2-0.4,0.3-0.3,0.4-0.4l-0.4-0.7c0.8-1,0.6,1,1.3,0.5
			l-0.2-0.4c-0.2-0.5-0.3-1.1-0.1-1.6l0.6,0.7l0.2-0.1c1.3,0.9-0.4,1.8,0.8,2.9l0.4-0.2c-0.4-1,0.5-1.1,0.6-2.1h-0.8
			c0.1-0.1-0.1-0.5,0.2-0.3c1.5-0.4,0-1.6,0.2-2.3c-1.4-0.2-2.7-0.1-4.1,0.2c-0.4,0-0.9,0.5-1.4,0.4c-0.3,0.3-1.4,0.8-0.9,1.2
			c-0.2-0.1-0.6,0.1-0.6-0.2c-0.2,0.2-0.6,0.6-1,0.6c-0.3,0.7-1.2,1.2-1.4,1.8c-1.3,1.1,1,2.3,1.2,3.5
			C293.7,25.6,294.2,26.1,294.7,26.7 M298.3,22.6c0-0.1,0.1-0.2,0.2-0.2c0.1,0,0.1,0,0.2,0c0.2-0.1,0.3-0.1,0.5-0.1l0.1,0.2
			l-0.4,0.3c-0.2-0.1-0.1-0.4-0.2-0.4C298.5,22.4,298.4,22.5,298.3,22.6c-0.1,0.3,0.1,0.5-0.3,0.5C298,22.9,298.1,22.7,298.3,22.6
			 M297.3,23.2l0.1,0.5l-0.3,0.1l-0.2-0.6L297.3,23.2z M296.9,22.5l-0.2,0.1c-0.3-0.1-0.5-0.5-0.5-0.8
			C296.4,21.6,296.4,22.2,296.9,22.5"/>
		<path class="st1" d="M296.9,41.4l-0.3,0.2c0.4,0.6,0.6,1.3,0.5,2c0.6,0.7,1.4,1.1,2.3,1.2c-0.6-1.2-1.7-1.3-1.9-2.5l0.1-0.1
			L296.9,41.4z"/>
		<path class="st1" d="M295,18.7L295,18.7c0-0.1,0.1-0.1,0.1-0.2L295,18.7z"/>
		<path class="st1" d="M300.3,21.2c-0.2,0-0.2,0.1-0.2,0.2c0.1-0.1,0.3-0.2,0.4-0.3C300.5,21.1,300.4,21.1,300.3,21.2"/>
		<path class="st1" d="M309.9,55.1l0.1,0.2C310,55.2,310,55.1,309.9,55.1"/>
		<path class="st1" d="M298.7,62.1c0.6,0.6,0.9-1.1,1.7,0c0.6-0.1,1.2-0.6,1.5-0.7l0.6-0.6c0.1-0.7-0.6-0.8-1-0.6l0.8-1.1
			c-0.6-1-1.9-1.4-2.3-2.3c-1,1.5-1.5-0.5-2.5,0.9c-0.4,0.7,1.5,2.3,0.1,3.4c-0.6-0.2-1.1,0.4-1.7-0.1c0-0.3,0.2-0.4,0.3-0.6
			c-0.9-0.1-0.8,0.3-1.3,0.5c0.8,0.5-0.4,1.7-0.2,2.3c0.8,0.4,0.5-0.5,1.3-0.4V63c0.3-0.7,1.9-0.5,1.5-1.6c0-0.6,0.7-0.1,1.1-0.2
			c0,0,0.1-0.1,0.1-0.1c0,0-0.1,0.1-0.1,0.1C298.3,61.4,298.5,61.8,298.7,62.1 M298.9,59.9h0.4l-0.4,0.3c0,0,0,0.1-0.1,0.1
			c0,0,0,0,0,0l0.1-0.1C298.8,60.1,298.8,60,298.9,59.9"/>
		<path class="st1" d="M313.6,50.4l-0.1-0.3l-0.1,0.2l-0.2-0.3c-0.1-0.5-0.2,0.3-0.4,0C312.7,50.2,313.3,50.2,313.6,50.4"/>
		<path class="st1" d="M314.2,51.5l-0.3-0.6l-0.2,0.1C313.9,51.2,314.1,51.6,314.2,51.5"/>
		<path class="st1" d="M310.9,37.9c-0.3,0.1-0.3-0.3-0.5-0.4l-0.2,0.2c0.5,0.5,1.2,0.3,1.6,0.7c1.6-1.2,3.3-2.1,5.1-2.9
			c-0.1,0-0.1-0.2-0.1-0.3c0.3-0.2,0.7-0.3,1.1-0.4c0.1-0.4,0.4-0.7,0.8-0.9c0.2-0.3,0.1-0.4,0.2-0.7c0.2,0,0.5,0,0.6-0.2
			c0.5-1.4,1.8-2.6,0.9-4.2l0.2-0.1c-0.4-0.4-0.8-0.8-1.1-1.3c-2-0.6-5-0.8-6.4,0.6c-0.8,0.2-1.6,1-2.5,1.5l0.2,0.1
			c-0.5,0.7-1.1,1.4-1.7,2c-0.3,0.7-0.3,1.5-0.1,2.2c-0.5,0-0.6,0.7-0.5,0.9C309.5,35.5,310.3,36.6,310.9,37.9"/>
		<path class="st1" d="M305.7,58.7c0.3-0.1,0.4-0.4,0.4-0.7c0.4-0.2,0.8-0.6,1.1,0c2.5-1.5,5.4-2.2,7.8-3.8c0.8-1.8-1.9-2.1-2.2-3.2
			c-0.4-0.6-1-0.9-1.7-1c-1,1.3-2.3,2.4-3.7,3.2c0.1,0.5,0.4,0.1,0.6,0.2v0.4c-0.2-0.4-0.8,0.4-0.7-0.3c-0.5,0.2,0,1.1-0.5,1.4
			c-0.4,0,0.2-0.7-0.5-0.7c-0.2,0.3,0.5,0.8-0.2,0.8l0.4,0.5c0.2,0.5-0.4,0.7-0.6,0.8c0-0.2-0.4-0.4,0.1-0.5
			c-0.1-0.4-0.5-0.5-0.9-0.4c-0.1,0-0.2,0.1-0.3,0.2C306,56.9,304.3,57.6,305.7,58.7 M309.3,55.4l0.5-0.4v0.1c0,0,0.1,0.1,0.1,0.2
			l-0.1-0.2C309.7,55,309.4,55.7,309.3,55.4 M310.5,52.3c0.1-0.7,0.8,0.2,1.1,0l0.2,0.5l-0.4-0.1c0,0.7-0.4,0-0.7,0.4v-0.4
			c-0.4-0.2-0.7,0.3-1.1,0.5c0.9,0.4,0.2,1.2,1,1.6c-0.1,0.4-0.6-0.2-1-0.2c-0.4-0.1-0.2-2.1-0.9-0.7l0.6,0.8l-1-0.8
			C309.1,53.5,309.6,52.3,310.5,52.3 M307.9,56L307.9,56L307.9,56L307.9,56l0.1,0.2l-0.7,0.3L307.9,56z M307.2,57.3L307.2,57.3
			l0.2-0.1c0.1,0.2-0.2,0.3-0.4,0.4L307.2,57.3z"/>
		<path class="st1" d="M317.4,44.9c-1.3,1.5-4.4,2.5-3.5,4.8c1.5,0.8,0.6,2.5,1.8,3.4c0.8,0.4,1.5,0.1,2.3-0.6c1,0.2,1.6-1,2.3-1.2
			c1.1-0.4,2.4-0.7,3.4-1.1c1.1-1.2,2.1-2.5,2.9-4c0-0.8,0.1-2.2-0.7-2.9c-1.4-0.5-3.1-1.3-4.7-0.7
			C319.7,43.4,318.1,43.9,317.4,44.9 M324.3,44.6l0.2,0.3h-0.4L324.3,44.6z M324.2,47l0,0.6H324L324.2,47z M323.8,45l-0.4,0.2h-0.1
			L323.8,45z M322.9,47.6c-0.1-0.2,0-0.3,0.1-0.4c0-0.1,0.1-0.1,0.2-0.1c-0.1,0-0.1,0.1-0.2,0.1C323,47.3,322.9,47.4,322.9,47.6
			 M323.2,44c-0.1,0.2-0.4,0.2-0.4,0.4c-0.1-0.3-1-0.3-1-0.6C322.1,44.1,322.6,43.4,323.2,44 M321.8,45.3L321.8,45.3
			c0,0,0-0.1,0-0.2l0.2,0.3L321.8,45.3C321.6,45.5,321.4,45.6,321.8,45.3 M319.5,44.5l0.5-0.2c0,0.3,0.1,0.5,0,0.7l0.5,0.1
			c0,0.2-0.6,0.1-0.7,0.3C319.7,45.2,319.6,44.6,319.5,44.5L319.5,44.5C319.4,44.5,319.5,44.5,319.5,44.5 M318.4,48.8l0.4-0.2
			l0.3,0.4L318.4,48.8z M318.5,46.5l0.2-0.1v0.1l0.2,0.1L318.5,46.5z M318.5,45.2l0.2,0.3c-0.2,0.1-0.3,0-0.5,0L318.5,45.2z"/>
		<path class="st1" d="M323,47.1l0.2-0.1C323.1,47,323,47,323,47.1"/>
		<path class="st1" d="M321.8,45.2L321.8,45.2C321.4,45.5,321.7,45.4,321.8,45.2"/>
		<path class="st1" d="M319.4,44.5h0.1C319.5,44.5,319.4,44.5,319.4,44.5"/>
		<path class="st1" d="M299.6,77c0.6,0.2,1.3-0.6,1.7-0.7c0.9-1.2-0.9-2.3-0.5-3.6l1.9,3.7l0.4-0.2l-0.3-1.9
			c0.6,0.5,0.6,1.8,1.1,2.3c0.1-0.3,0.6,0,1.1,0c2-1.3,4.2-1.4,6.4-2.2c0.3-1,1-1.3,0.5-2.2c0.4,0,0.6,0.6,0.5,0.9
			c0.1,0.7,0.9,0.8,1.6,0.6c1.9-0.6,4.1-0.6,6.2-1.4c0-0.1,0.1-0.3,0.1-0.4c0.1,0,0.2,0,0.3,0l1.4-1.3l-0.1-0.2
			c0-0.2,0.3-0.3,0.5-0.5c-0.1-0.2-0.3-0.2-0.2-0.4c0.2,0,0.4-0.3,0.6-0.3c0.9-1.3,0.7-1.9,0.5-3.3c-1.3-0.8-2.6-1.9-4.2-1
			c-2.6-0.1-5,1.5-7.1,2.6c-1.5,0.8-0.8,2.4-1,3.6c-0.3-0.8-0.6-1.5-0.9-2.2c-0.7-0.6-1.3-0.2-2.1,0.1l0.1-0.2c-1.5,2-4.4,1.3-5.7,3
			c-0.2,0-0.3-0.1-0.1-0.2c-1.1,0-2.4,0.3-3.2-0.2c-1.2,1.6-3.7,1.5-3.7,3.4c0.2,0.3,0.4-0.2,0.6-0.1c0.1,0.2,0.2,0.3,0.2,0.4
			c-0.1,0.4,0,0.7,0.1,1.1c0.3,0.5,0.6,0.7,1.1,0.7S299.2,76.1,299.6,77 M297.2,74.1l0.2-0.3l0.1,0.2
			C297.4,74.1,297.4,74.2,297.2,74.1 M302.7,72.6c0.2,0.5,0,0.9,0.1,1.6C302.2,74,302.8,73.2,302.7,72.6 M306.9,72.8l-0.4-0.2
			c0.1-0.2,0.3-0.7,0.7-0.7L306.9,72.8z"/>
		<polygon class="st1" points="307.9,56 307.9,56 308,56 		"/>
		<path class="st1" d="M301.8,38.2c-1.6,0.4-3,1-4.3,2c-0.1,0.5-0.4,0.9,0.1,1.2s0.9,1.1,1.6,0.7c-0.2,0.6,0.4,0.6,0.6,0.8
			c0.5,1.8,1.4,2,2.9,1.6c-0.1,0.1,0,0.2,0.1,0.3c1.7-0.9,2.5-2.5,4.3-3.3c0.4-1.3,1.6-1.2,2.5-1.5l-0.2-0.6c-0.8-0.9-0.9-2.1-2-2.8
			c-0.5-1-1.5-1.2-2.6-1.4c-1.1,1.2-2.3,1.4-3,2.7C301.8,37.8,301.9,38,301.8,38.2 M299.9,40.1c-0.1,0.1-0.2,0.2-0.2,0.2
			C299.7,40.3,299.8,40.2,299.9,40.1c0.1-0.2,0.2-0.4,0.1-0.4l0.2,0.1C300.2,40,300.1,40,299.9,40.1 M301.1,42.1l-0.5-0.2l1,0.1
			L301.1,42.1z M302.1,41.9c-0.3-0.2,0-0.6-0.6-0.6c0.3-0.3,0.5,0.2,0.7,0.1C302,41.5,302.2,41.6,302.1,41.9 M303.4,42.3v-0.2
			c0.2-0.1,0.2,0,0.3-0.1L303.4,42.3z M304.4,41.6L304.4,41.6l0.3-0.3l0.1,0.1L304.4,41.6z M305.2,41.1H305l0.4-0.4
			C305.4,40.9,305.4,41.1,305.2,41.1 M306.9,40.7l-0.6,0.4c-0.1-0.1-0.2-0.1-0.3,0C306.1,40.3,306.5,40.8,306.9,40.7l0.3-0.1
			C307.1,40.6,307,40.7,306.9,40.7 M304,37.6c0.2,0.1,0.9-0.2,0.8,0.4c1,0.5,0.5-1.3,1.5-0.6c0.2,0.5,0.7,0.8,0.3,1.2
			c-0.4,0.9-1.2-0.6-1.2,0.6l0.4,0.4c-0.4-0.2-0.9,0.2-1.2,0.3c-0.1-0.6,0.5-0.2,0.6-0.7c0.3-0.9-0.8-1-1.4-1L304,37.6z M303.7,36.4
			l-0.5,0.5l-0.3,0.2L303.7,36.4z M302.6,39.1c0.6,0.3,1.3,0.3,1.8,0l0.2,0.3c-0.4,0.2-0.8,0.6-0.6,1c0.1,0.1,0.1,0.1,0.2,0.1
			l-0.2,0.1c-0.1-0.3-0.5-1-1-0.8c0.1-0.1,0-0.3,0.1-0.4l-0.9,0.2C302.5,39.6,302.4,39.3,302.6,39.1 M302.6,40.4
			C302.7,40.4,302.7,40.4,302.6,40.4l0.1,0.1C302.7,40.5,302.7,40.4,302.6,40.4c-0.3,0-0.4,0.4-0.5,0.6c-0.6-0.3,0.5-0.5-0.2-0.8
			c-0.3-0.2-0.4,0.4-0.6,0c0.2-0.5,0.5-0.4,0.8-0.5l-0.2,0.4C302.5,40.6,302.5,40,302.6,40.4"/>
		<path class="st1" d="M303.4,57.8l0.2,0.3c0.2,0.1,0.3-0.6,0.1-0.6L303.4,57.8z"/>
		<path class="st1" d="M285.4,34.7c0.2-0.3,1.1,0.4,1-0.5c-0.7-1.1-2.5-1.6-3.2-2.9c-0.3-0.2-0.8-0.2-0.9,0.1
			C282.6,33.2,284.6,33.6,285.4,34.7"/>
		<path class="st1" d="M298.6,61.1c0,0,0.1,0,0.1-0.1C298.7,61.1,298.6,61.1,298.6,61.1"/>
		<path class="st1" d="M298.9,60.2l-0.1,0.1C298.8,60.2,298.9,60.2,298.9,60.2C298.9,60.2,298.9,60.2,298.9,60.2"/>
		<path class="st1" d="M302.7,40.4C302.7,40.4,302.7,40.4,302.7,40.4c-0.1,0.1,0,0.1,0,0.2L302.7,40.4z"/>
		<path class="st1" d="M307,40.6l-0.3,0.2C306.8,40.7,306.9,40.6,307,40.6"/>
		<path class="st1" d="M299.6,40.4c0.1,0,0.2-0.1,0.2-0.2C299.7,40.3,299.7,40.3,299.6,40.4"/>
		<path class="st1" d="M281.8,40.6L281.8,40.6C281.9,40.5,281.8,40.5,281.8,40.6"/>
		<path class="st1" d="M273.8,39.9c-0.1,0.6,0.3,1.3,0.9,1.5l0.5,0.2c0.3,0.2,0.4,0.7,1,0.6c0.2-0.3,1.9,0.4,1.6-0.3
			c1.2,1.1,2.1-0.7,2.8,0.6c0.8-0.7,1.9-1.1,2.5-2.2c-0.2-0.4-0.5-0.7-0.8-1c0.2,0,0.4-0.4,0.6-0.3c-0.3,0.5,0.4,0.2,0.5,0.3
			c-0.1-0.1,0.1-0.2,0.3-0.1s0,0.2,0,0.4c0.5-0.5,0.8-1.3,1.4-1.3c0.3-0.6,0.6-1.2,0.9-1.8c0.3-2.2-2.7-1.7-3.5-3.1
			c-0.9-0.3-0.4-1-1.3-1.4c-1.3-0.1-1.1,0.5-2.2,0.7c-1.6,1.6-2.9,3.3-3.9,5.3c0.1,0.2,0.3,0.2,0.1,0.4
			C274.7,38.8,273.9,38.8,273.8,39.9 M280.6,41c-0.4-0.4,0.2,0,0-0.5l0.1,0.2C280.6,40.8,280.6,40.9,280.6,41 M281.1,41.6h-0.2
			l0.4-0.6c0,0,0-0.1,0.1-0.1l-0.1,0.1C281.2,41.3,281.5,41.6,281.1,41.6 M281.9,38.2c-0.2,0-0.1,0.3-0.1,0.4
			c0.3,0.6,0.4-0.2,0.6-0.1c-0.2,0.5-0.5,0.9-1,1.2c0-0.4,0.6-0.3,0.4-0.8c0-0.2-0.5-0.4-0.2-0.6C281.6,38.2,281.8,37.9,281.9,38.2
			 M281.3,37.8l0.2-0.3C281.7,37.8,281.5,37.8,281.3,37.8l-0.2,0.3C281.1,37.9,281.1,37.8,281.3,37.8 M280.1,38.9l-0.6-0.6l0.8,0.4
			l0.5-0.6c0,0.1,0,0.2,0.1,0.2c0,0.1-0.5,0.1-0.2,0.6l0.4,0.1c-0.3,0.7-0.8,1.4-1.4,1.8l0.5-0.5l-0.2-0.1c0.2-0.1,0.4-0.2,0.4-0.2
			c-0.3-0.2-0.7,0-0.6,0.3c-0.2,0-0.3-0.2-0.3-0.3c0.5,0.3,0.5-0.5,0.4-0.8c0.1,0.3-0.4,0.4-0.5,0.6
			C278.9,39.4,279.8,39.1,280.1,38.9 M279.1,37.8l-0.3,0.3C278.7,38.2,279,37.9,279.1,37.8 M278.7,39.1L278.7,39.1
			c0.1-0.1,0.3-0.2,0.4-0.2l0,0.3C279,39.2,278.8,39.2,278.7,39.1L278.7,39.1l-0.2,0.6C278.3,39.6,278.5,39.3,278.7,39.1
			 M276.6,39.6L276.6,39.6l-0.6,0.6l-0.1-0.1L276.6,39.6z"/>
		<path class="st1" d="M244,23.3c0.2,0,0.6,1.7,0.6,2s-0.7,0.3-0.9,0.1c0.1,0.3,0,0.5,0.3,0.7c0.2,0.1,0.5,0.1,0.7-0.1
			c0.3-0.4,0.6-0.8,0.8-1.3c0.4,0.2,0.9,0.3,1.3,0.4l-0.1,0.3l0.4,0.1c0-0.1-0.1-0.7,0.2-0.8c0.5,0.5,0.9,0.9,0.7,1.5
			c-0.4,0.1-0.6,0.3-0.5,0.7c0.1,0.2,0.2,0.4,0.3,0.6c0,0,0.2,0.8,0.1,0.8c0.4,0.1,0.6,0.3,0.6,0.7c0,0.1-0.2,0.9,0,0.9
			c0.2,0,0.5-0.1,0.7-0.1c0.4-0.1,0.5-0.7,0.4-1c-0.2-0.5-0.6-0.8-0.7-1.4c0-0.2,0.1-0.3,0.1-0.5s-0.2-0.7-0.2-1c0-0.3,0-0.6,0-0.9
			c0.1-0.3,0.1-0.6,0-0.9c0-0.2-0.1-0.3-0.1-0.5c-0.1-0.1-0.3-0.4-0.3-0.5c0-0.8-0.9-0.8-1.2-1.2c-0.2,0.2-0.6,0.2-0.9,0
			c-0.1-0.1-0.1-0.1-0.1-0.2c-0.3-0.4-0.7-0.6-1.2-0.6c-0.2,0-0.5,0-0.7,0s-0.6-0.1-0.8,0.1s-0.3,0.4-0.5,0.6s-0.7,0.7-0.4,1.1
			S243.5,23.3,244,23.3 M244.8,22.7c-0.2,1.2,0.9,0.3,1.4,0.7c-0.5,1-1.2-0.6-1.4,0.6c-0.1-0.3,0.1-0.7-0.2-1s-0.5,0.1-0.7,0.3
			C243.8,22.4,244.4,23.2,244.8,22.7"/>
		<path class="st1" d="M245.3,26.9l0.2,0.3c0-0.1,0-0.1,0.1-0.2C245.6,26.7,245.5,26.8,245.3,26.9"/>
		<path class="st1" d="M282,37.3c-0.1,0-0.2,0.1-0.2,0.3L282,37.3z"/>
		<path class="st1" d="M244,47.5c0,0,0-0.1,0-0.1V47.5z"/>
		<path class="st1" d="M244,47.6v-0.1v-0.1c0,0,0,0.1,0,0.1V47.6c0.2-0.1,0.3-0.2,0.5-0.3c0.2-0.1,0.5-0.2,0.7-0.2
			c-0.3-0.5-0.7-1,0-1.5l-0.4-0.1c0.2-0.6,0.3-1.2,0.4-1.8c0.4,0.4,0.7,1.3,1.5,1.2l-0.4-0.1c0.2-0.6,0-1.3-0.5-1.8l0.2-0.1
			l-0.6-0.4c-1-0.1-0.2,1-0.6,1c-0.5,0-0.1-0.3-0.4-0.6c-0.6,0-0.8-0.1-1.2,0.2c0.3,0.4,0.9,0.5,1.3,0.2c0,0.4,0.3,0.7,0,1.1
			c-1-0.4-2-0.8-3-1c0-0.7,0.5-0.4,0.9-0.6c0.2-0.5-0.1-0.3,0.1-0.8c-0.3-0.3-0.8,0.2-1.1-0.2c0.1-0.1,0-0.2,0.1-0.2s0.4,0,0.4,0.2
			c1.6-0.1,2.3-1.8,3-2.9c-0.4,0-1.1-0.3-1.4-0.2l0.1-0.4c0.8,0.1,1.6,0.1,2.4-0.2c0.9-1.3-0.9-1.2-1.1-1.8c1.1,0.2,2.2-0.2,2.9-1
			c-0.3-0.6-1.3-1.1-1.4-1.9c0.7-0.6,1.9-1.2,2.3-2.1c0.1-0.2,0.1-0.5,0-0.8c-1.1,0.3-1.9-0.6-2.4-1.4c0,0.5-0.7,0.4-0.9,0.1
			c0.1-0.2,0.3-0.1,0.5-0.2c0.2-0.5-0.7-1,0.2-1.3c-0.4-0.8-1.4,0.8-2.1,0.2c0.2,0.6-0.4,0.1-0.7,0.4l0,0c0.2,0,0.1,0.3,0.1,0.4
			c0-0.1-0.1-0.3-0.1-0.4c0,0,0,0-0.1,0s0,0,0,0c-0.5-1.2-2.1-2-1.7-4c-0.5,0.6-1.1,0.9-0.8,1.8c-1.4,2.7,0.1,5.7-0.2,8
			c1.8,1.6-0.7,2.1,0.5,3.6c-0.5,0.2,0.3,1-0.4,1.1c0.5,2.3-0.9,4.1-0.7,6.4l-0.2,0.7C239.2,46.6,243.6,47.8,244,47.6 M244.5,37.6
			l-0.3,0.2l-0.2-0.3L244.5,37.6z M243.3,39.1c-0.5,0.2-1.3-0.2-1.9-0.4C242.1,38.6,242.6,39,243.3,39.1 M242.1,44l0.2,0.4l-0.2-0.2
			L242.1,44z M242.3,45.3l0.1,0.2l-0.5-0.2L242.3,45.3z M240.2,47.9l-0.5-0.2L240.2,47.9z"/>
		<path class="st1" d="M283.9,38.7C283.9,38.7,283.9,38.7,283.9,38.7C283.9,38.7,283.9,38.7,283.9,38.7"/>
		<path class="st1" d="M243.2,28.3L243.2,28.3L243.2,28.3C243.2,28.3,243.2,28.3,243.2,28.3"/>
		<path class="st1" d="M240.5,26c-0.3-0.1,0.1-1.1,0.2-1.3c0.1-0.4,0.5-0.6,0.8-0.6c0.6,0.1,0.8,1.6,0.9,2.1c0.3,0.7,1,1.1,1.8,1.1
			c0.5,0,0.7-0.3,1.2-0.1c0.3,0.1,0.6,0.3,0.8,0.6c0.1,0.2,0.2,0.4,0.4,0.6c0.1,0.1,0.4,0.3,0.5,0.4s0.3,0.6,0.6,0.9
			c0.5,0.5,1.2,0.9,0.9,1.7s-1.2,1.2-1.8,1.8c-0.3,0.3-0.3,0.5,0,0.8c0.2,0.3,0.4,0.6,0.6,0.9c0.3,0.5,0.3,0.9-0.2,1.2
			c-0.2,0.2-1.2,0.5-1.3,0.9s0.3,0.2,0.4,0.5s0,0.5-0.3,0.7s-1.1,0.2-1.3,0.7c0.3,0.2,0.7,0.2,0.4,0.6c-0.3,0.4-0.7,0.9-1.1,1.2
			c-0.4,0.4-0.7,0.8-0.9,1.3c-0.1,0.3-0.2,0.9,0.1,1s0.9-0.2,1.1-0.4s0.7-0.2,1.1-0.4s0.5-1.2,0.9-0.8c0.3,0.4,0.5,0.8,0.5,1.3
			c0.1,1,0.4,1.9,0,2.9c-0.3,0.6-0.6,1.7-1.2,2c-0.4,0.2-0.8,0.4-1.2,0.4c-0.4,0-0.8-0.3-1.2-0.3c-0.9-0.1-1.8-0.4-2.5-0.9
			c-1.4-0.9-0.1-2.9-0.1-4.2c0-0.8,0-1.6,0.1-2.4c0.1-0.4,0.2-0.8,0.2-1.2c0.1-0.5,0.2-1,0.5-1.4c0.2-0.5,0.3-1,0.4-1.5
			c0.1-0.7-0.1-1.4-0.3-2c-0.2-0.7-0.4-1.4-0.5-2.1c-0.1-0.9-0.2-1.8-0.4-2.8c-0.3-0.6-0.4-1.3-0.4-1.9c0-0.4,0-0.8,0.2-1.1
			c0.2-0.3,0.4-0.6,0.6-0.8"/>
		<path class="st1" d="M285.7,36.8c-0.7,1.2-1.6,2.3-2.5,3.3c-0.7,0.8-1.5,1.5-2.4,2c-0.2,0.1-0.4,0.2-0.6,0.2
			c-0.3,0-0.3-0.3-0.6-0.3c-0.5-0.1-0.9,0.3-1.4,0.4s-0.9-0.1-1.4-0.2s-0.9,0.2-1.4,0.1s-0.4-0.2-0.6-0.5s-0.8-0.4-1.1-0.7
			c-0.9-0.8,0.5-1.8,1-2.3s0.9-1.2,1.3-1.7c0.9-1.2,2.3-1.8,3.8-1.6c1.2,0,2.4,0.2,3.5,0.7c0.5,0.3,1,0.6,1.5,1"/>
		<path class="st1" d="M295.4,19.1c1.5-0.8,6.1-3.4,6.8-0.3c0.3,1.1-0.3,1.9-0.8,2.8c-0.2,0.3-0.3,0.8-0.6,1
			c-0.6,0.3-0.7-0.3-0.7-0.8s-0.2-2.9-1.3-2.1c-0.6,0.5,0.4,2.3,0.7,2.9c0.2,0.3,0.6,0.7,0.6,1.1s-0.7,0.8-0.9,1.1s-0.4,0.8-0.9,1.1
			c-0.5,0.3-1.1,0.6-1.8,0.7c-0.8-0.1-1.2-2.4-1.2-3c-0.1-1.6,0.4-4,2.4-4"/>
		<path class="st1" d="M239.4,47.5c-5.4,9.9-3.3,21.3-3.2,21.4c1.1,0.2,2.3,0.1,3.4-0.1c-0.9-3.2-1-6.5-0.3-9.8
			c1.5,0.7,3.1,1.1,4.7,0.9c0.4-0.9,0.6-1.8,0.8-2.7c-3.8-0.3-5-1.5-5-1.5c0.1-1.4,0.5-2.7,1.1-3.9C250.1,55.5,257,53,257,53
			l-0.6-2.8C250.6,51.1,244.6,50.2,239.4,47.5"/>
		<path class="st1" d="M259.1,57.4c0,0-0.6,5.8-0.2,7.2c0.5,1.7,2.1,0.8,2.6-0.5c1.2-3.8,0.5-13.4,0.5-13.4l2.2,0.1
			c0,0,1.9,16.2-4,17.3c-1.3,0.3-2.6-0.4-3.1-1.6c-0.9-1.8-1-7.9-1-7.9L259.1,57.4z"/>
		<path class="st1" d="M282.3,49.2c-2-0.4-4.1,0.3-5.6,1.7c-1.7,1.4-2.2,3.7-1.2,5.7c1.3,2.5,5.6,4.5,8.3,3.5
			C288.9,58.3,286.9,50.2,282.3,49.2 M284.1,55.5c-0.5,1.8-2.1,2.5-4.1,1.9s-2.5-4.7-0.5-5.2S285,52.8,284.1,55.5"/>
		<path class="st1" d="M242.7,76.9l5.6,3.2l-2.9-4.8l2.3-0.8c0.1,0,5,8.6,5,8.6l-1.5,1.4c0,0-6.4-4.1-6.4-4l6.1,5.2
			c-0.5,0.5-1,1-1.6,1.5c-3.2-1.9-7.6-5.8-9.1-8.7C240.5,78.3,242.7,76.9,242.7,76.9"/>
		<path class="st1" d="M254.2,79.4c1.8-0.3-0.7-7.8-0.7-7.8l1.7-0.5c0,0,1.8,6.8,1.5,8.5c-0.2,1.3-1.4,2.1-2.7,1.9
			c-0.2,0-0.4-0.1-0.6-0.2c-1.5-0.7-3.3-4.4-3.3-4.4s-0.7-1.5-1.1-2.6l1.9-0.8C251,73.6,252.6,79.7,254.2,79.4"/>
		<path class="st1" d="M270.4,71.6c0-1.5-1.3-2.7-2.8-2.6c-0.2,0-0.3,0-0.5,0.1c-1.5,0.2-2.6,1.6-2.4,3.1c0,0,0,0.1,0,0.1
			c0.3,1.7,1.5,2.5,3.4,2.3c2.1-0.2,3,2.3,1,3c-2.4,0.9-2-2.4-2-2.4h-1.9c0,0-0.1,2.6,1.4,3.6c3.9,2.6,7.8-3.5,3.7-5.4
			c-1.1-0.5-3.7,0.4-3.9-1.2s1.9-2,2.7-0.5L270.4,71.6"/>
		<path class="st1" d="M275,67.7l3.6,7.9c0.7-0.2,1.3-0.4,1.9-0.8c-0.1-0.2-1.5-4.2-2-5.9s1.6-3.4,3-3.2c-0.2-0.7-0.6-1.9-0.6-1.9
			c-2.2,0.1-4,1.8-4.1,4l-0.5-0.8L275,67.7z"/>
		<path class="st1" d="M255.3,81.9c-2.6,1.4-3.8,2.9-3.9,5.4c-0.1,3.4,2.6,9.6,6.3,10.4c3.4,0.7,6.6-1.5,7.3-4.9
			c0-0.1,0-0.2,0.1-0.3c-0.7-0.1-2.3-0.5-3-0.6c-0.5,2-1.6,3-3.5,2.8c-2.4-0.2-3-2.8-3.7-4.9s-0.3-3.2,1.2-4.4
			c1.3-0.9,3.1-0.9,4.4,0c0.8-0.5,1.6-1.1,2.4-1.7C261.5,82.1,259.1,80.4,255.3,81.9"/>
		<path class="st1" d="M263,82.4l4.2,13.6l2.4-1.3c0,0-2.1-7.8-4.3-13.2C265.1,81.6,263,82.4,263,82.4"/>
		<path class="st1" d="M268.4,80.3c0,0.2,2.2,10,4.3,9c1.7-0.8-2.4-9-2.5-9.4l2.2-0.9c0,0,2.1,4.7,2.6,6.2c0.7,2,1.6,3.7,0.3,5.3
			c-1.2,1.4-3.3,2.5-5,0.9s-3.9-8.9-4.4-10.2L268.4,80.3z"/>
		<path class="st1" d="M277.6,60.5c-3.1,1.1-5.1,0.1-6.3-5.5c0.4-0.4,1.4-1.4,2.9-3.3c1.9-2.3,1.7-10-2.9-7.7
			c-2.7,1.5-4.9,3.8-6.1,6.7c0.7,2.8,1,5.6,0.9,8.5c0,2.2-0.4,6.9-0.4,6.9l2.9-0.6c0,0,0.3-7.7,0.2-9.6c0,0.3,0.8,4,2.7,5.9
			c1.5,1.5,4.4,1.5,6,0.9C277.7,62.2,277.6,60.9,277.6,60.5 M268.9,53.5c0,0-0.5-3.1-0.5-3.2c0.8-2.1,2.8-4,3.8-3.7s0.7,2.5,0.6,3.4
			C272.5,51.9,268.9,53.5,268.9,53.5"/>
		<path class="st1" d="M264.5,75.2c0,0-0.9,0.2-1.5,0.3c0.2,0.7,0.1,4-1.6,3.5c-2.5-0.5-2.9-3.9-2.9-3.9l5.8-1.3
			c-0.2-2.1-2-3.7-4.1-3.5c0,0-0.1,0-0.1,0c-1.6,0.2-2.9,1.3-3.3,2.8c-0.9,3.1,1.9,7.8,5,7.5C265.6,80.3,264.5,75.2,264.5,75.2
			 M260,72.1c1-0.2,2,0.1,2.6,0.9l-4.3,1C258.5,73,259.1,72.3,260,72.1"/>
		<path class="st1" d="M286.6,61c-5.5-0.2-4.8,4.2-4.8,4.2l1.7,0.2c0,0,0.1-1.8,0.9-2.4c2.1-1.5,3.5,1.1,0.9,3.1
			c-1.1,0.8-2.5,1-3.3,3c-0.5,1.4,0.2,2.9,1.6,3.5c0.4,0.1,0.8,0.2,1.2,0.1c1.9-0.2,3.3-1.8,3.4-3.7c0,0.2,0.3,1.3,0.4,1.5
			c0.5-0.2,1-0.5,1.5-0.9C288,66,289.8,61.4,286.6,61 M285,71.3c-1.2,0.5-1.9-0.3-1.7-1.5s2.5-1.7,3.6-3
			C287,68.7,286.1,70.8,285,71.3"/>
		<path class="st1" d="M281.6,80.8c-1-2.6-5.1-5.7-8.2-2.4l4,10.8C281.1,88.4,282.8,83.7,281.6,80.8 M278.6,86.2l-2.5-6.7
			c0,0,2.1-1.1,3.4,1.8C280.3,83,279.9,85,278.6,86.2"/>
		<path class="st1" d="M292.7,73.6c-2-2.8-7.8-0.1-7.8-0.1l4.8,7C292.6,79.7,295.2,76.8,292.7,73.6 M290.7,78.4l-3-4.3
			c0,0,3-1.2,4.1,1.1c0.6,1.1,0.3,2.4-0.8,3C291,78.3,290.8,78.3,290.7,78.4"/>
		<path class="st1" d="M244.2,67.1c-2.5,0.9-2-4.8-1.7-6.4c-0.6-0.1-2.7-0.3-2.7-0.3c-0.4,2.1-0.3,4.3,0.1,6.5
			c0.5,2.2,2.5,3.2,5.2,2.5c4.6-1.1,4-7.8,4.2-10.6c-1.1-0.1-2.2-0.3-3.3-0.6C245.9,60.6,246.6,66.3,244.2,67.1"/>
		<path class="st1" d="M259.8,52.1c-2.4,2.7-5.7,3-10.5,3c-0.1,1.1-0.3,2.5-0.3,3c1.1,0.1,2.1,0.1,3.2,0.1c0,3.4-0.3,6.8-1.1,10.1
			c0,0,1.8-0.1,2.5-0.1c0.9-3.5,1.3-7,1.3-10.6c2.5-0.3,4.8-1.7,6.2-3.8C261.2,53.9,260.1,52.5,259.8,52.1"/>
		<path class="st1" d="M275.7,66.6l-0.2-1.7c0,0-2.4,0.8-3.2,0.9l-1-3.8l-1.6,0.2l1,4.3l-2.4,0.8l0.3,1.6c0,0,1.2-0.3,2.4-0.7
			c0.5,2.9,1.3,6,1.5,7.3c0,0.2,0.1,0.3,0.1,0.4c0.3,2.1,3.5,0.6,3.5,0.6l-0.3-1.7l-1.7,0.4l-1.5-7.4L275.7,66.6z"/>
		<path class="st1" d="M287.8,82.7l1.5-1.2l-5.5-8l-2.8,1.5l2.2,10.9l1.9-1.3l-1.1-5.6l1.1-0.6L287.8,82.7z M283.2,77.7l-0.4-2
			l0.7-0.5l0.9,1.8L283.2,77.7z"/>
		<path class="st1" d="M241.9,71.8c-0.7-2.5-2.7-2.8-5.6-1.1c0.4,2.6,1.4,5.1,3.1,7.2l1.4-0.7c-0.7-0.7-1.2-1.5-1.6-2.4
			C239.1,74.9,242.5,74.3,241.9,71.8 M238.7,73.7l-0.9-2.2c0.8-0.4,2.1-1.1,2.8,0.5C241.2,73.3,238.7,73.7,238.7,73.7"/>
		<path class="st1" d="M245,70.5c-2.3-0.2-2.2,1.6-2.2,1.6l0.7,0.2c0,0,0.1-0.8,0.4-1c0.9-0.6,1.4,0.6,0.3,1.3
			c-0.5,0.3-1.1,0.3-1.5,1.2c-0.3,0.6,0,1.2,0.6,1.5c0.2,0.1,0.4,0.1,0.5,0.1c0.8,0,1.5-0.7,1.6-1.5c0,0.1,0.1,0.6,0.1,0.7
			c0.2-0.1,0.4-0.2,0.6-0.3C246,72.3,246.3,70.7,245,70.5 M244.1,74.6c-0.5,0.2-0.8-0.2-0.7-0.7s1.1-0.6,1.6-1.2
			C245.1,73.5,244.7,74.1,244.1,74.6"/>
		<path class="st1" d="M249.4,69.9c-1.8-0.4-1.9,1-1.9,1l0.3,2.8l-0.9,0.3l-0.5-3.9l0.7-0.4l0.1,0.3c0.4-0.7,1.2-1.1,2.1-1
			L249.4,69.9z"/>
		<path class="st1" d="M251.7,69.2c-0.7-0.3-1.6,0.1-1.9,0.8c-0.1,0.2-0.1,0.4-0.1,0.6l0.7-0.2c0,0,0-0.5,0.4-0.7
			c0.8-0.4,1.1,0.6,0.1,1.1c-0.5,0.2-0.9,0.2-1.4,0.8c-0.2,0.5-0.1,1.1,0.4,1.3c0.1,0,0.2,0.1,0.3,0.1c0.7,0.1,1.3-0.4,1.4-1
			c0,0.1,0,0.5,0,0.6c0.2,0,0.4-0.1,0.6-0.2C252.3,70.9,252.8,69.6,251.7,69.2 M250.6,72.5c-0.4,0.1-0.5-0.2-0.4-0.5
			s0.8-0.3,1.2-0.7C251.3,71.8,251,72.2,250.6,72.5"/>
		<path class="st1" d="M297.2,58c0.3,0.4,0.1,1-0.3,1.3c0,0,0,0,0,0c-0.4,0.3-0.7,0.2-1.1,0.2c-0.5,0.1-1,0.1-1.5,0
			c-0.3-0.1-0.7-0.1-1.1,0c-0.2,0.1-0.4,0.3-0.6,0.5c-0.1,0.2-0.1,0.4,0,0.6c0,0.1,0,0.2,0,0.3c0,0.1-0.1,0.3-0.1,0.5
			c0,0.2,0.1,0.4,0.2,0.6c0.1,0.2,0.2,0.5,0.3,0.7c0.1,0.3-0.1,0.7,0,1s0.2,0.2,0.3,0.3s0.1,0.4,0.2,0.6c0.3,0.2,0.6,0.4,0.9,0.5
			c0.4,0.1,0.8-0.2,1.2-0.3c0.3-0.1,0.6-0.2,0.9-0.4c0.2-0.1,0.4-0.1,0.6-0.2c0.1-0.1,0.2-0.3,0.4-0.4c0.4-0.3,1-0.3,1.4-0.7
			c0.2-0.2,0.3-0.4,0.5-0.6s0.6-0.3,0.7-0.7s0-0.3,0.2-0.4s0.6-0.2,0.7-0.5c0.1-0.4,0-0.7-0.1-1.1c-0.1-0.2-0.4-0.3-0.5-0.5
			c0-0.2,0-0.4,0-0.6c0-0.2,0-0.3,0-0.5c-0.1-0.2-0.5-0.3-0.7-0.3c-0.6-0.1-1.1-0.1-1.7,0"/>
		<path class="st1" d="M273.5,40.1c-0.1,0.2-0.2,0.4-0.2,0.6c0,0.2-0.1,0.3-0.1,0.5c0,0.2,0.1,0.4,0.2,0.5c0.7,0.3,1.3,0.7,1.9,1.2
			c0.3,0.4,0.6,0.8,0.7,1.3c0.1,0.3,0.5,0.5,0.9,0.4c0.1,0,0.1-0.1,0.2-0.1c0.1-0.1,0.3-0.2,0.5-0.3c0.4-0.2,0.4-0.4,0.6-0.8
			c0.2-0.5,0.8-0.5,1.2-0.8c0.8-0.4,1.6-0.7,1.7-1.7c0-0.5-0.1-1.3-0.6-1.5c-0.2-0.1-0.7-0.3-0.8,0"/>
		<path class="st1" d="M290.3,44.2c-0.4,0-0.9,0.6-1.1,0.9c-0.1,0.2-0.2,0.5-0.3,0.7c-0.2,0.2-0.3,0.3-0.5,0.5
			c-0.5,0.4-0.9,0.9-1.3,1.3c-0.4,0.6,0.3,0.9,0.5,1.4s0.3,0.4,0.6,0.6s0.4,0.8,0.7,1.1c0.3,0.4,0.6,0.8,0.8,1.3
			c0.2,0.4,0.3,0.9,0.3,1.3c0.2,0,0.5-0.3,0.7-0.5c0.2-0.3,0.4-0.5,0.7-0.8c0.2-0.2,0.5-0.3,0.7-0.5c0.4-0.3,0.7-0.6,1-1
			c0.4-0.4,0.9-0.8,1.4-1.1c0.4-0.2,0.7-0.5,1-0.9c0.1-0.4,0.2-0.7,0.3-1.1c0.2-0.9-0.2-1.9-1-2.5c-0.2-0.2-0.9-0.6-1.2-0.3"/>
		<path class="st1" d="M242,23.1c0.3-0.5,0.3-1,0.9-1.4c0.5-0.4,1.2-0.7,1.8-0.7c1.5-0.2,2.9,0.5,3.8,1.8c1,1.2,1,2.8,0.9,4.3
			c0,0.6,0,1.3-0.1,2s-0.5,1-0.9,0.3c-0.6-1.2-0.6-3-2-3.5c-0.9-0.4-1.8,1.1-2.3,0.1c-0.2-0.5-0.9-2.5-1.7-2.2s0.4,2.6-1.1,1.8
			c-0.1-2.2,1.1-5.3,3.8-4.1"/>
		<path class="st1" d="M247.9,26.3c-0.3-0.5-1-0.7-1.6-0.4c0,0-0.1,0.1-0.1,0.1c-0.3,0.5-0.4,1.2-0.4,1.8c0,0.4-0.1,0.9-0.4,1.2
			c-0.8,0.8-1.8-0.1-2.3-0.7c-0.6-0.7-1.1-1.5-1.4-2.4c-0.2-0.8-0.1-1.6,0.3-2.3c0.8-1.2,3.2-0.7,4,0.2c0.4,0.5,0.8,1,1.1,1.5"/>
		<path class="st1" d="M13.3,42.6h8c1.9-0.1,3.8,0.1,5.7,0.6c1.3,0.4,2.3,1.2,3,2.4c0.8,1.2,1.2,3.1,1.2,5.8
			c0.1,1.3-0.2,2.6-0.9,3.8c-0.9,0.9-2.1,1.5-3.3,1.6c1.5,0.2,2.8,0.9,3.8,2.1c0.8,1.4,1.1,2.9,1,4.4V66c0.1,1.6-0.2,3.1-0.7,4.6
			c-0.4,1-1.3,1.7-2.3,2c-2.1,0.5-4.2,0.7-6.4,0.6h-9.2V42.6z M21.3,47.8v6.8H22c0.8,0,1.3-0.2,1.5-0.6c0.3-1.1,0.4-2.2,0.3-3.3
			c0-0.7-0.1-1.4-0.3-2c-0.1-0.3-0.4-0.6-0.7-0.7C22.3,47.9,21.8,47.9,21.3,47.8 M21.2,59.4V68c0.8,0.1,1.5-0.1,2.1-0.5
			c0.4-0.7,0.6-1.5,0.5-2.3v-2.9c0.1-0.8,0-1.6-0.4-2.4C22.7,59.5,22,59.3,21.2,59.4"/>
		<rect x="34.7" y="42.6" class="st1" width="8" height="30.6"/>
		<path class="st1" d="M64.4,56h-8v-5.4c0.1-1,0-2-0.3-2.9c-0.2-0.4-0.5-0.6-1.1-0.6c-0.5-0.1-1,0.2-1.2,0.7c-0.2,1-0.3,2-0.3,3
			v14.3c0,1,0.1,1.9,0.3,2.9c0.4,0.6,1.2,0.9,1.9,0.5c0.2-0.1,0.4-0.3,0.5-0.5c0.2-1.1,0.3-2.1,0.3-3.2V61h8v1.2
			c0.1,2.3-0.1,4.5-0.7,6.8c-0.6,1.5-1.6,2.7-3,3.5c-1.7,1-3.7,1.6-5.7,1.5c-2,0.1-4-0.4-5.8-1.3c-1.4-0.7-2.5-2-3-3.5
			c-0.6-2.2-0.8-4.5-0.7-6.7v-9c0-1.7,0-3.3,0.2-5c0.2-1.2,0.6-2.3,1.3-3.2c0.8-1.1,1.9-1.9,3.1-2.4c1.5-0.6,3-0.9,4.6-0.8
			c2-0.1,4,0.4,5.8,1.4c1.4,0.7,2.4,1.9,3,3.4c0.6,2,0.8,4.1,0.7,6.2V56z"/>
		<rect x="67.3" y="42.6" class="st1" width="8" height="30.6"/>
		<path class="st1" d="M97.4,42.6l-4,30.6H81.2l-4.6-30.6H85c1,8.4,1.7,15.6,2.1,21.4c0.4-5.9,0.8-11.1,1.3-15.7l0.6-5.7H97.4z"/>
		<rect x="98.7" y="42.6" class="st1" width="8" height="30.6"/>
		<polygon class="st1" points="117.9,42.6 117.9,67.1 122.7,67.1 122.7,73.2 109.9,73.2 109.9,42.6 		"/>
		<path class="st1" d="M132.6,73.2h-8V42.6h8V73.2z M135.1,36.5l-6.2,5.1H125l3.3-5.1H135.1z"/>
		<polygon class="st1" points="149.1,42.6 149.1,48.7 143.2,67.1 149.1,67.1 149.1,73.2 134.4,73.2 134.4,68.8 140.6,48.7 
			135.1,48.7 135.1,42.6 		"/>
		<path class="st1" d="M165.7,42.6l4.6,30.6h-8.1l-0.4-5.5h-2.9l-0.5,5.5h-8.2l4.1-30.6H165.7z M161.5,62.3
			c-0.4-3.5-0.8-7.8-1.2-12.9c-0.8,5.9-1.3,10.2-1.5,12.9H161.5z"/>
		<polygon class="st1" points="185.6,42.6 185.6,48.7 180.8,48.7 180.8,73.2 172.9,73.2 172.9,48.7 168.1,48.7 168.1,42.6 		"/>
		<polygon class="st1" points="187.4,42.6 200.6,42.6 200.6,48.7 195.3,48.7 195.3,54.5 200.3,54.5 200.3,60.4 195.3,60.4 
			195.3,67.1 201.2,67.1 201.2,73.2 187.4,73.2 		"/>
		<polygon class="st1" points="88.5,80.2 89.8,80.1 89.9,80.1 89.9,91 89.8,91.1 88.6,91.1 88.6,91 88.6,83.5 88.6,82.4 88.2,83.3 
			85.5,88 85.4,88.1 84.3,88.1 84.2,88 81.5,83.3 81.2,82.4 81.2,83.5 81.2,91 81.1,91.1 79.9,91.1 79.8,91 79.8,80.3 79.9,80.2 
			81.1,80.1 81.2,80.1 84.9,86.7 88.4,80.3 		"/>
		<polygon class="st1" points="94.4,91 94.4,91.1 93.2,91.1 93.1,91 93.1,80.3 93.2,80.2 94.4,80.1 94.4,80.1 		"/>
		<path class="st1" d="M104.4,88.4l1.1,0.4v0.1c-0.5,1.5-2,2.3-3.9,2.3c-2.6,0-4.2-1.3-4.2-4V84c0-2.6,1.6-4,4.2-4
			c1.6-0.1,3.1,0.8,3.8,2.2v0.1l-1.1,0.4h-0.1c-0.5-0.9-1.5-1.5-2.5-1.5c-1.5-0.1-2.7,1-2.9,2.4c0,0.1,0,0.3,0,0.4v3
			c-0.1,1.4,0.9,2.7,2.3,2.8c0.2,0,0.3,0,0.5,0c1.1,0.1,2.2-0.5,2.7-1.5L104.4,88.4z"/>
		<polygon class="st1" points="109.1,91.1 107.9,91.1 107.9,91 107.9,80.3 107.9,80.2 109.1,80.1 109.2,80.1 109.2,84.7 115,84.7 
			115,80.3 115.1,80.2 116.3,80.1 116.4,80.1 116.4,91 116.3,91.1 115.1,91.1 115,91 115,86 109.2,86 109.2,91 		"/>
		<path class="st1" d="M119.2,87.3V84c0-2.6,1.6-4,4.2-4s4.2,1.4,4.2,4v3.3c0,2.6-1.6,4-4.2,4S119.2,90,119.2,87.3 M120.5,84.1v3
			c0,1.6,1.3,2.9,2.9,2.9c1.6,0,2.9-1.3,2.9-2.9v-3c0-1.6-1.3-2.9-2.9-2.9C121.8,81.2,120.5,82.5,120.5,84.1"/>
		<path class="st1" d="M138.2,91L138.2,91l-1.5,0.1l-0.1-0.1l-0.8-2.6h-4.4l-0.8,2.6l-0.1,0.1H129V91l3.8-10.7l0.1-0.1l1.4-0.2
			l0.1,0.1L138.2,91z M131.8,87.1h3.6l-1.7-5l-0.2-0.7l-0.2,0.7L131.8,87.1z"/>
		<path class="st1" d="M146.7,88.4l1.1,0.4l0.1,0.1c-0.5,1.5-2,2.3-4,2.3c-2.6,0-4.2-1.3-4.2-4V84c0-2.6,1.6-4,4.2-4
			c1.6-0.1,3.1,0.8,3.8,2.2l-0.1,0.1l-1.1,0.4h-0.1c-0.5-0.9-1.5-1.5-2.6-1.5c-1.5-0.1-2.7,1-2.8,2.5c0,0.1,0,0.2,0,0.3v3
			c-0.2,1.4,0.9,2.7,2.3,2.9c0.2,0,0.4,0,0.5,0c1.1,0.1,2.2-0.5,2.7-1.5L146.7,88.4z"/>
		<path class="st1" d="M158,91L158,91l-1.5,0.1l-0.1-0.1l-0.8-2.6h-4.4l-0.9,2.6l-0.1,0.1h-1.5l-0.1-0.1l3.8-10.7l0.1-0.1l1.4-0.2
			l0.1,0.1L158,91z M151.6,87.1h3.6l-1.7-5l-0.1-0.7l-0.2,0.7L151.6,87.1z M153.4,79.2h-0.1l-0.8-0.3v-0.1l1-1.7l0.1-0.1h1.8
			l0.1,0.1L153.4,79.2z"/>
		<polygon class="st1" points="166.8,80.3 166.8,80.2 168,80.1 168.1,80.1 168.1,91 168,91.1 166.9,91.1 166.8,91 161.5,83 
			161,82.2 161,83.2 161,91 161,91.1 159.8,91.1 159.7,91 159.7,80.3 159.8,80.2 161,80.1 161.1,80.1 166.3,88 166.8,88.8 
			166.8,87.8 		"/>
		<path class="st1" d="M183.5,91L183.5,91l-1.5,0.1l-0.1-0.1l-0.8-2.6h-4.4l-0.8,2.6l-0.1,0.1h-1.5V91l3.8-10.7l0.1-0.1l1.4-0.2
			l0.1,0.1L183.5,91z M177.1,87.1h3.6l-1.7-5l-0.2-0.7l-0.2,0.7L177.1,87.1z"/>
		<polygon class="st1" points="186.3,91.1 184.8,91.1 184.8,91 184.8,89.5 184.8,89.4 186.3,89.4 186.4,89.5 186.4,91 		"/>
		<path class="st1" d="M195.5,88.4l1.1,0.4v0.1c-0.5,1.5-2,2.3-4,2.3c-2.6,0-4.2-1.3-4.2-4V84c0-2.6,1.6-4,4.2-4
			c1.6-0.1,3.1,0.8,3.8,2.2l-0.1,0.1l-1.1,0.4h-0.1c-0.5-0.9-1.5-1.5-2.6-1.5c-1.5-0.1-2.7,1-2.9,2.4c0,0.1,0,0.3,0,0.4v3
			c-0.1,1.4,0.9,2.7,2.4,2.8c0.2,0,0.4,0,0.6,0c1.1,0.1,2.2-0.5,2.7-1.5L195.5,88.4z"/>
		<polygon class="st1" points="200.1,91.1 198.6,91.1 198.6,91 198.6,89.5 198.6,89.4 200.1,89.4 200.2,89.5 200.2,91 		"/>
		<rect x="218.5" y="24" class="st1" width="1.5" height="78.4"/>
		<path class="st1" d="M271.2,40.3C271.3,40.3,271.3,40.3,271.2,40.3"/>
		<path class="st1" d="M289.2,26.3c0,0.2,0.3,0.2,0.5,0.3C289.9,26.2,289.1,26.2,289.2,26.3"/>
		<path class="st1" d="M305.1,41.2c0.1,0,0.1-0.2,0.1-0.3l-0.4,0.4L305.1,41.2z"/>
		<path class="st1" d="M305.9,41.1c0.1-0.1,0.2-0.1,0.3,0l0.6-0.4C306.4,40.8,306,40.2,305.9,41.1"/>
		<polygon class="st1" points="303.7,36.4 302.8,37.2 303.1,37 		"/>
		<path class="st1" d="M302.1,41c0.1-0.2,0.2-0.6,0.5-0.6c-0.1-0.3-0.2,0.2-0.7-0.2C302.5,40.5,301.5,40.7,302.1,41"/>
		<path class="st1" d="M303.1,39.8c0.5-0.1,0.9,0.5,1,0.8l0.2-0.1c-0.1,0-0.2-0.1-0.2-0.1c-0.2-0.5,0.2-0.8,0.6-1l-0.2-0.3
			c-0.6,0.3-1.3,0.3-1.8,0c-0.1,0.2-0.1,0.5-0.3,0.5l0.9-0.2C303.2,39.5,303.2,39.8,303.1,39.8"/>
		<polygon class="st1" points="304.2,41.5 304.3,41.6 304.6,41.4 304.5,41.3 		"/>
		<path class="st1" d="M301.4,41.2c0.5,0,0.3,0.4,0.6,0.6c0.1-0.2,0-0.4,0.2-0.5C301.9,41.4,301.6,40.9,301.4,41.2"/>
		<path class="st1" d="M303.3,42.3l0.3-0.2c-0.1,0.1-0.1,0-0.3,0.1L303.3,42.3z"/>
		<path class="st1" d="M293.9,47.1c-0.4,0-0.1,0.2-0.1,0.4C293.9,47.4,293.9,47.3,293.9,47.1"/>
		<path class="st1" d="M292.1,49.1c0.3-0.7,1.2-0.8,1.6-1.5c-0.7,0.4-1.4,0.9-2,1.4L292.1,49.1z"/>
		<polygon class="st1" points="301,42.2 301.5,42.1 300.5,42 		"/>
		<path class="st1" d="M292.8,49.1l0.3-0.5l-1.9,1.5c0.4-0.3,1.5-0.1,2-0.7L292.8,49.1z"/>
		<polygon class="st1" points="293.4,51.1 294.2,50.6 294.1,50.4 293.3,51 		"/>
		<path class="st1" d="M298.9,59.9c0,0.1,0,0.2,0,0.3l0.4-0.3L298.9,59.9z"/>
		<path class="st1" d="M290.3,45.7c0.2-0.3,1,0.2,0.6-0.7L290.3,45.7z"/>
		<path class="st1" d="M301.3,40.2c0.2,0.3,0.4-0.2,0.6,0l0.2-0.4C301.8,39.9,301.5,39.8,301.3,40.2"/>
		<polygon class="st1" points="324.3,44.6 324.2,45 324.6,44.9 		"/>
		<path class="st1" d="M322.8,44.3c0-0.2,0.3-0.2,0.4-0.4c-0.5-0.5-1.1,0.1-1.3-0.2C321.8,43.9,322.7,43.9,322.8,44.3"/>
		<path class="st1" d="M322.9,47.5c0-0.1,0.1-0.3,0.1-0.4C322.8,47.2,322.7,47.3,322.9,47.5"/>
		<path class="st1" d="M299.8,40.2c0.1-0.1,0.3-0.2,0.3-0.3l-0.2-0.1C300,39.8,299.9,40,299.8,40.2"/>
		<path class="st1" d="M300.7,21.5l0.4-0.3l-0.1-0.2c-0.2,0-0.4,0-0.5,0.1C300.7,21.2,300.6,21.5,300.7,21.5"/>
		<polygon class="st1" points="324.2,46.9 323.9,47.5 324.2,47.5 		"/>
		<polygon class="st1" points="323.8,44.9 323.3,45.1 323.4,45.1 		"/>
		<path class="st1" d="M321.8,45.1c0,0,0,0.1,0,0.2l0.2,0.1L321.8,45.1z"/>
		<polygon class="st1" points="307.9,56 307.4,56.5 308.1,56.2 		"/>
		<polygon class="st1" points="318.4,48.7 319.1,49 318.8,48.6 		"/>
		<path class="st1" d="M307.4,57.2l-0.1,0.2l-0.1-0.1l-0.2,0.3C307.2,57.5,307.5,57.4,307.4,57.2"/>
		<path class="st1" d="M309,53.8c0.7-1.4,0.5,0.5,0.9,0.7c0.4,0,0.8,0.6,1,0.2c-0.8-0.4-0.1-1.2-1-1.6c0.3-0.2,0.6-0.7,1.1-0.5V53
			c0.3-0.3,0.6,0.3,0.7-0.4l0.4,0.1l-0.2-0.5c-0.4,0.2-1-0.7-1.1,0c-0.8,0-1.4,1.2-2,1.4l1,0.8L309,53.8z"/>
		<polygon class="st1" points="318.6,46.3 318.5,46.5 318.8,46.6 318.6,46.5 		"/>
		<path class="st1" d="M309.3,55.4c0.1,0.3,0.4-0.4,0.6-0.3V55L309.3,55.4z"/>
		<path class="st1" d="M318.8,45.4l-0.2-0.3l-0.3,0.3C318.5,45.4,318.6,45.6,318.8,45.4"/>
		<path class="st1" d="M319.8,45.4c0.1-0.2,0.6-0.2,0.7-0.3l-0.5,0c0.1-0.2,0-0.4,0-0.7l-0.5,0.2C319.6,44.6,319.7,45.2,319.8,45.4"
			/>
		<path class="st1" d="M243.2,28.3c0,0.1,0.1,0.3,0.1,0.4C243.3,28.6,243.4,28.3,243.2,28.3"/>
		<path class="st1" d="M244,47.6L244,47.6L244,47.6L244,47.6"/>
		<path class="st1" d="M244.2,48.1l-0.2-0.5l0,0C244.1,47.8,243.9,48.1,244.2,48.1"/>
		<polygon class="st1" points="244.5,37.7 244.1,37.6 244.2,37.9 		"/>
		<polygon class="st1" points="277.3,39.2 277.3,39.1 276.6,39.6 276.6,39.7 		"/>
		<path class="st1" d="M243.4,39.2c-0.8-0.1-1.2-0.6-1.9-0.4C242,39,242.9,39.4,243.4,39.2"/>
		<path class="st1" d="M300.1,21.4c-0.1,0.1-0.2,0.3-0.3,0.4C300.2,21.9,300,21.7,300.1,21.4"/>
		<path class="st1" d="M279.4,38.6c-0.2,0.2-0.4,0.5-0.2,0.6L279.4,38.6z"/>
		<path class="st1" d="M241.8,47.6l1.1-0.5l-0.1-0.2C242.2,46.7,242,47.5,241.8,47.6"/>
		<polygon class="st1" points="242.1,44 242.1,44.2 242.3,44.4 		"/>
		<polygon class="st1" points="242.3,45.3 241.9,45.3 242.4,45.5 		"/>
		<path class="st1" d="M242.7,46.5l-1.9-0.3c0.6,0.2,1.1,0.4,1.8,0.4L242.7,46.5z"/>
		<path class="st1" d="M244.6,23c0.3,0.3,0.1,0.7,0.2,1c0.2-1.2,0.9,0.4,1.4-0.6c-0.5-0.4-1.6,0.5-1.4-0.7c-0.4,0.5-1-0.3-0.9,0.5
			C244.1,23.1,244.3,22.8,244.6,23"/>
		<path class="st1" d="M288.5,29.3l-0.2-0.3c0,0.1-0.3,0.1-0.1,0.4L288.5,29.3z"/>
		<path class="st1" d="M288.7,30.7c-0.7-0.4-0.9,0.8-0.7,1C287.8,31.3,289,31.5,288.7,30.7"/>
		<path class="st1" d="M291.8,28.7l0.1-0.4H291l0.1,0.5C291.3,28.6,291.8,28.3,291.8,28.7"/>
		<path class="st1" d="M287.3,29.4l-0.4,0.9l0.6,0.1C287.4,30.2,287.7,29.4,287.3,29.4"/>
		<polygon class="st1" points="298.9,22.6 299.2,22.5 299.1,22.1 298.7,22 		"/>
		<path class="st1" d="M279.8,38.4c-0.1,0-0.3,0-0.4,0.2c0.1,0.1,0.3,0,0.4,0.1L279.8,38.4z"/>
		<path class="st1" d="M298.5,21.4l0.2-0.1c-0.5-0.3-0.5-0.8-0.6-0.7C298,20.9,298.2,21.3,298.5,21.4"/>
		<path class="st1" d="M280.4,38.7c0.1,0.3,0.1,1.1-0.4,0.8c0.1,0.1,0.1,0.3,0.3,0.3c-0.1-0.3,0.3-0.5,0.6-0.3
			c0.1,0.1-0.2,0.1-0.3,0.2l0.2,0.1l-0.5,0.5c0.6-0.5,1.1-1.1,1.4-1.8l-0.4-0.1c-0.3-0.4,0.2-0.4,0.2-0.6c-0.1,0.1-0.1,0-0.1-0.2
			l-0.5,0.6l-0.8-0.4l0.6,0.6c-0.4,0.2-1.2,0.6-0.9,0.9C280,39.1,280.5,39,280.4,38.7"/>
		<path class="st1" d="M286.4,30.4H286l0.2,0.5C286.3,30.9,286.2,30.6,286.4,30.4"/>
		<path class="st1" d="M279.8,37.3c-0.1,0.1-0.5,0.5-0.3,0.3L279.8,37.3z"/>
		<path class="st1" d="M282.2,37l-0.2,0.3C282.2,37.3,282.4,37.3,282.2,37"/>
		<path class="st1" d="M281.3,40.5c0-0.1,0-0.3,0.1-0.4l-0.1-0.1C281.5,40.5,280.9,40.2,281.3,40.5"/>
		<path class="st1" d="M282.4,38.4c0.2,0.5-0.4,0.4-0.4,0.8c0.1-0.1,0.9-0.6,1-1.2c-0.2-0.1-0.3,0.6-0.6,0.1
			c0.1-0.1-0.1-0.3,0.1-0.4c0-0.2-0.2,0-0.3,0.1C281.8,38,282.4,38.2,282.4,38.4"/>
		<path class="st1" d="M281.8,40.6l-0.4,0.6h0.2C282.2,41.2,281.8,40.8,281.8,40.6"/>
		<path class="st1" d="M305.2,39.4c-0.1,0.4-0.7,0.1-0.6,0.7c0.3-0.2,0.8-0.6,1.2-0.3l-0.4-0.4c0-1.2,0.9,0.3,1.2-0.6
			c0.4-0.4-0.1-0.7-0.3-1.2c-1-0.7-0.5,1.1-1.5,0.6c0.1-0.6-0.6-0.3-0.8-0.4l-0.1,0.7C304.4,38.4,305.5,38.5,305.2,39.4"/>
		<path class="st1" d="M302.7,72.7c0.1,0.6-0.5,1.4,0.1,1.6C302.7,73.7,302.9,73.2,302.7,72.7"/>
		<path class="st1" d="M297.2,74.2c0.2,0.1,0.2,0,0.3-0.1l-0.1-0.2L297.2,74.2z"/>
		<path class="st1" d="M296,76.4l0.5,0.1c0.3-0.2,0.2-0.6,0.4-0.8C296.6,75.7,296,76,296,76.4"/>
		<path class="st1" d="M306.5,72.7l0.4,0.2l0.3-0.9C306.7,71.9,306.6,72.5,306.5,72.7"/>
		<path class="st1" d="M293.8,47.6C293.8,47.6,293.8,47.6,293.8,47.6L293.8,47.6L293.8,47.6"/>
		<path class="st1" d="M285.6,32.1c0.4,0.4,0.8,1,1,1.5c0.1,0.1,1,0.3,1.3,0.1c-0.2-0.9,1.4-0.2,1.1-1.2c0.2-0.2,0.6-0.2,0.8,0
			c0,0,0.1,0.1,0.1,0.1c0.3-0.7,1.3-1.2,1.5-1.9l0.4,0.1c0.6-0.9,1.4-1.7,2.2-2.4l0.2-1.5c-0.7-0.3-0.4-0.6-1-1.2
			c-0.4-0.2-0.9-0.9-1.4-0.5c-0.3-0.3-0.4-0.8-0.9-0.8c-0.7,0.6-1-0.3-1.7,0c-2.3,1,0.3,2.3,0.2,3.5c0.6-0.3,0.5-1.3,1.2-1
			c0.1,0.2,0.2,0.3,0,0.6h-0.5c-0.4,0.6-0.4,1.4-0.2,2.1c-0.5-0.3-0.8-0.8-1.2-1.2l0.2-0.1l-0.7-1.5c-0.7-2.6-1.5,1.5-2.7,0.9
			c-0.1,1.5-2.4,0.8-2.8,2.1C284,30.7,284.5,32.2,285.6,32.1 M292,28.4l-0.1,0.4c0-0.4-0.5-0.2-0.7,0.1l-0.1-0.5L292,28.4z
			 M289.7,26.6c-0.2-0.1-0.4-0.1-0.5-0.3C289.2,26.2,289.9,26.2,289.7,26.6 M288.3,29.1l0.2,0.3l-0.3,0.1
			C288,29.2,288.3,29.2,288.3,29.1 M288.7,30.7c0.3,0.8-0.9,0.6-0.7,1C287.8,31.5,288,30.3,288.7,30.7 M287.4,29.4
			c0.4,0.1,0.1,0.9,0.2,1h0.1c0,0-0.1,0-0.1,0l-0.6-0.1L287.4,29.4z M286.4,30.4c-0.1,0.2-0.1,0.5-0.2,0.5l-0.2-0.5L286.4,30.4z"/>
		<path class="st1" d="M294.1,51c0.3-0.3,1.1-0.5,1-1c0.1-0.1,0.2,0,0.2,0.1L296,49c0.4,0.1,0.9,0,1.3-0.2c0.8-0.4,2-0.9,1.4-1.9
			c-0.2-1.4-1.4-1.7-2.1-3.2c0.7-0.3-0.1-0.8-0.1-1.2c-0.8-0.9-1.2-0.3-2-0.6c-0.2,0-0.5,0.5-0.6,0.2l-2.1,1.5
			c-0.8-0.3-0.8,0.7-1.5,0.6c-0.4,0.8-1.1,1.3-0.8,2c-1.5,0.1-1,1.5-2.1,2.3c0.4,0.4,0.6-0.3,0.9-0.2c-0.3,0.1-0.4,0.8-0.5,0.9
			c0.5,0.1,0.4-0.5,0.9-0.4c-0.2,0.1-0.1,0.6-0.4,0.7l0.6-0.2c0,0.3,0,0.5-0.3,0.7c0.5,1,1.5-0.4,2.3-0.5c0,0.8-0.8,0.5-1,1.1
			c0.2,0.3,0.4,0.6,0.6,0.9l0.2-0.1c0.1,0.2,0.4,0.1,0.4,0.5C292.2,52.2,293,51,294.1,51 M290.3,45.6l0.6-0.7
			C291.3,45.9,290.5,45.4,290.3,45.6 M294.3,50.5l-0.8,0.5l-0.1-0.2l0.8-0.5L294.3,50.5z M294,47.1c0,0.2-0.1,0.3-0.1,0.4
			c0,0,0,0,0,0.1l0,0c-0.4,0.6-1.3,0.7-1.6,1.5l-0.4,0c0.6-0.5,1.2-1,1.9-1.4l0.1-0.1C293.8,47.3,293.6,47.1,294,47.1 M293.1,48.6
			l-0.3,0.5l0.4,0.4c-0.5,0.6-1.6,0.3-2,0.7L293.1,48.6z"/>
		<path class="st1" d="M287.7,30.4h-0.1C287.6,30.4,287.6,30.4,287.7,30.4"/>
		<path class="st1" d="M294.7,26.7c0.7,0.8,1.2-0.2,2.2-0.2c0-1.1,1.5-1,1.8-1.5l0.1,0.1c0.9-0.5,0.9-1.5,1.4-2.4
			c-0.4-0.4-0.3-0.8-0.9-1.2c-0.2,0.1-0.2,0.2-0.2,0.4c-0.5-0.3-0.7,0-1-0.2c-0.2-0.4,0.3-0.3,0.4-0.4l-0.4-0.7c0.8-1,0.6,1,1.3,0.5
			l-0.2-0.4c-0.2-0.5-0.3-1.1-0.1-1.6l0.6,0.7l0.2-0.1c1.3,0.9-0.4,1.8,0.8,2.9l0.4-0.2c-0.4-1,0.5-1.1,0.6-2.1h-0.8
			c0.1-0.1-0.1-0.5,0.2-0.3c1.5-0.4,0-1.6,0.2-2.3c-1.4-0.2-2.7-0.1-4.1,0.2c-0.4,0-0.9,0.5-1.4,0.4c-0.3,0.3-1.4,0.8-0.9,1.2
			c-0.2-0.1-0.6,0.1-0.6-0.2c-0.2,0.2-0.6,0.6-1,0.6c-0.3,0.7-1.2,1.2-1.4,1.8c-1.3,1.1,1,2.3,1.2,3.5
			C293.7,25.6,294.2,26.1,294.7,26.7 M298.3,22.6c0-0.1,0.1-0.2,0.2-0.2c0.1,0,0.1,0,0.2,0c0.2-0.1,0.3-0.1,0.5-0.1l0.1,0.2
			l-0.4,0.3c-0.2-0.1-0.1-0.4-0.2-0.4C298.5,22.4,298.4,22.5,298.3,22.6c-0.1,0.3,0.1,0.5-0.3,0.5C298,22.9,298.1,22.7,298.3,22.6
			 M297.3,23.2l0.1,0.5l-0.3,0.1l-0.2-0.6L297.3,23.2z M296.9,22.5l-0.2,0.1c-0.3-0.1-0.5-0.5-0.5-0.8
			C296.4,21.6,296.4,22.2,296.9,22.5"/>
		<path class="st1" d="M296.9,41.4l-0.3,0.2c0.4,0.6,0.6,1.3,0.5,2c0.6,0.7,1.4,1.1,2.3,1.2c-0.6-1.2-1.7-1.3-1.9-2.5l0.1-0.1
			L296.9,41.4z"/>
		<path class="st1" d="M295,18.7L295,18.7c0-0.1,0.1-0.1,0.1-0.2L295,18.7z"/>
		<path class="st1" d="M300.3,21.2c-0.2,0-0.2,0.1-0.2,0.2c0.1-0.1,0.3-0.2,0.4-0.3C300.5,21.1,300.4,21.1,300.3,21.2"/>
		<path class="st1" d="M309.9,55.1l0.1,0.2C310,55.2,310,55.1,309.9,55.1"/>
		<path class="st1" d="M298.7,62.1c0.6,0.6,0.9-1.1,1.7,0c0.6-0.1,1.2-0.6,1.5-0.7l0.6-0.6c0.1-0.7-0.6-0.8-1-0.6l0.8-1.1
			c-0.6-1-1.9-1.4-2.3-2.3c-1,1.5-1.5-0.5-2.5,0.9c-0.4,0.7,1.5,2.3,0.1,3.4c-0.6-0.2-1.1,0.4-1.7-0.1c0-0.3,0.2-0.4,0.3-0.6
			c-0.9-0.1-0.8,0.3-1.3,0.5c0.8,0.5-0.4,1.7-0.2,2.3c0.8,0.4,0.5-0.5,1.3-0.4V63c0.3-0.7,1.9-0.5,1.5-1.6c0-0.6,0.7-0.1,1.1-0.2
			c0,0,0.1-0.1,0.1-0.1c0,0-0.1,0.1-0.1,0.1C298.3,61.4,298.5,61.8,298.7,62.1 M298.9,59.9h0.4l-0.4,0.3c0,0,0,0.1-0.1,0.1
			c0,0,0,0,0,0l0.1-0.1C298.8,60.1,298.8,60,298.9,59.9"/>
		<path class="st1" d="M313.6,50.4l-0.1-0.3l-0.1,0.2l-0.2-0.3c-0.1-0.5-0.2,0.3-0.4,0C312.7,50.2,313.3,50.2,313.6,50.4"/>
		<path class="st1" d="M314.2,51.5l-0.3-0.6l-0.2,0.1C313.9,51.2,314.1,51.6,314.2,51.5"/>
		<path class="st1" d="M310.9,37.9c-0.3,0.1-0.3-0.3-0.5-0.4l-0.2,0.2c0.5,0.5,1.2,0.3,1.6,0.7c1.6-1.2,3.3-2.1,5.1-2.9
			c-0.1,0-0.1-0.2-0.1-0.3c0.3-0.2,0.7-0.3,1.1-0.4c0.1-0.4,0.4-0.7,0.8-0.9c0.2-0.3,0.1-0.4,0.2-0.7c0.2,0,0.5,0,0.6-0.2
			c0.5-1.4,1.8-2.6,0.9-4.2l0.2-0.1c-0.4-0.4-0.8-0.8-1.1-1.3c-2-0.6-5-0.8-6.4,0.6c-0.8,0.2-1.6,1-2.5,1.5l0.2,0.1
			c-0.5,0.7-1.1,1.4-1.7,2c-0.3,0.7-0.3,1.5-0.1,2.2c-0.5,0-0.6,0.7-0.5,0.9C309.5,35.5,310.3,36.6,310.9,37.9"/>
		<path class="st1" d="M305.7,58.7c0.3-0.1,0.4-0.4,0.4-0.7c0.4-0.2,0.8-0.6,1.1,0c2.5-1.5,5.4-2.2,7.8-3.8c0.8-1.8-1.9-2.1-2.2-3.2
			c-0.4-0.6-1-0.9-1.7-1c-1,1.3-2.3,2.4-3.7,3.2c0.1,0.5,0.4,0.1,0.6,0.2v0.4c-0.2-0.4-0.8,0.4-0.7-0.3c-0.5,0.2,0,1.1-0.5,1.4
			c-0.4,0,0.2-0.7-0.5-0.7c-0.2,0.3,0.5,0.8-0.2,0.8l0.4,0.5c0.2,0.5-0.4,0.7-0.6,0.8c0-0.2-0.4-0.4,0.1-0.5
			c-0.1-0.4-0.5-0.5-0.9-0.4c-0.1,0-0.2,0.1-0.3,0.2C306,56.9,304.3,57.6,305.7,58.7 M309.3,55.4l0.5-0.4v0.1c0,0,0.1,0.1,0.1,0.2
			l-0.1-0.2C309.7,55,309.4,55.7,309.3,55.4 M310.5,52.3c0.1-0.7,0.8,0.2,1.1,0l0.2,0.5l-0.4-0.1c0,0.7-0.4,0-0.7,0.4v-0.4
			c-0.4-0.2-0.7,0.3-1.1,0.5c0.9,0.4,0.2,1.2,1,1.6c-0.1,0.4-0.6-0.2-1-0.2c-0.4-0.1-0.2-2.1-0.9-0.7l0.6,0.8l-1-0.8
			C309.1,53.5,309.6,52.3,310.5,52.3 M307.9,56L307.9,56L307.9,56L307.9,56l0.1,0.2l-0.7,0.3L307.9,56z M307.2,57.3L307.2,57.3
			l0.2-0.1c0.1,0.2-0.2,0.3-0.4,0.4L307.2,57.3z"/>
		<path class="st1" d="M317.4,44.9c-1.3,1.5-4.4,2.5-3.5,4.8c1.5,0.8,0.6,2.5,1.8,3.4c0.8,0.4,1.5,0.1,2.3-0.6c1,0.2,1.6-1,2.3-1.2
			c1.1-0.4,2.4-0.7,3.4-1.1c1.1-1.2,2.1-2.5,2.9-4c0-0.8,0.1-2.2-0.7-2.9c-1.4-0.5-3.1-1.3-4.7-0.7
			C319.7,43.4,318.1,43.9,317.4,44.9 M324.3,44.6l0.2,0.3h-0.4L324.3,44.6z M324.2,47l0,0.6H324L324.2,47z M323.8,45l-0.4,0.2h-0.1
			L323.8,45z M322.9,47.6c-0.1-0.2,0-0.3,0.1-0.4c0-0.1,0.1-0.1,0.2-0.1c-0.1,0-0.1,0.1-0.2,0.1C323,47.3,322.9,47.4,322.9,47.6
			 M323.2,44c-0.1,0.2-0.4,0.2-0.4,0.4c-0.1-0.3-1-0.3-1-0.6C322.1,44.1,322.6,43.4,323.2,44 M321.8,45.3L321.8,45.3
			c0,0,0-0.1,0-0.2l0.2,0.3L321.8,45.3C321.6,45.5,321.4,45.6,321.8,45.3 M319.5,44.5l0.5-0.2c0,0.3,0.1,0.5,0,0.7l0.5,0.1
			c0,0.2-0.6,0.1-0.7,0.3C319.7,45.2,319.6,44.6,319.5,44.5L319.5,44.5C319.4,44.5,319.5,44.5,319.5,44.5 M318.4,48.8l0.4-0.2
			l0.3,0.4L318.4,48.8z M318.5,46.5l0.2-0.1v0.1l0.2,0.1L318.5,46.5z M318.5,45.2l0.2,0.3c-0.2,0.1-0.3,0-0.5,0L318.5,45.2z"/>
		<path class="st1" d="M323,47.1l0.2-0.1C323.1,47,323,47,323,47.1"/>
		<path class="st1" d="M321.8,45.2L321.8,45.2C321.4,45.5,321.7,45.4,321.8,45.2"/>
		<path class="st1" d="M319.4,44.5h0.1C319.5,44.5,319.4,44.5,319.4,44.5"/>
		<path class="st1" d="M299.6,77c0.6,0.2,1.3-0.6,1.7-0.7c0.9-1.2-0.9-2.3-0.5-3.6l1.9,3.7l0.4-0.2l-0.3-1.9
			c0.6,0.5,0.6,1.8,1.1,2.3c0.1-0.3,0.6,0,1.1,0c2-1.3,4.2-1.4,6.4-2.2c0.3-1,1-1.3,0.5-2.2c0.4,0,0.6,0.6,0.5,0.9
			c0.1,0.7,0.9,0.8,1.6,0.6c1.9-0.6,4.1-0.6,6.2-1.4c0-0.1,0.1-0.3,0.1-0.4c0.1,0,0.2,0,0.3,0l1.4-1.3l-0.1-0.2
			c0-0.2,0.3-0.3,0.5-0.5c-0.1-0.2-0.3-0.2-0.2-0.4c0.2,0,0.4-0.3,0.6-0.3c0.9-1.3,0.7-1.9,0.5-3.3c-1.3-0.8-2.6-1.9-4.2-1
			c-2.6-0.1-5,1.5-7.1,2.6c-1.5,0.8-0.8,2.4-1,3.6c-0.3-0.8-0.6-1.5-0.9-2.2c-0.7-0.6-1.3-0.2-2.1,0.1l0.1-0.2c-1.5,2-4.4,1.3-5.7,3
			c-0.2,0-0.3-0.1-0.1-0.2c-1.1,0-2.4,0.3-3.2-0.2c-1.2,1.6-3.7,1.5-3.7,3.4c0.2,0.3,0.4-0.2,0.6-0.1c0.1,0.2,0.2,0.3,0.2,0.4
			c-0.1,0.4,0,0.7,0.1,1.1c0.3,0.5,0.6,0.7,1.1,0.7S299.2,76.1,299.6,77 M297.2,74.1l0.2-0.3l0.1,0.2
			C297.4,74.1,297.4,74.2,297.2,74.1 M302.7,72.6c0.2,0.5,0,0.9,0.1,1.6C302.2,74,302.8,73.2,302.7,72.6 M306.9,72.8l-0.4-0.2
			c0.1-0.2,0.3-0.7,0.7-0.7L306.9,72.8z"/>
		<polygon class="st1" points="307.9,56 307.9,56 308,56 		"/>
		<path class="st1" d="M301.8,38.2c-1.6,0.4-3,1-4.3,2c-0.1,0.5-0.4,0.9,0.1,1.2s0.9,1.1,1.6,0.7c-0.2,0.6,0.4,0.6,0.6,0.8
			c0.5,1.8,1.4,2,2.9,1.6c-0.1,0.1,0,0.2,0.1,0.3c1.7-0.9,2.5-2.5,4.3-3.3c0.4-1.3,1.6-1.2,2.5-1.5l-0.2-0.6c-0.8-0.9-0.9-2.1-2-2.8
			c-0.5-1-1.5-1.2-2.6-1.4c-1.1,1.2-2.3,1.4-3,2.7C301.8,37.8,301.9,38,301.8,38.2 M299.9,40.1c-0.1,0.1-0.2,0.2-0.2,0.2
			C299.7,40.3,299.8,40.2,299.9,40.1c0.1-0.2,0.2-0.4,0.1-0.4l0.2,0.1C300.2,40,300.1,40,299.9,40.1 M301.1,42.1l-0.5-0.2l1,0.1
			L301.1,42.1z M302.1,41.9c-0.3-0.2,0-0.6-0.6-0.6c0.3-0.3,0.5,0.2,0.7,0.1C302,41.5,302.2,41.6,302.1,41.9 M303.4,42.3v-0.2
			c0.2-0.1,0.2,0,0.3-0.1L303.4,42.3z M304.4,41.6L304.4,41.6l0.3-0.3l0.1,0.1L304.4,41.6z M305.2,41.1H305l0.4-0.4
			C305.4,40.9,305.4,41.1,305.2,41.1 M306.9,40.7l-0.6,0.4c-0.1-0.1-0.2-0.1-0.3,0C306.1,40.3,306.5,40.8,306.9,40.7l0.3-0.1
			C307.1,40.6,307,40.7,306.9,40.7 M304,37.6c0.2,0.1,0.9-0.2,0.8,0.4c1,0.5,0.5-1.3,1.5-0.6c0.2,0.5,0.7,0.8,0.3,1.2
			c-0.4,0.9-1.2-0.6-1.2,0.6l0.4,0.4c-0.4-0.2-0.9,0.2-1.2,0.3c-0.1-0.6,0.5-0.2,0.6-0.7c0.3-0.9-0.8-1-1.4-1L304,37.6z M303.7,36.4
			l-0.5,0.5l-0.3,0.2L303.7,36.4z M302.6,39.1c0.6,0.3,1.3,0.3,1.8,0l0.2,0.3c-0.4,0.2-0.8,0.6-0.6,1c0.1,0.1,0.1,0.1,0.2,0.1
			l-0.2,0.1c-0.1-0.3-0.5-1-1-0.8c0.1-0.1,0-0.3,0.1-0.4l-0.9,0.2C302.5,39.6,302.4,39.3,302.6,39.1 M302.6,40.4
			C302.7,40.4,302.7,40.4,302.6,40.4l0.1,0.1C302.7,40.5,302.7,40.4,302.6,40.4c-0.3,0-0.4,0.4-0.5,0.6c-0.6-0.3,0.5-0.5-0.2-0.8
			c-0.3-0.2-0.4,0.4-0.6,0c0.2-0.5,0.5-0.4,0.8-0.5l-0.2,0.4C302.5,40.6,302.5,40,302.6,40.4"/>
		<path class="st1" d="M303.4,57.8l0.2,0.3c0.2,0.1,0.3-0.6,0.1-0.6L303.4,57.8z"/>
		<path class="st1" d="M285.4,34.7c0.2-0.3,1.1,0.4,1-0.5c-0.7-1.1-2.5-1.6-3.2-2.9c-0.3-0.2-0.8-0.2-0.9,0.1
			C282.6,33.2,284.6,33.6,285.4,34.7"/>
		<path class="st1" d="M298.6,61.1c0,0,0.1,0,0.1-0.1C298.7,61.1,298.6,61.1,298.6,61.1"/>
		<path class="st1" d="M298.9,60.2l-0.1,0.1C298.8,60.2,298.9,60.2,298.9,60.2C298.9,60.2,298.9,60.2,298.9,60.2"/>
		<path class="st1" d="M302.7,40.4C302.7,40.4,302.7,40.4,302.7,40.4c-0.1,0.1,0,0.1,0,0.2L302.7,40.4z"/>
		<path class="st1" d="M307,40.6l-0.3,0.2C306.8,40.7,306.9,40.6,307,40.6"/>
		<path class="st1" d="M299.6,40.4c0.1,0,0.2-0.1,0.2-0.2C299.7,40.3,299.7,40.3,299.6,40.4"/>
		<path class="st1" d="M281.8,40.6L281.8,40.6C281.9,40.5,281.8,40.5,281.8,40.6"/>
		<path class="st1" d="M273.8,39.9c-0.1,0.6,0.3,1.3,0.9,1.5l0.5,0.2c0.3,0.2,0.4,0.7,1,0.6c0.2-0.3,1.9,0.4,1.6-0.3
			c1.2,1.1,2.1-0.7,2.8,0.6c0.8-0.7,1.9-1.1,2.5-2.2c-0.2-0.4-0.5-0.7-0.8-1c0.2,0,0.4-0.4,0.6-0.3c-0.3,0.5,0.4,0.2,0.5,0.3
			c-0.1-0.1,0.1-0.2,0.3-0.1s0,0.2,0,0.4c0.5-0.5,0.8-1.3,1.4-1.3c0.3-0.6,0.6-1.2,0.9-1.8c0.3-2.2-2.7-1.7-3.5-3.1
			c-0.9-0.3-0.4-1-1.3-1.4c-1.3-0.1-1.1,0.5-2.2,0.7c-1.6,1.6-2.9,3.3-3.9,5.3c0.1,0.2,0.3,0.2,0.1,0.4
			C274.7,38.8,273.9,38.8,273.8,39.9 M280.6,41c-0.4-0.4,0.2,0,0-0.5l0.1,0.2C280.6,40.8,280.6,40.9,280.6,41 M281.1,41.6h-0.2
			l0.4-0.6c0,0,0-0.1,0.1-0.1l-0.1,0.1C281.2,41.3,281.5,41.6,281.1,41.6 M281.9,38.2c-0.2,0-0.1,0.3-0.1,0.4
			c0.3,0.6,0.4-0.2,0.6-0.1c-0.2,0.5-0.5,0.9-1,1.2c0-0.4,0.6-0.3,0.4-0.8c0-0.2-0.5-0.4-0.2-0.6C281.6,38.2,281.8,37.9,281.9,38.2
			 M281.3,37.8l0.2-0.3C281.7,37.8,281.5,37.8,281.3,37.8l-0.2,0.3C281.1,37.9,281.1,37.8,281.3,37.8 M280.1,38.9l-0.6-0.6l0.8,0.4
			l0.5-0.6c0,0.1,0,0.2,0.1,0.2c0,0.1-0.5,0.1-0.2,0.6l0.4,0.1c-0.3,0.7-0.8,1.4-1.4,1.8l0.5-0.5l-0.2-0.1c0.2-0.1,0.4-0.2,0.4-0.2
			c-0.3-0.2-0.7,0-0.6,0.3c-0.2,0-0.3-0.2-0.3-0.3c0.5,0.3,0.5-0.5,0.4-0.8c0.1,0.3-0.4,0.4-0.5,0.6
			C278.9,39.4,279.8,39.1,280.1,38.9 M279.1,37.8l-0.3,0.3C278.7,38.2,279,37.9,279.1,37.8 M278.7,39.1L278.7,39.1
			c0.1-0.1,0.3-0.2,0.4-0.2l0,0.3C279,39.2,278.8,39.2,278.7,39.1L278.7,39.1l-0.2,0.6C278.3,39.6,278.5,39.3,278.7,39.1
			 M276.6,39.6L276.6,39.6l-0.6,0.6l-0.1-0.1L276.6,39.6z"/>
		<path class="st1" d="M244,23.3c0.2,0,0.6,1.7,0.6,2s-0.7,0.3-0.9,0.1c0.1,0.3,0,0.5,0.3,0.7c0.2,0.1,0.5,0.1,0.7-0.1
			c0.3-0.4,0.6-0.8,0.8-1.3c0.4,0.2,0.9,0.3,1.3,0.4l-0.1,0.3l0.4,0.1c0-0.1-0.1-0.7,0.2-0.8c0.5,0.5,0.9,0.9,0.7,1.5
			c-0.4,0.1-0.6,0.3-0.5,0.7c0.1,0.2,0.2,0.4,0.3,0.6c0,0,0.2,0.8,0.1,0.8c0.4,0.1,0.6,0.3,0.6,0.7c0,0.1-0.2,0.9,0,0.9
			c0.2,0,0.5-0.1,0.7-0.1c0.4-0.1,0.5-0.7,0.4-1c-0.2-0.5-0.6-0.8-0.7-1.4c0-0.2,0.1-0.3,0.1-0.5s-0.2-0.7-0.2-1c0-0.3,0-0.6,0-0.9
			c0.1-0.3,0.1-0.6,0-0.9c0-0.2-0.1-0.3-0.1-0.5c-0.1-0.1-0.3-0.4-0.3-0.5c0-0.8-0.9-0.8-1.2-1.2c-0.2,0.2-0.6,0.2-0.9,0
			c-0.1-0.1-0.1-0.1-0.1-0.2c-0.3-0.4-0.7-0.6-1.2-0.6c-0.2,0-0.5,0-0.7,0s-0.6-0.1-0.8,0.1s-0.3,0.4-0.5,0.6s-0.7,0.7-0.4,1.1
			S243.5,23.3,244,23.3 M244.8,22.7c-0.2,1.2,0.9,0.3,1.4,0.7c-0.5,1-1.2-0.6-1.4,0.6c-0.1-0.3,0.1-0.7-0.2-1s-0.5,0.1-0.7,0.3
			C243.8,22.4,244.4,23.2,244.8,22.7"/>
		<path class="st1" d="M245.3,26.9l0.2,0.3c0-0.1,0-0.1,0.1-0.2C245.6,26.7,245.5,26.8,245.3,26.9"/>
		<path class="st1" d="M282,37.3c-0.1,0-0.2,0.1-0.2,0.3L282,37.3z"/>
		<path class="st1" d="M244,47.5c0,0,0-0.1,0-0.1V47.5z"/>
		<path class="st1" d="M244,47.6v-0.1v-0.1c0,0,0,0.1,0,0.1V47.6c0.2-0.1,0.3-0.2,0.5-0.3c0.2-0.1,0.5-0.2,0.7-0.2
			c-0.3-0.5-0.7-1,0-1.5l-0.4-0.1c0.2-0.6,0.3-1.2,0.4-1.8c0.4,0.4,0.7,1.3,1.5,1.2l-0.4-0.1c0.2-0.6,0-1.3-0.5-1.8l0.2-0.1
			l-0.6-0.4c-1-0.1-0.2,1-0.6,1c-0.5,0-0.1-0.3-0.4-0.6c-0.6,0-0.8-0.1-1.2,0.2c0.3,0.4,0.9,0.5,1.3,0.2c0,0.4,0.3,0.7,0,1.1
			c-1-0.4-2-0.8-3-1c0-0.7,0.5-0.4,0.9-0.6c0.2-0.5-0.1-0.3,0.1-0.8c-0.3-0.3-0.8,0.2-1.1-0.2c0.1-0.1,0-0.2,0.1-0.2s0.4,0,0.4,0.2
			c1.6-0.1,2.3-1.8,3-2.9c-0.4,0-1.1-0.3-1.4-0.2l0.1-0.4c0.8,0.1,1.6,0.1,2.4-0.2c0.9-1.3-0.9-1.2-1.1-1.8c1.1,0.2,2.2-0.2,2.9-1
			c-0.3-0.6-1.3-1.1-1.4-1.9c0.7-0.6,1.9-1.2,2.3-2.1c0.1-0.2,0.1-0.5,0-0.8c-1.1,0.3-1.9-0.6-2.4-1.4c0,0.5-0.7,0.4-0.9,0.1
			c0.1-0.2,0.3-0.1,0.5-0.2c0.2-0.5-0.7-1,0.2-1.3c-0.4-0.8-1.4,0.8-2.1,0.2c0.2,0.6-0.4,0.1-0.7,0.4l0,0c0.2,0,0.1,0.3,0.1,0.4
			c0-0.1-0.1-0.3-0.1-0.4c0,0,0,0-0.1,0s0,0,0,0c-0.5-1.2-2.1-2-1.7-4c-0.5,0.6-1.1,0.9-0.8,1.8c-1.4,2.7,0.1,5.7-0.2,8
			c1.8,1.6-0.7,2.1,0.5,3.6c-0.5,0.2,0.3,1-0.4,1.1c0.5,2.3-0.9,4.1-0.7,6.4l-0.2,0.7C239.2,46.6,243.6,47.8,244,47.6 M244.5,37.6
			l-0.3,0.2l-0.2-0.3L244.5,37.6z M243.3,39.1c-0.5,0.2-1.3-0.2-1.9-0.4C242.1,38.6,242.6,39,243.3,39.1 M242.1,44l0.2,0.4l-0.2-0.2
			L242.1,44z M242.3,45.3l0.1,0.2l-0.5-0.2L242.3,45.3z M240.2,47.9l-0.5-0.2L240.2,47.9z"/>
		<path class="st1" d="M283.9,38.7C283.9,38.7,283.9,38.7,283.9,38.7C283.9,38.7,283.9,38.7,283.9,38.7"/>
		<path class="st1" d="M243.2,28.3L243.2,28.3L243.2,28.3C243.2,28.3,243.2,28.3,243.2,28.3"/>
		<path class="st1" d="M240.5,26c-0.3-0.1,0.1-1.1,0.2-1.3c0.1-0.4,0.5-0.6,0.8-0.6c0.6,0.1,0.8,1.6,0.9,2.1c0.3,0.7,1,1.1,1.8,1.1
			c0.5,0,0.7-0.3,1.2-0.1c0.3,0.1,0.6,0.3,0.8,0.6c0.1,0.2,0.2,0.4,0.4,0.6c0.1,0.1,0.4,0.3,0.5,0.4s0.3,0.6,0.6,0.9
			c0.5,0.5,1.2,0.9,0.9,1.7s-1.2,1.2-1.8,1.8c-0.3,0.3-0.3,0.5,0,0.8c0.2,0.3,0.4,0.6,0.6,0.9c0.3,0.5,0.3,0.9-0.2,1.2
			c-0.2,0.2-1.2,0.5-1.3,0.9s0.3,0.2,0.4,0.5s0,0.5-0.3,0.7s-1.1,0.2-1.3,0.7c0.3,0.2,0.7,0.2,0.4,0.6c-0.3,0.4-0.7,0.9-1.1,1.2
			c-0.4,0.4-0.7,0.8-0.9,1.3c-0.1,0.3-0.2,0.9,0.1,1s0.9-0.2,1.1-0.4s0.7-0.2,1.1-0.4s0.5-1.2,0.9-0.8c0.3,0.4,0.5,0.8,0.5,1.3
			c0.1,1,0.4,1.9,0,2.9c-0.3,0.6-0.6,1.7-1.2,2c-0.4,0.2-0.8,0.4-1.2,0.4c-0.4,0-0.8-0.3-1.2-0.3c-0.9-0.1-1.8-0.4-2.5-0.9
			c-1.4-0.9-0.1-2.9-0.1-4.2c0-0.8,0-1.6,0.1-2.4c0.1-0.4,0.2-0.8,0.2-1.2c0.1-0.5,0.2-1,0.5-1.4c0.2-0.5,0.3-1,0.4-1.5
			c0.1-0.7-0.1-1.4-0.3-2c-0.2-0.7-0.4-1.4-0.5-2.1c-0.1-0.9-0.2-1.8-0.4-2.8c-0.3-0.6-0.4-1.3-0.4-1.9c0-0.4,0-0.8,0.2-1.1
			c0.2-0.3,0.4-0.6,0.6-0.8"/>
		<path class="st1" d="M285.7,36.8c-0.7,1.2-1.6,2.3-2.5,3.3c-0.7,0.8-1.5,1.5-2.4,2c-0.2,0.1-0.4,0.2-0.6,0.2
			c-0.3,0-0.3-0.3-0.6-0.3c-0.5-0.1-0.9,0.3-1.4,0.4s-0.9-0.1-1.4-0.2s-0.9,0.2-1.4,0.1s-0.4-0.2-0.6-0.5s-0.8-0.4-1.1-0.7
			c-0.9-0.8,0.5-1.8,1-2.3s0.9-1.2,1.3-1.7c0.9-1.2,2.3-1.8,3.8-1.6c1.2,0,2.4,0.2,3.5,0.7c0.5,0.3,1,0.6,1.5,1"/>
		<path class="st1" d="M295.4,19.1c1.5-0.8,6.1-3.4,6.8-0.3c0.3,1.1-0.3,1.9-0.8,2.8c-0.2,0.3-0.3,0.8-0.6,1
			c-0.6,0.3-0.7-0.3-0.7-0.8s-0.2-2.9-1.3-2.1c-0.6,0.5,0.4,2.3,0.7,2.9c0.2,0.3,0.6,0.7,0.6,1.1s-0.7,0.8-0.9,1.1s-0.4,0.8-0.9,1.1
			c-0.5,0.3-1.1,0.6-1.8,0.7c-0.8-0.1-1.2-2.4-1.2-3c-0.1-1.6,0.4-4,2.4-4"/>
		<path class="st1" d="M239.4,47.5c-5.4,9.9-3.3,21.3-3.2,21.4c1.1,0.2,2.3,0.1,3.4-0.1c-0.9-3.2-1-6.5-0.3-9.8
			c1.5,0.7,3.1,1.1,4.7,0.9c0.4-0.9,0.6-1.8,0.8-2.7c-3.8-0.3-5-1.5-5-1.5c0.1-1.4,0.5-2.7,1.1-3.9C250.1,55.5,257,53,257,53
			l-0.6-2.8C250.6,51.1,244.6,50.2,239.4,47.5"/>
		<path class="st1" d="M259.1,57.4c0,0-0.6,5.8-0.2,7.2c0.5,1.7,2.1,0.8,2.6-0.5c1.2-3.8,0.5-13.4,0.5-13.4l2.2,0.1
			c0,0,1.9,16.2-4,17.3c-1.3,0.3-2.6-0.4-3.1-1.6c-0.9-1.8-1-7.9-1-7.9L259.1,57.4z"/>
		<path class="st1" d="M282.3,49.2c-2-0.4-4.1,0.3-5.6,1.7c-1.7,1.4-2.2,3.7-1.2,5.7c1.3,2.5,5.6,4.5,8.3,3.5
			C288.9,58.3,286.9,50.2,282.3,49.2 M284.1,55.5c-0.5,1.8-2.1,2.5-4.1,1.9s-2.5-4.7-0.5-5.2S285,52.8,284.1,55.5"/>
		<path class="st1" d="M242.7,76.9l5.6,3.2l-2.9-4.8l2.3-0.8c0.1,0,5,8.6,5,8.6l-1.5,1.4c0,0-6.4-4.1-6.4-4l6.1,5.2
			c-0.5,0.5-1,1-1.6,1.5c-3.2-1.9-7.6-5.8-9.1-8.7C240.5,78.3,242.7,76.9,242.7,76.9"/>
		<path class="st1" d="M254.2,79.4c1.8-0.3-0.7-7.8-0.7-7.8l1.7-0.5c0,0,1.8,6.8,1.5,8.5c-0.2,1.3-1.4,2.1-2.7,1.9
			c-0.2,0-0.4-0.1-0.6-0.2c-1.5-0.7-3.3-4.4-3.3-4.4s-0.7-1.5-1.1-2.6l1.9-0.8C251,73.6,252.6,79.7,254.2,79.4"/>
		<path class="st1" d="M270.4,71.6c0-1.5-1.3-2.7-2.8-2.6c-0.2,0-0.3,0-0.5,0.1c-1.5,0.2-2.6,1.6-2.4,3.1c0,0,0,0.1,0,0.1
			c0.3,1.7,1.5,2.5,3.4,2.3c2.1-0.2,3,2.3,1,3c-2.4,0.9-2-2.4-2-2.4h-1.9c0,0-0.1,2.6,1.4,3.6c3.9,2.6,7.8-3.5,3.7-5.4
			c-1.1-0.5-3.7,0.4-3.9-1.2s1.9-2,2.7-0.5L270.4,71.6"/>
		<path class="st1" d="M275,67.7l3.6,7.9c0.7-0.2,1.3-0.4,1.9-0.8c-0.1-0.2-1.5-4.2-2-5.9s1.6-3.4,3-3.2c-0.2-0.7-0.6-1.9-0.6-1.9
			c-2.2,0.1-4,1.8-4.1,4l-0.5-0.8L275,67.7z"/>
		<path class="st1" d="M255.3,81.9c-2.6,1.4-3.8,2.9-3.9,5.4c-0.1,3.4,2.6,9.6,6.3,10.4c3.4,0.7,6.6-1.5,7.3-4.9
			c0-0.1,0-0.2,0.1-0.3c-0.7-0.1-2.3-0.5-3-0.6c-0.5,2-1.6,3-3.5,2.8c-2.4-0.2-3-2.8-3.7-4.9s-0.3-3.2,1.2-4.4
			c1.3-0.9,3.1-0.9,4.4,0c0.8-0.5,1.6-1.1,2.4-1.7C261.5,82.1,259.1,80.4,255.3,81.9"/>
		<path class="st1" d="M263,82.4l4.2,13.6l2.4-1.3c0,0-2.1-7.8-4.3-13.2C265.1,81.6,263,82.4,263,82.4"/>
		<path class="st1" d="M268.4,80.3c0,0.2,2.2,10,4.3,9c1.7-0.8-2.4-9-2.5-9.4l2.2-0.9c0,0,2.1,4.7,2.6,6.2c0.7,2,1.6,3.7,0.3,5.3
			c-1.2,1.4-3.3,2.5-5,0.9s-3.9-8.9-4.4-10.2L268.4,80.3z"/>
		<path class="st1" d="M277.6,60.5c-3.1,1.1-5.1,0.1-6.3-5.5c0.4-0.4,1.4-1.4,2.9-3.3c1.9-2.3,1.7-10-2.9-7.7
			c-2.7,1.5-4.9,3.8-6.1,6.7c0.7,2.8,1,5.6,0.9,8.5c0,2.2-0.4,6.9-0.4,6.9l2.9-0.6c0,0,0.3-7.7,0.2-9.6c0,0.3,0.8,4,2.7,5.9
			c1.5,1.5,4.4,1.5,6,0.9C277.7,62.2,277.6,60.9,277.6,60.5 M268.9,53.5c0,0-0.5-3.1-0.5-3.2c0.8-2.1,2.8-4,3.8-3.7s0.7,2.5,0.6,3.4
			C272.5,51.9,268.9,53.5,268.9,53.5"/>
		<path class="st1" d="M264.5,75.2c0,0-0.9,0.2-1.5,0.3c0.2,0.7,0.1,4-1.6,3.5c-2.5-0.5-2.9-3.9-2.9-3.9l5.8-1.3
			c-0.2-2.1-2-3.7-4.1-3.5c0,0-0.1,0-0.1,0c-1.6,0.2-2.9,1.3-3.3,2.8c-0.9,3.1,1.9,7.8,5,7.5C265.6,80.3,264.5,75.2,264.5,75.2
			 M260,72.1c1-0.2,2,0.1,2.6,0.9l-4.3,1C258.5,73,259.1,72.3,260,72.1"/>
		<path class="st1" d="M286.6,61c-5.5-0.2-4.8,4.2-4.8,4.2l1.7,0.2c0,0,0.1-1.8,0.9-2.4c2.1-1.5,3.5,1.1,0.9,3.1
			c-1.1,0.8-2.5,1-3.3,3c-0.5,1.4,0.2,2.9,1.6,3.5c0.4,0.1,0.8,0.2,1.2,0.1c1.9-0.2,3.3-1.8,3.4-3.7c0,0.2,0.3,1.3,0.4,1.5
			c0.5-0.2,1-0.5,1.5-0.9C288,66,289.8,61.4,286.6,61 M285,71.3c-1.2,0.5-1.9-0.3-1.7-1.5s2.5-1.7,3.6-3
			C287,68.7,286.1,70.8,285,71.3"/>
		<path class="st1" d="M281.6,80.8c-1-2.6-5.1-5.7-8.2-2.4l4,10.8C281.1,88.4,282.8,83.7,281.6,80.8 M278.6,86.2l-2.5-6.7
			c0,0,2.1-1.1,3.4,1.8C280.3,83,279.9,85,278.6,86.2"/>
		<path class="st1" d="M292.7,73.6c-2-2.8-7.8-0.1-7.8-0.1l4.8,7C292.6,79.7,295.2,76.8,292.7,73.6 M290.7,78.4l-3-4.3
			c0,0,3-1.2,4.1,1.1c0.6,1.1,0.3,2.4-0.8,3C291,78.3,290.8,78.3,290.7,78.4"/>
		<path class="st1" d="M244.2,67.1c-2.5,0.9-2-4.8-1.7-6.4c-0.6-0.1-2.7-0.3-2.7-0.3c-0.4,2.1-0.3,4.3,0.1,6.5
			c0.5,2.2,2.5,3.2,5.2,2.5c4.6-1.1,4-7.8,4.2-10.6c-1.1-0.1-2.2-0.3-3.3-0.6C245.9,60.6,246.6,66.3,244.2,67.1"/>
		<path class="st1" d="M259.8,52.1c-2.4,2.7-5.7,3-10.5,3c-0.1,1.1-0.3,2.5-0.3,3c1.1,0.1,2.1,0.1,3.2,0.1c0,3.4-0.3,6.8-1.1,10.1
			c0,0,1.8-0.1,2.5-0.1c0.9-3.5,1.3-7,1.3-10.6c2.5-0.3,4.8-1.7,6.2-3.8C261.2,53.9,260.1,52.5,259.8,52.1"/>
		<path class="st1" d="M275.7,66.6l-0.2-1.7c0,0-2.4,0.8-3.2,0.9l-1-3.8l-1.6,0.2l1,4.3l-2.4,0.8l0.3,1.6c0,0,1.2-0.3,2.4-0.7
			c0.5,2.9,1.3,6,1.5,7.3c0,0.2,0.1,0.3,0.1,0.4c0.3,2.1,3.5,0.6,3.5,0.6l-0.3-1.7l-1.7,0.4l-1.5-7.4L275.7,66.6z"/>
		<path class="st1" d="M287.8,82.7l1.5-1.2l-5.5-8l-2.8,1.5l2.2,10.9l1.9-1.3l-1.1-5.6l1.1-0.6L287.8,82.7z M283.2,77.7l-0.4-2
			l0.7-0.5l0.9,1.8L283.2,77.7z"/>
		<path class="st1" d="M241.9,71.8c-0.7-2.5-2.7-2.8-5.6-1.1c0.4,2.6,1.4,5.1,3.1,7.2l1.4-0.7c-0.7-0.7-1.2-1.5-1.6-2.4
			C239.1,74.9,242.5,74.3,241.9,71.8 M238.7,73.7l-0.9-2.2c0.8-0.4,2.1-1.1,2.8,0.5C241.2,73.3,238.7,73.7,238.7,73.7"/>
		<path class="st1" d="M245,70.5c-2.3-0.2-2.2,1.6-2.2,1.6l0.7,0.2c0,0,0.1-0.8,0.4-1c0.9-0.6,1.4,0.6,0.3,1.3
			c-0.5,0.3-1.1,0.3-1.5,1.2c-0.3,0.6,0,1.2,0.6,1.5c0.2,0.1,0.4,0.1,0.5,0.1c0.8,0,1.5-0.7,1.6-1.5c0,0.1,0.1,0.6,0.1,0.7
			c0.2-0.1,0.4-0.2,0.6-0.3C246,72.3,246.3,70.7,245,70.5 M244.1,74.6c-0.5,0.2-0.8-0.2-0.7-0.7s1.1-0.6,1.6-1.2
			C245.1,73.5,244.7,74.1,244.1,74.6"/>
		<path class="st1" d="M249.4,69.9c-1.8-0.4-1.9,1-1.9,1l0.3,2.8l-0.9,0.3l-0.5-3.9l0.7-0.4l0.1,0.3c0.4-0.7,1.2-1.1,2.1-1
			L249.4,69.9z"/>
		<path class="st1" d="M251.7,69.2c-0.7-0.3-1.6,0.1-1.9,0.8c-0.1,0.2-0.1,0.4-0.1,0.6l0.7-0.2c0,0,0-0.5,0.4-0.7
			c0.8-0.4,1.1,0.6,0.1,1.1c-0.5,0.2-0.9,0.2-1.4,0.8c-0.2,0.5-0.1,1.1,0.4,1.3c0.1,0,0.2,0.1,0.3,0.1c0.7,0.1,1.3-0.4,1.4-1
			c0,0.1,0,0.5,0,0.6c0.2,0,0.4-0.1,0.6-0.2C252.3,70.9,252.8,69.6,251.7,69.2 M250.6,72.5c-0.4,0.1-0.5-0.2-0.4-0.5
			s0.8-0.3,1.2-0.7C251.3,71.8,251,72.2,250.6,72.5"/>
		<path class="st1" d="M297.2,58c0.3,0.4,0.1,1-0.3,1.3c0,0,0,0,0,0c-0.4,0.3-0.7,0.2-1.1,0.2c-0.5,0.1-1,0.1-1.5,0
			c-0.3-0.1-0.7-0.1-1.1,0c-0.2,0.1-0.4,0.3-0.6,0.5c-0.1,0.2-0.1,0.4,0,0.6c0,0.1,0,0.2,0,0.3c0,0.1-0.1,0.3-0.1,0.5
			c0,0.2,0.1,0.4,0.2,0.6c0.1,0.2,0.2,0.5,0.3,0.7c0.1,0.3-0.1,0.7,0,1s0.2,0.2,0.3,0.3s0.1,0.4,0.2,0.6c0.3,0.2,0.6,0.4,0.9,0.5
			c0.4,0.1,0.8-0.2,1.2-0.3c0.3-0.1,0.6-0.2,0.9-0.4c0.2-0.1,0.4-0.1,0.6-0.2c0.1-0.1,0.2-0.3,0.4-0.4c0.4-0.3,1-0.3,1.4-0.7
			c0.2-0.2,0.3-0.4,0.5-0.6s0.6-0.3,0.7-0.7s0-0.3,0.2-0.4s0.6-0.2,0.7-0.5c0.1-0.4,0-0.7-0.1-1.1c-0.1-0.2-0.4-0.3-0.5-0.5
			c0-0.2,0-0.4,0-0.6c0-0.2,0-0.3,0-0.5c-0.1-0.2-0.5-0.3-0.7-0.3c-0.6-0.1-1.1-0.1-1.7,0"/>
		<path class="st1" d="M273.5,40.1c-0.1,0.2-0.2,0.4-0.2,0.6c0,0.2-0.1,0.3-0.1,0.5c0,0.2,0.1,0.4,0.2,0.5c0.7,0.3,1.3,0.7,1.9,1.2
			c0.3,0.4,0.6,0.8,0.7,1.3c0.1,0.3,0.5,0.5,0.9,0.4c0.1,0,0.1-0.1,0.2-0.1c0.1-0.1,0.3-0.2,0.5-0.3c0.4-0.2,0.4-0.4,0.6-0.8
			c0.2-0.5,0.8-0.5,1.2-0.8c0.8-0.4,1.6-0.7,1.7-1.7c0-0.5-0.1-1.3-0.6-1.5c-0.2-0.1-0.7-0.3-0.8,0"/>
		<path class="st1" d="M290.3,44.2c-0.4,0-0.9,0.6-1.1,0.9c-0.1,0.2-0.2,0.5-0.3,0.7c-0.2,0.2-0.3,0.3-0.5,0.5
			c-0.5,0.4-0.9,0.9-1.3,1.3c-0.4,0.6,0.3,0.9,0.5,1.4s0.3,0.4,0.6,0.6s0.4,0.8,0.7,1.1c0.3,0.4,0.6,0.8,0.8,1.3
			c0.2,0.4,0.3,0.9,0.3,1.3c0.2,0,0.5-0.3,0.7-0.5c0.2-0.3,0.4-0.5,0.7-0.8c0.2-0.2,0.5-0.3,0.7-0.5c0.4-0.3,0.7-0.6,1-1
			c0.4-0.4,0.9-0.8,1.4-1.1c0.4-0.2,0.7-0.5,1-0.9c0.1-0.4,0.2-0.7,0.3-1.1c0.2-0.9-0.2-1.9-1-2.5c-0.2-0.2-0.9-0.6-1.2-0.3"/>
		<path class="st1" d="M242,23.1c0.3-0.5,0.3-1,0.9-1.4c0.5-0.4,1.2-0.7,1.8-0.7c1.5-0.2,2.9,0.5,3.8,1.8c1,1.2,1,2.8,0.9,4.3
			c0,0.6,0,1.3-0.1,2s-0.5,1-0.9,0.3c-0.6-1.2-0.6-3-2-3.5c-0.9-0.4-1.8,1.1-2.3,0.1c-0.2-0.5-0.9-2.5-1.7-2.2s0.4,2.6-1.1,1.8
			c-0.1-2.2,1.1-5.3,3.8-4.1"/>
		<path class="st1" d="M247.9,26.3c-0.3-0.5-1-0.7-1.6-0.4c0,0-0.1,0.1-0.1,0.1c-0.3,0.5-0.4,1.2-0.4,1.8c0,0.4-0.1,0.9-0.4,1.2
			c-0.8,0.8-1.8-0.1-2.3-0.7c-0.6-0.7-1.1-1.5-1.4-2.4c-0.2-0.8-0.1-1.6,0.3-2.3c0.8-1.2,3.2-0.7,4,0.2c0.4,0.5,0.8,1,1.1,1.5"/>
		<path class="st1" d="M13.3,42.6h8c1.9-0.1,3.8,0.1,5.7,0.6c1.3,0.4,2.3,1.2,3,2.4c0.8,1.2,1.2,3.1,1.2,5.8
			c0.1,1.3-0.2,2.6-0.9,3.8c-0.9,0.9-2.1,1.5-3.3,1.6c1.5,0.2,2.8,0.9,3.8,2.1c0.8,1.4,1.1,2.9,1,4.4V66c0.1,1.6-0.2,3.1-0.7,4.6
			c-0.4,1-1.3,1.7-2.3,2c-2.1,0.5-4.2,0.7-6.4,0.6h-9.2V42.6z M21.3,47.8v6.8H22c0.8,0,1.3-0.2,1.5-0.6c0.3-1.1,0.4-2.2,0.3-3.3
			c0-0.7-0.1-1.4-0.3-2c-0.1-0.3-0.4-0.6-0.7-0.7C22.3,47.9,21.8,47.9,21.3,47.8 M21.2,59.4V68c0.8,0.1,1.5-0.1,2.1-0.5
			c0.4-0.7,0.6-1.5,0.5-2.3v-2.9c0.1-0.8,0-1.6-0.4-2.4C22.7,59.5,22,59.3,21.2,59.4"/>
		<rect x="34.7" y="42.6" class="st1" width="8" height="30.6"/>
		<path class="st1" d="M64.4,56h-8v-5.4c0.1-1,0-2-0.3-2.9c-0.2-0.4-0.5-0.6-1.1-0.6c-0.5-0.1-1,0.2-1.2,0.7c-0.2,1-0.3,2-0.3,3
			v14.3c0,1,0.1,1.9,0.3,2.9c0.4,0.6,1.2,0.9,1.9,0.5c0.2-0.1,0.4-0.3,0.5-0.5c0.2-1.1,0.3-2.1,0.3-3.2V61h8v1.2
			c0.1,2.3-0.1,4.5-0.7,6.8c-0.6,1.5-1.6,2.7-3,3.5c-1.7,1-3.7,1.6-5.7,1.5c-2,0.1-4-0.4-5.8-1.3c-1.4-0.7-2.5-2-3-3.5
			c-0.6-2.2-0.8-4.5-0.7-6.7v-9c0-1.7,0-3.3,0.2-5c0.2-1.2,0.6-2.3,1.3-3.2c0.8-1.1,1.9-1.9,3.1-2.4c1.5-0.6,3-0.9,4.6-0.8
			c2-0.1,4,0.4,5.8,1.4c1.4,0.7,2.4,1.9,3,3.4c0.6,2,0.8,4.1,0.7,6.2V56z"/>
		<rect x="67.3" y="42.6" class="st1" width="8" height="30.6"/>
		<path class="st1" d="M97.4,42.6l-4,30.6H81.2l-4.6-30.6H85c1,8.4,1.7,15.6,2.1,21.4c0.4-5.9,0.8-11.1,1.3-15.7l0.6-5.7H97.4z"/>
		<rect x="98.7" y="42.6" class="st1" width="8" height="30.6"/>
		<polygon class="st1" points="117.9,42.6 117.9,67.1 122.7,67.1 122.7,73.2 109.9,73.2 109.9,42.6 		"/>
		<path class="st1" d="M132.6,73.2h-8V42.6h8V73.2z M135.1,36.5l-6.2,5.1H125l3.3-5.1H135.1z"/>
		<polygon class="st1" points="149.1,48.7 143.2,67.1 149.1,67.1 149.1,73.2 134.4,73.2 134.4,68.8 140.6,48.7 135.1,48.7 
			135.1,42.6 149.1,42.6 		"/>
		<path class="st1" d="M165.7,42.6l4.6,30.6h-8.1l-0.4-5.5h-2.9l-0.5,5.5h-8.2l4.1-30.6H165.7z M161.5,62.3
			c-0.4-3.5-0.8-7.8-1.2-12.9c-0.8,5.9-1.3,10.2-1.5,12.9H161.5z"/>
		<polygon class="st1" points="185.6,42.6 185.6,48.7 180.8,48.7 180.8,73.2 172.9,73.2 172.9,48.7 168.1,48.7 168.1,42.6 		"/>
		<polygon class="st1" points="187.4,42.6 200.6,42.6 200.6,48.7 195.3,48.7 195.3,54.5 200.3,54.5 200.3,60.4 195.3,60.4 
			195.3,67.1 201.2,67.1 201.2,73.2 187.4,73.2 		"/>
		<polygon class="st1" points="88.5,80.2 89.8,80.1 89.9,80.1 89.9,91 89.8,91.1 88.6,91.1 88.6,91 88.6,83.5 88.6,82.4 88.2,83.3 
			85.5,88 85.4,88.1 84.3,88.1 84.2,88 81.5,83.3 81.2,82.4 81.2,83.5 81.2,91 81.1,91.1 79.9,91.1 79.8,91 79.8,80.3 79.9,80.2 
			81.1,80.1 81.2,80.1 84.9,86.7 88.4,80.3 		"/>
		<polygon class="st1" points="94.4,91 94.4,91.1 93.2,91.1 93.1,91 93.1,80.3 93.2,80.2 94.4,80.1 94.4,80.1 		"/>
		<path class="st1" d="M104.4,88.4l1.1,0.4v0.1c-0.5,1.5-2,2.3-3.9,2.3c-2.6,0-4.2-1.3-4.2-4V84c0-2.6,1.6-4,4.2-4
			c1.6-0.1,3.1,0.8,3.8,2.2v0.1l-1.1,0.4h-0.1c-0.5-0.9-1.5-1.5-2.5-1.5c-1.5-0.1-2.7,1-2.9,2.4c0,0.1,0,0.3,0,0.4v3
			c-0.1,1.4,0.9,2.7,2.3,2.8c0.2,0,0.3,0,0.5,0c1.1,0.1,2.2-0.5,2.7-1.5L104.4,88.4z"/>
		<polygon class="st1" points="109.1,91.1 107.9,91.1 107.9,91 107.9,80.3 107.9,80.2 109.1,80.1 109.2,80.1 109.2,84.7 115,84.7 
			115,80.3 115.1,80.2 116.3,80.1 116.4,80.1 116.4,91 116.3,91.1 115.1,91.1 115,91 115,86 109.2,86 109.2,91 		"/>
		<path class="st1" d="M119.2,87.3V84c0-2.6,1.6-4,4.2-4s4.2,1.4,4.2,4v3.3c0,2.6-1.6,4-4.2,4S119.2,90,119.2,87.3 M120.5,84.1v3
			c0,1.6,1.3,2.9,2.9,2.9c1.6,0,2.9-1.3,2.9-2.9v-3c0-1.6-1.3-2.9-2.9-2.9C121.8,81.2,120.5,82.5,120.5,84.1"/>
		<path class="st1" d="M138.2,91L138.2,91l-1.5,0.1l-0.1-0.1l-0.8-2.6h-4.4l-0.8,2.6l-0.1,0.1H129V91l3.8-10.7l0.1-0.1l1.4-0.2
			l0.1,0.1L138.2,91z M131.8,87.1h3.6l-1.7-5l-0.2-0.7l-0.2,0.7L131.8,87.1z"/>
		<path class="st1" d="M146.7,88.4l1.1,0.4l0.1,0.1c-0.5,1.5-2,2.3-4,2.3c-2.6,0-4.2-1.3-4.2-4V84c0-2.6,1.6-4,4.2-4
			c1.6-0.1,3.1,0.8,3.8,2.2l-0.1,0.1l-1.1,0.4h-0.1c-0.5-0.9-1.5-1.5-2.6-1.5c-1.5-0.1-2.7,1-2.8,2.5c0,0.1,0,0.2,0,0.3v3
			c-0.2,1.4,0.9,2.7,2.3,2.9c0.2,0,0.4,0,0.5,0c1.1,0.1,2.2-0.5,2.7-1.5L146.7,88.4z"/>
		<path class="st1" d="M158,91L158,91l-1.5,0.1l-0.1-0.1l-0.8-2.6h-4.4l-0.9,2.6l-0.1,0.1h-1.5l-0.1-0.1l3.8-10.7l0.1-0.1l1.4-0.2
			l0.1,0.1L158,91z M151.6,87.1h3.6l-1.7-5l-0.1-0.7l-0.2,0.7L151.6,87.1z M153.4,79.2h-0.1l-0.8-0.3v-0.1l1-1.7l0.1-0.1h1.8
			l0.1,0.1L153.4,79.2z"/>
		<polygon class="st1" points="166.8,80.3 166.8,80.2 168,80.1 168.1,80.1 168.1,91 168,91.1 166.9,91.1 166.8,91 161.5,83 
			161,82.2 161,83.2 161,91 161,91.1 159.8,91.1 159.7,91 159.7,80.3 159.8,80.2 161,80.1 161.1,80.1 166.3,88 166.8,88.8 
			166.8,87.8 		"/>
		<path class="st1" d="M183.5,91L183.5,91l-1.5,0.1l-0.1-0.1l-0.8-2.6h-4.4l-0.8,2.6l-0.1,0.1h-1.5V91l3.8-10.7l0.1-0.1l1.4-0.2
			l0.1,0.1L183.5,91z M177.1,87.1h3.6l-1.7-5l-0.2-0.7l-0.2,0.7L177.1,87.1z"/>
		<polygon class="st1" points="186.3,91.1 184.8,91.1 184.8,91 184.8,89.5 184.8,89.4 186.3,89.4 186.4,89.5 186.4,91 		"/>
		<path class="st1" d="M195.5,88.4l1.1,0.4v0.1c-0.5,1.5-2,2.3-4,2.3c-2.6,0-4.2-1.3-4.2-4V84c0-2.6,1.6-4,4.2-4
			c1.6-0.1,3.1,0.8,3.8,2.2l-0.1,0.1l-1.1,0.4h-0.1c-0.5-0.9-1.5-1.5-2.6-1.5c-1.5-0.1-2.7,1-2.9,2.4c0,0.1,0,0.3,0,0.4v3
			c-0.1,1.4,0.9,2.7,2.4,2.8c0.2,0,0.4,0,0.6,0c1.1,0.1,2.2-0.5,2.7-1.5L195.5,88.4z"/>
		<polygon class="st1" points="200.1,91.1 198.6,91.1 198.6,91 198.6,89.5 198.6,89.4 200.1,89.4 200.2,89.5 200.2,91 		"/>
		<rect x="218.5" y="24" class="st1" width="1.5" height="78.4"/>
	</g>
</g>
</svg>
